{"glyphs":{"0":{"ha":900,"x_min":0,"x_max":0,"o":"m 450 1043 b 799 515 640 1043 799 851 b 450 -12 799 179 640 -12 b 101 515 258 -12 101 179 b 450 1043 101 851 258 1043 m 450 1008 b 139 515 279 1008 139 831 b 450 22 139 199 279 22 b 763 515 621 22 763 200 b 450 1008 763 831 621 1008 "},"1":{"ha":601,"x_min":0,"x_max":0,"o":"m 333 983 l 53 851 l 53 890 l 356 1032 l 369 1032 l 369 0 l 333 0 "},"2":{"ha":760,"x_min":0,"x_max":0,"o":"m 60 0 b 613 764 546 521 613 615 b 357 1008 613 888 525 1008 b 104 893 253 1008 164 961 l 104 938 b 357 1043 165 1004 257 1043 b 649 764 546 1043 649 908 b 140 35 649 592 540 471 l 674 35 l 674 0 l 60 0 "},"3":{"ha":763,"x_min":0,"x_max":0,"o":"m 413 533 b 664 264 571 510 664 404 b 363 -11 664 117 557 -11 b 92 107 247 -11 154 29 l 92 154 b 363 24 149 72 247 24 b 628 265 533 24 628 132 b 332 513 628 407 522 513 l 222 513 l 222 547 l 322 547 b 590 786 497 547 590 663 b 356 1008 590 908 497 1008 b 126 899 258 1008 174 963 l 126 946 b 356 1043 179 1004 261 1043 b 626 789 517 1043 626 926 b 413 533 626 674 550 561 "},"4":{"ha":850,"x_min":0,"x_max":0,"o":"m 790 269 l 606 269 l 606 0 l 569 0 l 569 269 l 51 269 l 51 296 l 575 1031 l 606 1031 l 606 304 l 790 304 m 569 304 l 569 964 l 568 964 l 100 306 l 100 304 "},"5":{"ha":764,"x_min":0,"x_max":0,"o":"m 631 997 l 278 997 l 192 581 l 193 581 b 350 613 228 596 285 613 b 679 301 558 613 679 467 b 353 -12 679 135 567 -12 b 75 104 233 -12 139 35 l 75 150 b 354 22 143 69 244 22 b 643 300 538 22 643 144 b 344 579 643 454 533 579 b 158 532 271 579 211 561 l 153 538 l 253 1031 l 631 1031 "},"6":{"ha":790,"x_min":0,"x_max":0,"o":"m 385 631 b 718 308 547 631 718 517 b 400 -12 718 132 588 -12 b 78 310 211 -12 78 135 b 214 606 78 414 125 493 l 546 1031 l 589 1031 l 257 607 b 385 631 285 618 333 631 m 400 22 b 682 306 567 22 682 151 b 378 597 682 499 528 597 b 224 564 314 597 260 581 b 114 308 150 467 114 403 b 400 22 114 154 232 22 "},"7":{"ha":694,"x_min":0,"x_max":0,"o":"m 622 997 l 75 997 l 75 1031 l 679 1031 l 131 0 l 89 0 "},"8":{"ha":836,"x_min":0,"x_max":0,"o":"m 514 532 b 738 267 649 500 738 394 b 418 -12 738 107 604 -12 b 100 267 232 -12 100 107 b 322 532 100 394 188 500 l 322 533 b 132 779 211 567 132 660 b 418 1043 132 925 253 1043 b 704 779 583 1043 704 925 b 514 533 704 660 624 567 l 514 532 m 167 779 b 418 549 167 647 276 549 b 669 779 560 549 669 647 b 418 1008 669 910 561 1008 b 167 779 275 1008 167 910 m 418 515 b 135 268 253 515 135 408 b 418 22 135 128 251 22 b 703 268 586 22 703 128 b 418 515 703 408 585 515 "},"9":{"ha":776,"x_min":0,"x_max":0,"o":"m 186 0 l 531 439 l 525 433 b 400 408 507 421 450 408 b 72 728 243 408 72 519 b 388 1043 72 900 201 1043 b 703 728 572 1043 703 900 b 569 435 703 628 660 549 l 228 0 m 558 475 b 667 726 631 571 667 635 b 388 1008 667 881 553 1008 b 108 729 222 1008 108 882 b 403 442 108 543 256 442 b 558 475 467 442 521 458 "},"\r":{"ha":358,"x_min":0,"x_max":0,"o":""}," ":{"ha":408,"x_min":0,"x_max":0,"o":""}," ":{"ha":408,"x_min":0,"x_max":0,"o":""},"A":{"ha":929,"x_min":0,"x_max":0,"o":"m 863 0 l 708 381 l 221 381 l 67 0 l 28 0 l 446 1031 l 483 1031 l 901 0 m 235 415 l 694 415 l 465 985 "},"B":{"ha":863,"x_min":0,"x_max":0,"o":"m 538 532 b 771 272 686 501 771 404 b 435 0 771 122 656 0 l 169 0 l 169 1031 l 422 1031 b 729 775 617 1031 729 926 b 538 532 729 651 663 561 m 206 546 l 433 546 b 692 774 617 546 692 654 b 426 997 692 911 593 997 l 206 997 m 435 35 b 735 272 633 35 735 140 b 439 511 735 407 631 511 l 206 511 l 206 35 l 435 35 "},"C":{"ha":922,"x_min":0,"x_max":0,"o":"m 856 58 b 592 -12 783 14 693 -12 b 93 517 344 -12 93 179 b 583 1043 93 853 343 1043 b 856 972 694 1043 785 1017 l 856 933 b 583 1008 781 982 692 1008 b 129 517 365 1008 129 835 b 590 22 129 197 368 22 b 856 99 692 22 778 49 l 856 58 "},"D":{"ha":996,"x_min":0,"x_max":0,"o":"m 365 1031 b 903 518 683 1031 903 836 b 365 0 903 199 682 0 l 169 0 l 169 1031 l 365 1031 m 206 35 l 367 35 b 865 517 658 35 865 214 b 367 997 865 821 658 997 l 206 997 "},"E":{"ha":765,"x_min":0,"x_max":0,"o":"m 169 1031 l 654 1031 l 654 997 l 206 997 l 206 540 l 629 540 l 629 507 l 206 507 l 206 35 l 654 35 l 654 0 l 169 0 "},"F":{"ha":739,"x_min":0,"x_max":0,"o":"m 169 1031 l 664 1031 l 664 997 l 206 997 l 206 532 l 646 532 l 646 497 l 206 497 l 206 0 l 169 0 "},"G":{"ha":994,"x_min":0,"x_max":0,"o":"m 129 517 b 586 25 129 217 331 22 b 842 78 686 26 768 44 l 842 547 l 878 547 l 878 56 b 586 -12 804 17 693 -12 b 93 517 314 -12 93 196 b 581 1043 93 838 313 1043 b 871 969 685 1043 788 1018 l 871 928 b 581 1007 781 982 682 1007 b 129 517 332 1007 129 818 "},"H":{"ha":1065,"x_min":0,"x_max":0,"o":"m 860 513 l 206 513 l 206 0 l 169 0 l 169 1031 l 206 1031 l 206 547 l 860 547 l 860 1031 l 896 1031 l 896 0 l 860 0 "},"I":{"ha":375,"x_min":0,"x_max":0,"o":"m 169 1031 l 206 1031 l 206 0 l 169 0 "},"J":{"ha":606,"x_min":0,"x_max":0,"o":"m 42 103 b 222 24 90 54 151 24 b 410 236 335 24 410 97 l 410 1031 l 446 1031 l 446 232 b 222 -11 446 81 357 -11 b 42 60 156 -11 92 14 l 42 103 "},"K":{"ha":833,"x_min":0,"x_max":0,"o":"m 206 0 l 169 0 l 169 1031 l 206 1031 m 254 515 l 807 0 l 757 0 l 206 515 l 753 1031 l 800 1031 "},"L":{"ha":722,"x_min":0,"x_max":0,"o":"m 169 1031 l 206 1031 l 206 35 l 686 35 l 686 0 l 169 0 "},"M":{"ha":1313,"x_min":0,"x_max":0,"o":"m 129 0 l 92 0 l 261 1031 l 304 1031 l 658 58 l 660 58 l 1004 1031 l 1049 1031 l 1221 0 l 1183 0 l 1024 972 l 1021 972 l 675 0 l 642 0 l 289 969 l 288 969 "},"N":{"ha":1079,"x_min":0,"x_max":0,"o":"m 910 0 l 874 0 l 207 972 l 206 972 l 206 0 l 169 0 l 169 1031 l 210 1031 l 872 64 l 874 64 l 874 1031 l 910 1031 "},"O":{"ha":1164,"x_min":0,"x_max":0,"o":"m 582 -12 b 93 515 304 -12 93 208 b 582 1043 93 822 304 1043 b 1071 515 858 1043 1071 822 b 582 -12 1071 208 858 -12 m 582 22 b 1035 515 831 22 1035 219 b 582 1008 1035 811 831 1008 b 129 515 332 1008 129 811 b 582 22 129 219 332 22 "},"P":{"ha":800,"x_min":0,"x_max":0,"o":"m 169 1031 l 375 1031 b 738 725 590 1031 738 919 b 374 408 738 524 592 408 l 206 408 l 206 0 l 169 0 m 375 443 b 700 724 574 443 700 544 b 376 997 700 899 572 997 l 206 997 l 206 443 l 375 443 "},"Q":{"ha":1165,"x_min":0,"x_max":0,"o":"m 1049 -68 l 892 99 b 582 -12 808 28 701 -12 b 93 515 304 -12 93 208 b 582 1043 93 822 304 1043 b 1071 515 858 1043 1071 822 b 918 124 1071 354 1013 218 l 1074 -43 m 582 22 b 867 125 689 22 789 60 l 647 358 l 674 383 l 893 149 b 1035 515 981 236 1035 363 b 582 1008 1035 811 831 1008 b 129 515 332 1008 129 811 b 582 22 129 219 332 22 "},"R":{"ha":797,"x_min":0,"x_max":0,"o":"m 732 0 l 682 0 l 210 476 l 206 476 l 206 0 l 169 0 l 169 1031 l 372 1031 b 700 753 601 1031 700 908 b 369 476 700 586 586 476 l 258 476 m 365 510 b 664 753 571 510 664 608 b 369 997 664 893 576 997 l 206 997 l 206 510 "},"S":{"ha":754,"x_min":0,"x_max":0,"o":"m 399 1044 b 628 974 475 1044 564 1022 l 628 931 b 399 1008 560 988 469 1008 b 147 797 250 1008 147 921 b 403 546 147 672 256 614 b 671 258 546 479 671 411 b 365 -12 671 100 539 -12 b 88 88 263 -12 161 26 l 88 133 b 365 22 164 63 268 22 b 635 256 519 22 635 119 b 378 518 635 389 522 450 b 110 794 225 589 110 650 b 399 1044 110 940 231 1044 "},"T":{"ha":793,"x_min":0,"x_max":0,"o":"m 378 997 l 32 997 l 32 1031 l 761 1031 l 761 997 l 414 997 l 414 0 l 378 0 "},"U":{"ha":1026,"x_min":0,"x_max":0,"o":"m 511 -12 b 156 375 293 -12 156 138 l 156 1031 l 192 1031 l 192 372 b 511 22 192 156 315 22 b 835 374 708 22 835 156 l 835 1031 l 871 1031 l 871 375 b 511 -12 871 138 731 -12 "},"V":{"ha":915,"x_min":0,"x_max":0,"o":"m 476 0 l 439 0 l 29 1031 l 68 1031 l 457 47 l 458 47 l 849 1031 l 886 1031 "},"W":{"ha":1429,"x_min":0,"x_max":0,"o":"m 715 974 l 392 0 l 351 0 l 44 1031 l 83 1031 l 371 56 l 372 56 l 697 1031 l 733 1031 l 1058 56 l 1060 56 l 1349 1031 l 1386 1031 l 1079 0 l 1039 0 "},"X":{"ha":854,"x_min":0,"x_max":0,"o":"m 406 519 l 47 1031 l 89 1031 l 428 547 l 764 1031 l 804 1031 l 447 521 l 814 0 l 771 0 l 426 492 l 83 0 l 42 0 "},"Y":{"ha":824,"x_min":0,"x_max":0,"o":"m 394 458 l 24 1031 l 64 1031 l 411 496 l 413 496 l 757 1031 l 797 1031 l 429 458 l 429 0 l 394 0 "},"Z":{"ha":775,"x_min":0,"x_max":0,"o":"m 101 35 l 700 35 l 700 0 l 36 0 l 671 996 l 671 997 l 83 997 l 83 1031 l 733 1031 "},"Á":{"ha":929,"x_min":0,"x_max":0,"o":"m 611 1385 l 435 1164 l 400 1164 l 568 1385 m 863 0 l 708 381 l 221 381 l 67 0 l 28 0 l 446 1031 l 483 1031 l 901 0 m 235 415 l 694 415 l 465 985 "},"Ă":{"ha":929,"x_min":0,"x_max":0,"o":"m 665 1368 b 465 1194 661 1257 571 1194 b 264 1368 360 1194 269 1257 l 299 1368 b 465 1226 304 1285 374 1226 b 631 1368 556 1226 625 1285 l 665 1368 m 863 0 l 708 381 l 221 381 l 67 0 l 28 0 l 446 1031 l 483 1031 l 901 0 m 235 415 l 694 415 l 465 985 "},"Â":{"ha":929,"x_min":0,"x_max":0,"o":"m 654 1164 l 614 1164 l 465 1354 l 317 1164 l 278 1164 l 450 1385 l 482 1385 m 863 0 l 708 381 l 221 381 l 67 0 l 28 0 l 446 1031 l 483 1031 l 901 0 m 235 415 l 694 415 l 465 985 "},"Ä":{"ha":929,"x_min":0,"x_max":0,"o":"m 356 1214 b 321 1247 336 1214 321 1229 b 356 1282 321 1267 336 1282 b 390 1247 375 1282 390 1267 b 356 1214 390 1229 375 1214 m 576 1214 b 542 1247 557 1214 542 1229 b 576 1282 542 1267 557 1282 b 611 1247 596 1282 611 1267 b 576 1214 611 1229 596 1214 m 863 0 l 708 381 l 221 381 l 67 0 l 28 0 l 446 1031 l 483 1031 l 901 0 m 235 415 l 694 415 l 465 985 "},"À":{"ha":929,"x_min":0,"x_max":0,"o":"m 531 1164 l 496 1164 l 319 1385 l 363 1385 m 863 0 l 708 381 l 221 381 l 67 0 l 28 0 l 446 1031 l 483 1031 l 901 0 m 235 415 l 694 415 l 465 985 "},"Ā":{"ha":929,"x_min":0,"x_max":0,"o":"m 282 1271 l 647 1271 l 647 1239 l 282 1239 m 863 0 l 708 381 l 221 381 l 67 0 l 28 0 l 446 1031 l 483 1031 l 901 0 m 235 415 l 694 415 l 465 985 "},"Ą":{"ha":929,"x_min":0,"x_max":0,"o":"m 756 -187 b 854 -282 756 -254 808 -282 b 901 -274 875 -282 894 -278 l 901 -304 b 854 -312 896 -308 875 -312 b 722 -192 792 -312 722 -275 b 861 3 722 -126 779 -60 l 708 381 l 221 381 l 67 0 l 28 0 l 446 1031 l 483 1031 l 901 0 b 756 -187 813 -69 756 -128 m 694 415 l 465 985 l 235 415 "},"Å":{"ha":929,"x_min":0,"x_max":0,"o":"m 465 1386 b 578 1278 529 1386 578 1336 b 465 1169 578 1219 529 1169 b 353 1278 401 1169 353 1219 b 465 1386 353 1336 401 1386 m 465 1360 b 382 1278 415 1360 382 1324 b 465 1196 382 1232 415 1196 b 549 1278 514 1196 549 1232 b 465 1360 549 1324 514 1360 m 863 0 l 708 381 l 221 381 l 67 0 l 28 0 l 446 1031 l 483 1031 l 901 0 m 235 415 l 694 415 l 465 985 "},"Ã":{"ha":929,"x_min":0,"x_max":0,"o":"m 682 1286 b 569 1175 686 1210 628 1175 b 360 1256 485 1175 436 1256 b 278 1175 311 1256 276 1226 l 246 1175 b 360 1286 243 1251 301 1286 b 569 1206 444 1286 493 1206 b 650 1286 618 1206 653 1235 l 682 1286 m 863 0 l 708 381 l 221 381 l 67 0 l 28 0 l 446 1031 l 483 1031 l 901 0 m 235 415 l 694 415 l 465 985 "},"Æ":{"ha":1331,"x_min":0,"x_max":0,"o":"m 771 997 l 771 540 l 1193 540 l 1193 507 l 771 507 l 771 35 l 1219 35 l 1219 0 l 735 0 l 735 382 l 304 382 l 36 0 l -8 0 l 713 1031 l 1219 1031 l 1219 997 m 735 417 l 735 994 l 733 994 l 328 417 "},"Ć":{"ha":922,"x_min":0,"x_max":0,"o":"m 728 1385 l 551 1164 l 517 1164 l 685 1385 m 856 58 b 592 -12 783 14 693 -12 b 93 517 344 -12 93 179 b 583 1043 93 853 343 1043 b 856 972 694 1043 785 1017 l 856 933 b 583 1008 781 982 692 1008 b 129 517 365 1008 129 835 b 590 22 129 197 368 22 b 856 99 692 22 778 49 l 856 58 "},"Č":{"ha":922,"x_min":0,"x_max":0,"o":"m 597 1164 l 565 1164 l 393 1385 l 433 1385 l 582 1194 l 731 1385 l 769 1385 m 856 58 b 592 -12 783 14 693 -12 b 93 517 344 -12 93 179 b 583 1043 93 853 343 1043 b 856 972 694 1043 785 1017 l 856 933 b 583 1008 781 982 692 1008 b 129 517 365 1008 129 835 b 590 22 129 197 368 22 b 856 99 692 22 778 49 l 856 58 "},"Ç":{"ha":922,"x_min":0,"x_max":0,"o":"m 583 1008 b 129 517 365 1008 129 835 b 590 22 129 197 368 22 b 856 99 692 22 778 49 l 856 58 b 592 -12 783 14 693 -12 l 569 -12 b 472 -247 564 -122 519 -189 l 431 -247 b 536 -10 486 -179 532 -115 b 93 517 308 17 93 204 b 583 1043 93 853 343 1043 b 856 972 694 1043 785 1017 l 856 933 b 583 1008 781 982 692 1008 "},"Ċ":{"ha":922,"x_min":0,"x_max":0,"o":"m 581 1214 b 546 1247 563 1214 546 1229 b 581 1282 546 1267 563 1282 b 617 1247 600 1282 617 1267 b 581 1214 617 1229 600 1214 m 856 58 b 592 -12 783 14 693 -12 b 93 517 344 -12 93 179 b 583 1043 93 853 343 1043 b 856 972 694 1043 785 1017 l 856 933 b 583 1008 781 982 692 1008 b 129 517 365 1008 129 835 b 590 22 129 197 368 22 b 856 99 692 22 778 49 l 856 58 "},"Ð":{"ha":1006,"x_min":0,"x_max":0,"o":"m 375 1031 b 913 518 693 1031 913 836 b 375 0 913 199 692 0 l 179 0 l 179 513 l 18 513 l 18 543 l 179 543 l 179 1031 l 375 1031 m 376 35 b 875 517 668 35 875 214 b 376 997 875 821 668 997 l 215 997 l 215 543 l 535 543 l 535 513 l 215 513 l 215 35 l 376 35 "},"Ď":{"ha":996,"x_min":0,"x_max":0,"o":"m 488 1164 l 456 1164 l 283 1385 l 324 1385 l 472 1194 l 621 1385 l 660 1385 m 365 1031 b 903 518 683 1031 903 836 b 365 0 903 199 682 0 l 169 0 l 169 1031 l 365 1031 m 206 35 l 367 35 b 865 517 658 35 865 214 b 367 997 865 821 658 997 l 206 997 "},"Đ":{"ha":1006,"x_min":0,"x_max":0,"o":"m 375 1031 b 913 518 693 1031 913 836 b 375 0 913 199 692 0 l 179 0 l 179 513 l 18 513 l 18 543 l 179 543 l 179 1031 l 375 1031 m 376 35 b 875 517 668 35 875 214 b 376 997 875 821 668 997 l 215 997 l 215 543 l 535 543 l 535 513 l 215 513 l 215 35 l 376 35 "},"É":{"ha":765,"x_min":0,"x_max":0,"o":"m 565 1385 l 389 1164 l 354 1164 l 522 1385 m 169 1031 l 654 1031 l 654 997 l 206 997 l 206 540 l 629 540 l 629 507 l 206 507 l 206 35 l 654 35 l 654 0 l 169 0 "},"Ě":{"ha":765,"x_min":0,"x_max":0,"o":"m 435 1164 l 403 1164 l 231 1385 l 271 1385 l 419 1194 l 568 1385 l 607 1385 m 169 1031 l 654 1031 l 654 997 l 206 997 l 206 540 l 629 540 l 629 507 l 206 507 l 206 35 l 654 35 l 654 0 l 169 0 "},"Ê":{"ha":765,"x_min":0,"x_max":0,"o":"m 608 1164 l 568 1164 l 419 1354 l 271 1164 l 232 1164 l 404 1385 l 436 1385 m 169 1031 l 654 1031 l 654 997 l 206 997 l 206 540 l 629 540 l 629 507 l 206 507 l 206 35 l 654 35 l 654 0 l 169 0 "},"Ë":{"ha":765,"x_min":0,"x_max":0,"o":"m 310 1214 b 275 1247 290 1214 275 1229 b 310 1282 275 1267 290 1282 b 344 1247 329 1282 344 1267 b 310 1214 344 1229 329 1214 m 531 1214 b 496 1247 511 1214 496 1229 b 531 1282 496 1267 511 1282 b 565 1247 550 1282 565 1267 b 531 1214 565 1229 550 1214 m 169 1031 l 654 1031 l 654 997 l 206 997 l 206 540 l 629 540 l 629 507 l 206 507 l 206 35 l 654 35 l 654 0 l 169 0 "},"Ė":{"ha":765,"x_min":0,"x_max":0,"o":"m 418 1214 b 383 1247 400 1214 383 1229 b 418 1282 383 1267 400 1282 b 454 1247 438 1282 454 1267 b 418 1214 454 1229 438 1214 m 169 1031 l 654 1031 l 654 997 l 206 997 l 206 540 l 629 540 l 629 507 l 206 507 l 206 35 l 654 35 l 654 0 l 169 0 "},"È":{"ha":765,"x_min":0,"x_max":0,"o":"m 485 1164 l 450 1164 l 274 1385 l 317 1385 m 169 1031 l 654 1031 l 654 997 l 206 997 l 206 540 l 629 540 l 629 507 l 206 507 l 206 35 l 654 35 l 654 0 l 169 0 "},"Ē":{"ha":765,"x_min":0,"x_max":0,"o":"m 236 1271 l 601 1271 l 601 1239 l 236 1239 m 169 1031 l 654 1031 l 654 997 l 206 997 l 206 540 l 629 540 l 629 507 l 206 507 l 206 35 l 654 35 l 654 0 l 169 0 "},"Ę":{"ha":765,"x_min":0,"x_max":0,"o":"m 206 997 l 206 540 l 629 540 l 629 507 l 206 507 l 206 35 l 654 35 l 654 0 b 508 -187 565 -69 508 -128 b 607 -282 508 -254 561 -282 b 654 -274 628 -282 647 -278 l 654 -304 b 607 -312 649 -308 628 -312 b 475 -192 544 -312 475 -275 b 610 0 475 -128 531 -62 l 169 0 l 169 1031 l 654 1031 l 654 997 "},"Ğ":{"ha":994,"x_min":0,"x_max":0,"o":"m 774 1368 b 574 1194 769 1257 679 1194 b 372 1368 468 1194 378 1257 l 407 1368 b 574 1226 413 1285 482 1226 b 739 1368 664 1226 733 1285 l 774 1368 m 129 517 b 586 25 129 217 331 22 b 842 78 686 26 768 44 l 842 547 l 878 547 l 878 56 b 586 -12 804 17 693 -12 b 93 517 314 -12 93 196 b 581 1043 93 838 313 1043 b 871 969 685 1043 788 1018 l 871 928 b 581 1007 781 982 682 1007 b 129 517 332 1007 129 818 "},"Ģ":{"ha":994,"x_min":0,"x_max":0,"o":"m 129 517 b 586 25 129 217 331 22 b 842 78 686 26 768 44 l 842 547 l 878 547 l 878 56 b 586 -12 804 17 693 -12 b 93 517 314 -12 93 196 b 581 1043 93 838 313 1043 b 871 969 685 1043 788 1018 l 871 928 b 581 1007 781 982 682 1007 b 129 517 332 1007 129 818 m 583 -110 b 550 -340 593 -178 583 -258 l 519 -340 b 547 -110 547 -261 556 -182 l 583 -110 "},"Ġ":{"ha":994,"x_min":0,"x_max":0,"o":"m 572 1214 b 538 1247 554 1214 538 1229 b 572 1282 538 1267 554 1282 b 608 1247 592 1282 608 1267 b 572 1214 608 1229 592 1214 m 129 517 b 586 25 129 217 331 22 b 842 78 686 26 768 44 l 842 547 l 878 547 l 878 56 b 586 -12 804 17 693 -12 b 93 517 314 -12 93 196 b 581 1043 93 838 313 1043 b 871 969 685 1043 788 1018 l 871 928 b 581 1007 781 982 682 1007 b 129 517 332 1007 129 818 "},"Ħ":{"ha":1067,"x_min":0,"x_max":0,"o":"m 999 775 l 897 775 l 897 0 l 861 0 l 861 513 l 207 513 l 207 0 l 171 0 l 171 775 l 44 775 l 46 806 l 171 806 l 171 1031 l 207 1031 l 207 806 l 861 806 l 861 1031 l 897 1031 l 897 806 l 1001 806 m 861 775 l 207 775 l 207 547 l 861 547 "},"Ĳ":{"ha":996,"x_min":0,"x_max":0,"o":"m 169 1031 l 206 1031 l 206 0 l 169 0 m 431 103 b 611 24 479 54 540 24 b 799 236 724 24 799 97 l 799 1031 l 835 1031 l 835 232 b 611 -11 835 81 746 -11 b 431 60 544 -11 481 14 l 431 103 "},"Í":{"ha":375,"x_min":0,"x_max":0,"o":"m 333 1385 l 157 1164 l 122 1164 l 290 1385 m 169 1031 l 206 1031 l 206 0 l 169 0 "},"Î":{"ha":375,"x_min":0,"x_max":0,"o":"m 376 1164 l 336 1164 l 188 1354 l 39 1164 l 0 1164 l 172 1385 l 204 1385 m 169 1031 l 206 1031 l 206 0 l 169 0 "},"Ï":{"ha":375,"x_min":0,"x_max":0,"o":"m 78 1214 b 43 1247 58 1214 43 1229 b 78 1282 43 1267 58 1282 b 113 1247 97 1282 113 1267 b 78 1214 113 1229 97 1214 m 299 1214 b 264 1247 279 1214 264 1229 b 299 1282 264 1267 279 1282 b 333 1247 318 1282 333 1267 b 299 1214 333 1229 318 1214 m 169 1031 l 206 1031 l 206 0 l 169 0 "},"İ":{"ha":375,"x_min":0,"x_max":0,"o":"m 186 1214 b 151 1247 168 1214 151 1229 b 186 1282 151 1267 168 1282 b 222 1247 206 1282 222 1267 b 186 1214 222 1229 206 1214 m 169 1031 l 206 1031 l 206 0 l 169 0 "},"Ì":{"ha":375,"x_min":0,"x_max":0,"o":"m 253 1164 l 218 1164 l 42 1385 l 85 1385 m 169 1031 l 206 1031 l 206 0 l 169 0 "},"Ī":{"ha":375,"x_min":0,"x_max":0,"o":"m 4 1271 l 369 1271 l 369 1239 l 4 1239 m 169 1031 l 206 1031 l 206 0 l 169 0 "},"Į":{"ha":375,"x_min":0,"x_max":0,"o":"m 206 0 b 60 -187 117 -69 60 -128 b 158 -282 60 -254 113 -282 b 206 -274 179 -282 199 -278 l 206 -304 b 158 -312 200 -308 179 -312 b 26 -192 96 -312 26 -275 b 169 6 26 -125 86 -58 l 169 1031 l 206 1031 l 206 0 "},"Ķ":{"ha":833,"x_min":0,"x_max":0,"o":"m 206 0 l 169 0 l 169 1031 l 206 1031 m 254 515 l 807 0 l 757 0 l 206 515 l 753 1031 l 800 1031 m 472 -110 b 439 -340 482 -178 472 -258 l 408 -340 b 436 -110 436 -261 444 -182 l 472 -110 "},"Ĺ":{"ha":722,"x_min":0,"x_max":0,"o":"m 333 1385 l 157 1164 l 122 1164 l 290 1385 m 169 1031 l 206 1031 l 206 35 l 686 35 l 686 0 l 169 0 "},"Ľ":{"ha":722,"x_min":0,"x_max":0,"o":"m 339 897 b 357 1026 349 936 357 981 b 347 1106 357 1058 353 1086 l 382 1106 b 389 1039 385 1090 389 1064 b 365 897 389 997 385 950 l 339 897 m 169 1031 l 206 1031 l 206 35 l 686 35 l 686 0 l 169 0 "},"Ļ":{"ha":722,"x_min":0,"x_max":0,"o":"m 169 1031 l 206 1031 l 206 35 l 686 35 l 686 0 l 169 0 m 447 -110 b 414 -340 457 -178 447 -258 l 383 -340 b 411 -110 411 -261 419 -182 l 447 -110 "},"Ŀ":{"ha":749,"x_min":0,"x_max":0,"o":"m 169 1031 l 206 1031 l 206 35 l 686 35 l 686 0 l 169 0 m 554 472 b 508 518 529 472 508 492 b 554 564 508 544 529 564 b 601 518 581 564 601 544 b 554 472 601 492 581 472 "},"Ł":{"ha":739,"x_min":0,"x_max":0,"o":"m 703 35 l 703 0 l 186 0 l 186 454 l 14 354 l 14 392 l 186 492 l 186 1031 l 222 1031 l 222 513 l 481 661 l 481 624 l 222 475 l 222 35 "},"Ń":{"ha":1079,"x_min":0,"x_max":0,"o":"m 689 1385 l 513 1164 l 478 1164 l 646 1385 m 910 0 l 874 0 l 207 972 l 206 972 l 206 0 l 169 0 l 169 1031 l 210 1031 l 872 64 l 874 64 l 874 1031 l 910 1031 "},"Ň":{"ha":1079,"x_min":0,"x_max":0,"o":"m 558 1164 l 526 1164 l 354 1385 l 394 1385 l 543 1194 l 692 1385 l 731 1385 m 910 0 l 874 0 l 207 972 l 206 972 l 206 0 l 169 0 l 169 1031 l 210 1031 l 872 64 l 874 64 l 874 1031 l 910 1031 "},"Ņ":{"ha":1079,"x_min":0,"x_max":0,"o":"m 910 0 l 874 0 l 207 972 l 206 972 l 206 0 l 169 0 l 169 1031 l 210 1031 l 872 64 l 874 64 l 874 1031 l 910 1031 m 558 -110 b 525 -340 568 -178 558 -258 l 494 -340 b 522 -110 522 -261 531 -182 l 558 -110 "},"Ŋ":{"ha":1081,"x_min":0,"x_max":0,"o":"m 911 -69 b 688 -312 911 -222 822 -312 b 506 -242 621 -312 557 -287 l 506 -199 b 688 -278 556 -247 617 -278 b 875 -67 800 -278 875 -206 l 875 0 l 207 972 l 206 972 l 206 0 l 169 0 l 169 1031 l 210 1031 l 874 64 l 875 64 l 875 1031 l 911 1031 "},"Ñ":{"ha":1079,"x_min":0,"x_max":0,"o":"m 760 1286 b 647 1175 764 1210 706 1175 b 438 1256 563 1175 514 1256 b 356 1175 389 1256 354 1226 l 324 1175 b 438 1286 321 1251 379 1286 b 647 1206 522 1286 571 1206 b 728 1286 696 1206 731 1235 l 760 1286 m 910 0 l 874 0 l 207 972 l 206 972 l 206 0 l 169 0 l 169 1031 l 210 1031 l 872 64 l 874 64 l 874 1031 l 910 1031 "},"Ó":{"ha":1164,"x_min":0,"x_max":0,"o":"m 728 1385 l 551 1164 l 517 1164 l 685 1385 m 582 -12 b 93 515 304 -12 93 208 b 582 1043 93 822 304 1043 b 1071 515 858 1043 1071 822 b 582 -12 1071 208 858 -12 m 582 22 b 1035 515 831 22 1035 219 b 582 1008 1035 811 831 1008 b 129 515 332 1008 129 811 b 582 22 129 219 332 22 "},"Ô":{"ha":1164,"x_min":0,"x_max":0,"o":"m 771 1164 l 731 1164 l 582 1354 l 433 1164 l 394 1164 l 567 1385 l 599 1385 m 582 -12 b 93 515 304 -12 93 208 b 582 1043 93 822 304 1043 b 1071 515 858 1043 1071 822 b 582 -12 1071 208 858 -12 m 582 22 b 1035 515 831 22 1035 219 b 582 1008 1035 811 831 1008 b 129 515 332 1008 129 811 b 582 22 129 219 332 22 "},"Ö":{"ha":1164,"x_min":0,"x_max":0,"o":"m 472 1214 b 438 1247 453 1214 438 1229 b 472 1282 438 1267 453 1282 b 507 1247 492 1282 507 1267 b 472 1214 507 1229 492 1214 m 693 1214 b 658 1247 674 1214 658 1229 b 693 1282 658 1267 674 1282 b 728 1247 713 1282 728 1267 b 693 1214 728 1229 713 1214 m 582 -12 b 93 515 304 -12 93 208 b 582 1043 93 822 304 1043 b 1071 515 858 1043 1071 822 b 582 -12 1071 208 858 -12 m 582 22 b 1035 515 831 22 1035 219 b 582 1008 1035 811 831 1008 b 129 515 332 1008 129 811 b 582 22 129 219 332 22 "},"Ò":{"ha":1164,"x_min":0,"x_max":0,"o":"m 647 1164 l 613 1164 l 436 1385 l 479 1385 m 582 -12 b 93 515 304 -12 93 208 b 582 1043 93 822 304 1043 b 1071 515 858 1043 1071 822 b 582 -12 1071 208 858 -12 m 582 22 b 1035 515 831 22 1035 219 b 582 1008 1035 811 831 1008 b 129 515 332 1008 129 811 b 582 22 129 219 332 22 "},"Ő":{"ha":1164,"x_min":0,"x_max":0,"o":"m 482 1164 l 446 1164 l 638 1385 l 682 1385 m 674 1164 l 638 1164 l 828 1385 l 874 1385 m 582 -12 b 93 515 304 -12 93 208 b 582 1043 93 822 304 1043 b 1071 515 858 1043 1071 822 b 582 -12 1071 208 858 -12 m 582 22 b 1035 515 831 22 1035 219 b 582 1008 1035 811 831 1008 b 129 515 332 1008 129 811 b 582 22 129 219 332 22 "},"Ō":{"ha":1164,"x_min":0,"x_max":0,"o":"m 399 1271 l 764 1271 l 764 1239 l 399 1239 m 582 -12 b 93 515 304 -12 93 208 b 582 1043 93 822 304 1043 b 1071 515 858 1043 1071 822 b 582 -12 1071 208 858 -12 m 582 22 b 1035 515 831 22 1035 219 b 582 1008 1035 811 831 1008 b 129 515 332 1008 129 811 b 582 22 129 219 332 22 "},"Ø":{"ha":1175,"x_min":0,"x_max":0,"o":"m 951 879 b 1078 515 1031 786 1078 660 b 589 -12 1078 208 865 -12 b 244 132 453 -12 332 40 l 113 -7 l 90 14 l 224 154 b 99 515 146 246 99 371 b 589 1043 99 822 311 1043 b 931 900 724 1043 844 990 l 1061 1038 l 1082 1017 m 136 515 b 249 181 136 381 179 265 l 907 874 b 589 1008 825 960 713 1008 b 136 515 338 1008 136 811 m 1040 515 b 926 853 1040 651 997 767 l 268 158 b 589 22 350 72 464 22 b 1040 515 838 22 1040 219 "},"Õ":{"ha":1164,"x_min":0,"x_max":0,"o":"m 799 1286 b 686 1175 803 1210 744 1175 b 476 1256 601 1175 553 1256 b 394 1175 428 1256 393 1226 l 363 1175 b 476 1286 360 1251 418 1286 b 686 1206 561 1286 610 1206 b 767 1286 735 1206 769 1235 l 799 1286 m 582 -12 b 93 515 304 -12 93 208 b 582 1043 93 822 304 1043 b 1071 515 858 1043 1071 822 b 582 -12 1071 208 858 -12 m 582 22 b 1035 515 831 22 1035 219 b 582 1008 1035 811 831 1008 b 129 515 332 1008 129 811 b 582 22 129 219 332 22 "},"Œ":{"ha":1343,"x_min":0,"x_max":0,"o":"m 1233 997 l 783 997 l 783 540 l 1207 540 l 1207 507 l 783 507 l 783 35 l 1233 35 l 1233 0 l 747 0 b 590 -12 703 -7 649 -12 b 92 515 307 -12 92 208 b 590 1043 92 822 307 1043 b 747 1031 649 1043 703 1039 l 1233 1031 m 747 994 b 590 1008 701 1004 647 1008 b 129 515 335 1008 129 811 b 590 22 129 219 335 22 b 747 36 647 22 701 26 l 747 994 "},"Þ":{"ha":797,"x_min":0,"x_max":0,"o":"m 169 1031 l 206 1031 l 206 842 l 371 842 b 731 535 582 842 731 732 b 369 219 731 333 583 219 l 206 219 l 206 0 l 169 0 m 371 254 b 693 535 567 254 693 357 b 372 807 693 708 567 807 l 206 807 l 206 254 l 371 254 "},"Ŕ":{"ha":797,"x_min":0,"x_max":0,"o":"m 375 1164 l 340 1164 l 508 1385 l 551 1385 m 732 0 l 682 0 l 210 476 l 206 476 l 206 0 l 169 0 l 169 1031 l 372 1031 b 700 753 601 1031 700 908 b 369 476 700 586 586 476 l 258 476 m 365 510 b 664 753 571 510 664 608 b 369 997 664 893 576 997 l 206 997 l 206 510 "},"Ř":{"ha":797,"x_min":0,"x_max":0,"o":"m 389 1164 l 217 1385 l 257 1385 l 406 1194 l 554 1385 l 593 1385 l 421 1164 m 732 0 l 682 0 l 210 476 l 206 476 l 206 0 l 169 0 l 169 1031 l 372 1031 b 700 753 601 1031 700 908 b 369 476 700 586 586 476 l 258 476 m 365 510 b 664 753 571 510 664 608 b 369 997 664 893 576 997 l 206 997 l 206 510 "},"Ŗ":{"ha":797,"x_min":0,"x_max":0,"o":"m 732 0 l 682 0 l 210 476 l 206 476 l 206 0 l 169 0 l 169 1031 l 372 1031 b 700 753 601 1031 700 908 b 369 476 700 586 586 476 l 258 476 m 365 510 b 664 753 571 510 664 608 b 369 997 664 893 576 997 l 206 997 l 206 510 m 443 -110 b 410 -340 453 -178 443 -258 l 379 -340 b 407 -110 407 -261 415 -182 "},"Ś":{"ha":754,"x_min":0,"x_max":0,"o":"m 543 1385 l 367 1164 l 332 1164 l 500 1385 m 399 1044 b 628 974 475 1044 564 1022 l 628 931 b 399 1008 560 988 469 1008 b 147 797 250 1008 147 921 b 403 546 147 672 256 614 b 671 258 546 479 671 411 b 365 -12 671 100 539 -12 b 88 88 263 -12 161 26 l 88 133 b 365 22 164 63 268 22 b 635 256 519 22 635 119 b 378 518 635 389 522 450 b 110 794 225 589 110 650 b 399 1044 110 940 231 1044 "},"Š":{"ha":754,"x_min":0,"x_max":0,"o":"m 413 1164 l 381 1164 l 208 1385 l 249 1385 l 397 1194 l 546 1385 l 585 1385 m 399 1044 b 628 974 475 1044 564 1022 l 628 931 b 399 1008 560 988 469 1008 b 147 797 250 1008 147 921 b 403 546 147 672 256 614 b 671 258 546 479 671 411 b 365 -12 671 100 539 -12 b 88 88 263 -12 161 26 l 88 133 b 365 22 164 63 268 22 b 635 256 519 22 635 119 b 378 518 635 389 522 450 b 110 794 225 589 110 650 b 399 1044 110 940 231 1044 "},"Ş":{"ha":754,"x_min":0,"x_max":0,"o":"m 671 258 b 389 -12 671 107 550 -3 b 292 -247 383 -121 339 -189 l 250 -247 b 356 -12 306 -181 350 -117 b 88 88 256 -10 158 28 l 88 133 b 365 22 164 63 268 22 b 635 256 519 22 635 119 b 378 518 635 389 522 450 b 110 794 225 589 110 650 b 399 1044 110 940 231 1044 b 628 974 475 1044 564 1022 l 628 931 b 399 1008 560 988 469 1008 b 147 797 250 1008 147 921 b 403 546 147 672 256 614 b 671 258 546 479 671 411 "},"Ș":{"ha":754,"x_min":0,"x_max":0,"o":"m 399 1044 b 628 974 475 1044 564 1022 l 628 931 b 399 1008 560 988 469 1008 b 147 797 250 1008 147 921 b 403 546 147 672 256 614 b 671 258 546 479 671 411 b 365 -12 671 100 539 -12 b 88 88 263 -12 161 26 l 88 133 b 365 22 164 63 268 22 b 635 256 519 22 635 119 b 378 518 635 389 522 450 b 110 794 225 589 110 650 b 399 1044 110 940 231 1044 m 389 -110 b 356 -340 399 -178 389 -258 l 325 -340 b 353 -110 353 -261 361 -182 l 389 -110 "},"ẞ":{"ha":997,"x_min":0,"x_max":0,"o":"m 593 556 b 925 275 789 556 925 440 b 617 -11 925 117 801 -11 b 335 97 510 -11 408 32 l 335 142 b 617 24 408 74 508 24 b 889 276 774 24 889 133 b 586 525 889 424 768 525 l 499 525 l 801 919 b 546 1011 728 986 632 1011 b 190 644 333 1011 190 856 l 190 0 l 154 0 l 154 647 b 547 1046 154 874 313 1046 b 846 928 650 1046 761 1011 l 561 556 l 593 556 "},"Ŧ":{"ha":825,"x_min":0,"x_max":0,"o":"m 429 997 l 429 538 l 664 538 l 664 504 l 429 504 l 429 0 l 393 0 l 393 504 l 163 504 l 163 538 l 393 538 l 393 997 l 47 997 l 47 1031 l 776 1031 l 776 997 "},"Ť":{"ha":793,"x_min":0,"x_max":0,"o":"m 411 1164 l 379 1164 l 207 1385 l 247 1385 l 396 1194 l 544 1385 l 583 1385 m 378 997 l 32 997 l 32 1031 l 761 1031 l 761 997 l 414 997 l 414 0 l 378 0 "},"Ţ":{"ha":793,"x_min":0,"x_max":0,"o":"m 761 1031 l 761 997 l 414 997 l 414 0 b 317 -247 413 -117 365 -187 l 275 -247 b 381 0 332 -178 379 -111 l 378 0 l 378 997 l 32 997 l 32 1031 "},"Ț":{"ha":793,"x_min":0,"x_max":0,"o":"m 378 997 l 32 997 l 32 1031 l 761 1031 l 761 997 l 414 997 l 414 0 l 378 0 m 414 -110 b 381 -340 424 -178 414 -258 l 350 -340 b 378 -110 378 -261 386 -182 l 414 -110 "},"Ú":{"ha":1026,"x_min":0,"x_max":0,"o":"m 658 1385 l 482 1164 l 447 1164 l 615 1385 m 511 -12 b 156 375 293 -12 156 138 l 156 1031 l 192 1031 l 192 372 b 511 22 192 156 315 22 b 835 374 708 22 835 156 l 835 1031 l 871 1031 l 871 375 b 511 -12 871 138 731 -12 "},"Û":{"ha":1026,"x_min":0,"x_max":0,"o":"m 701 1164 l 661 1164 l 513 1354 l 364 1164 l 325 1164 l 497 1385 l 529 1385 m 511 -12 b 156 375 293 -12 156 138 l 156 1031 l 192 1031 l 192 372 b 511 22 192 156 315 22 b 835 374 708 22 835 156 l 835 1031 l 871 1031 l 871 375 b 511 -12 871 138 731 -12 "},"Ü":{"ha":1026,"x_min":0,"x_max":0,"o":"m 403 1214 b 368 1247 383 1214 368 1229 b 403 1282 368 1267 383 1282 b 438 1247 422 1282 438 1267 b 403 1214 438 1229 422 1214 m 624 1214 b 589 1247 604 1214 589 1229 b 624 1282 589 1267 604 1282 b 658 1247 643 1282 658 1267 b 624 1214 658 1229 643 1214 m 511 -12 b 156 375 293 -12 156 138 l 156 1031 l 192 1031 l 192 372 b 511 22 192 156 315 22 b 835 374 708 22 835 156 l 835 1031 l 871 1031 l 871 375 b 511 -12 871 138 731 -12 "},"Ù":{"ha":1026,"x_min":0,"x_max":0,"o":"m 578 1164 l 543 1164 l 367 1385 l 410 1385 m 511 -12 b 156 375 293 -12 156 138 l 156 1031 l 192 1031 l 192 372 b 511 22 192 156 315 22 b 835 374 708 22 835 156 l 835 1031 l 871 1031 l 871 375 b 511 -12 871 138 731 -12 "},"Ű":{"ha":1026,"x_min":0,"x_max":0,"o":"m 413 1164 l 376 1164 l 568 1385 l 613 1385 m 604 1164 l 568 1164 l 758 1385 l 804 1385 m 511 -12 b 156 375 293 -12 156 138 l 156 1031 l 192 1031 l 192 372 b 511 22 192 156 315 22 b 835 374 708 22 835 156 l 835 1031 l 871 1031 l 871 375 b 511 -12 871 138 731 -12 "},"Ū":{"ha":1026,"x_min":0,"x_max":0,"o":"m 329 1271 l 694 1271 l 694 1239 l 329 1239 m 511 -12 b 156 375 293 -12 156 138 l 156 1031 l 192 1031 l 192 372 b 511 22 192 156 315 22 b 835 374 708 22 835 156 l 835 1031 l 871 1031 l 871 375 b 511 -12 871 138 731 -12 "},"Ų":{"ha":1026,"x_min":0,"x_max":0,"o":"m 871 1031 l 871 375 b 758 79 871 253 833 150 b 594 -187 657 -40 594 -117 b 694 -282 594 -254 647 -282 b 742 -274 714 -282 735 -278 l 742 -304 b 693 -312 735 -308 713 -312 b 561 -190 629 -312 561 -272 b 676 26 561 -128 606 -60 b 511 -12 629 1 574 -12 b 156 375 293 -12 156 138 l 156 1031 l 192 1031 l 192 372 b 511 22 192 156 315 22 b 835 374 708 22 835 156 l 835 1031 "},"Ů":{"ha":1026,"x_min":0,"x_max":0,"o":"m 513 1386 b 625 1278 576 1386 625 1336 b 513 1169 625 1219 576 1169 b 400 1278 449 1169 400 1219 b 513 1386 400 1336 449 1386 m 513 1360 b 429 1278 463 1360 429 1324 b 513 1196 429 1232 463 1196 b 596 1278 561 1196 596 1232 b 513 1360 596 1324 561 1360 m 511 -12 b 156 375 293 -12 156 138 l 156 1031 l 192 1031 l 192 372 b 511 22 192 156 315 22 b 835 374 708 22 835 156 l 835 1031 l 871 1031 l 871 375 b 511 -12 871 138 731 -12 "},"Ẃ":{"ha":1429,"x_min":0,"x_max":0,"o":"m 861 1385 l 685 1164 l 650 1164 l 818 1385 m 715 974 l 392 0 l 351 0 l 44 1031 l 83 1031 l 371 56 l 372 56 l 697 1031 l 733 1031 l 1058 56 l 1060 56 l 1349 1031 l 1386 1031 l 1079 0 l 1039 0 "},"Ŵ":{"ha":1429,"x_min":0,"x_max":0,"o":"m 904 1164 l 864 1164 l 715 1354 l 567 1164 l 528 1164 l 700 1385 l 732 1385 m 715 974 l 392 0 l 351 0 l 44 1031 l 83 1031 l 371 56 l 372 56 l 697 1031 l 733 1031 l 1058 56 l 1060 56 l 1349 1031 l 1386 1031 l 1079 0 l 1039 0 "},"Ẅ":{"ha":1429,"x_min":0,"x_max":0,"o":"m 606 1214 b 571 1247 586 1214 571 1229 b 606 1282 571 1267 586 1282 b 640 1247 625 1282 640 1267 b 606 1214 640 1229 625 1214 m 826 1214 b 792 1247 807 1214 792 1229 b 826 1282 792 1267 807 1282 b 861 1247 846 1282 861 1267 b 826 1214 861 1229 846 1214 m 715 974 l 392 0 l 351 0 l 44 1031 l 83 1031 l 371 56 l 372 56 l 697 1031 l 733 1031 l 1058 56 l 1060 56 l 1349 1031 l 1386 1031 l 1079 0 l 1039 0 "},"Ẁ":{"ha":1429,"x_min":0,"x_max":0,"o":"m 781 1164 l 746 1164 l 569 1385 l 613 1385 m 715 974 l 392 0 l 351 0 l 44 1031 l 83 1031 l 371 56 l 372 56 l 697 1031 l 733 1031 l 1058 56 l 1060 56 l 1349 1031 l 1386 1031 l 1079 0 l 1039 0 "},"Ý":{"ha":824,"x_min":0,"x_max":0,"o":"m 557 1385 l 381 1164 l 346 1164 l 514 1385 m 394 458 l 24 1031 l 64 1031 l 411 496 l 413 496 l 757 1031 l 797 1031 l 429 458 l 429 0 l 394 0 "},"Ŷ":{"ha":824,"x_min":0,"x_max":0,"o":"m 600 1164 l 560 1164 l 411 1354 l 263 1164 l 224 1164 l 396 1385 l 428 1385 m 394 458 l 24 1031 l 64 1031 l 411 496 l 413 496 l 757 1031 l 797 1031 l 429 458 l 429 0 l 394 0 "},"Ÿ":{"ha":824,"x_min":0,"x_max":0,"o":"m 301 1214 b 267 1247 282 1214 267 1229 b 301 1282 267 1267 282 1282 b 336 1247 321 1282 336 1267 b 301 1214 336 1229 321 1214 m 522 1214 b 488 1247 503 1214 488 1229 b 522 1282 488 1267 503 1282 b 557 1247 542 1282 557 1267 b 522 1214 557 1229 542 1214 m 394 458 l 24 1031 l 64 1031 l 411 496 l 413 496 l 757 1031 l 797 1031 l 429 458 l 429 0 l 394 0 "},"Ỳ":{"ha":824,"x_min":0,"x_max":0,"o":"m 476 1164 l 442 1164 l 265 1385 l 308 1385 m 394 458 l 24 1031 l 64 1031 l 411 496 l 413 496 l 757 1031 l 797 1031 l 429 458 l 429 0 l 394 0 "},"Ź":{"ha":775,"x_min":0,"x_max":0,"o":"m 547 1385 l 371 1164 l 336 1164 l 504 1385 m 101 35 l 700 35 l 700 0 l 36 0 l 671 996 l 671 997 l 83 997 l 83 1031 l 733 1031 "},"Ž":{"ha":775,"x_min":0,"x_max":0,"o":"m 417 1164 l 385 1164 l 213 1385 l 253 1385 l 401 1194 l 550 1385 l 589 1385 m 101 35 l 700 35 l 700 0 l 36 0 l 671 996 l 671 997 l 83 997 l 83 1031 l 733 1031 "},"Ż":{"ha":775,"x_min":0,"x_max":0,"o":"m 400 1214 b 365 1247 382 1214 365 1229 b 400 1282 365 1267 382 1282 b 436 1247 419 1282 436 1267 b 400 1214 436 1229 419 1214 m 101 35 l 700 35 l 700 0 l 36 0 l 671 996 l 671 997 l 83 997 l 83 1031 l 733 1031 "},"a":{"ha":886,"x_min":0,"x_max":0,"o":"m 415 -11 b 82 365 243 -11 82 133 b 415 743 82 600 242 743 b 717 518 542 743 668 667 l 721 732 l 751 732 l 751 0 l 721 0 l 717 214 b 415 -11 668 65 543 -11 m 418 24 b 717 367 575 24 717 153 b 417 708 717 579 576 708 b 118 365 260 708 118 579 b 418 24 118 154 261 24 "},"b":{"ha":886,"x_min":0,"x_max":0,"o":"m 172 519 b 474 743 219 667 346 743 b 804 365 646 743 804 600 b 472 -11 804 133 644 -11 b 171 217 346 -11 218 65 l 169 217 l 165 0 l 136 0 l 136 1101 l 172 1101 m 471 708 b 169 367 313 708 169 579 b 471 24 169 153 313 24 b 768 365 628 24 768 154 b 471 708 768 579 629 708 "},"c":{"ha":700,"x_min":0,"x_max":0,"o":"m 118 367 b 431 24 118 157 264 24 b 628 82 488 24 563 36 l 628 42 b 431 -11 565 3 493 -11 b 82 367 240 -11 82 143 b 429 743 82 585 238 743 b 628 692 489 743 561 731 l 628 651 b 428 708 560 696 488 708 b 118 367 263 708 118 571 "},"d":{"ha":886,"x_min":0,"x_max":0,"o":"m 417 -11 b 83 365 243 -11 83 133 b 415 743 83 600 243 743 b 714 521 542 743 667 667 l 715 521 l 715 1101 l 751 1101 l 751 0 l 722 0 l 718 217 l 717 217 b 417 -11 668 65 543 -11 m 418 24 b 717 367 575 24 717 153 b 418 708 717 579 576 708 b 119 365 260 708 119 579 b 418 24 119 154 261 24 "},"e":{"ha":796,"x_min":0,"x_max":0,"o":"m 715 382 b 714 356 715 371 714 360 l 119 356 b 429 24 124 147 253 24 b 697 129 521 24 617 56 l 697 88 b 428 -11 618 21 522 -11 b 83 365 229 -11 83 132 b 417 743 83 600 243 743 b 715 382 575 743 715 621 m 679 389 b 417 710 679 606 553 710 b 119 389 268 710 129 589 "},"f":{"ha":440,"x_min":0,"x_max":0,"o":"m 160 699 l 49 699 l 49 732 l 160 732 l 160 886 b 367 1110 160 1036 253 1110 b 474 1089 404 1110 446 1101 l 474 1053 b 368 1075 447 1065 406 1075 b 196 881 271 1075 196 1018 l 196 732 l 419 732 l 419 699 l 196 699 l 196 0 l 160 0 "},"g":{"ha":878,"x_min":0,"x_max":0,"o":"m 411 743 b 708 522 536 743 661 668 l 714 732 l 743 732 l 743 6 b 428 -312 743 -228 592 -312 b 150 -228 336 -312 236 -292 l 150 -186 b 429 -278 235 -254 336 -278 b 707 1 574 -278 707 -204 l 707 226 l 706 226 b 411 10 658 85 536 10 b 82 375 242 10 82 150 b 411 743 82 601 240 743 m 413 708 b 118 375 258 708 118 581 b 414 43 118 171 258 43 b 708 376 569 43 708 171 b 413 708 708 582 571 708 "},"h":{"ha":797,"x_min":0,"x_max":0,"o":"m 172 601 l 174 601 b 419 743 214 692 311 743 b 671 489 571 743 671 650 l 671 0 l 635 0 l 635 479 b 417 708 635 626 553 708 b 172 490 289 708 172 633 l 172 0 l 136 0 l 136 1101 l 172 1101 "},"i":{"ha":318,"x_min":0,"x_max":0,"o":"m 160 974 b 125 1007 139 974 125 988 b 160 1042 125 1026 139 1042 b 194 1007 179 1042 194 1026 b 160 974 194 988 179 974 m 140 732 l 176 732 l 176 0 l 140 0 "},"j":{"ha":318,"x_min":0,"x_max":0,"o":"m 160 974 b 125 1007 140 974 125 988 b 160 1042 125 1026 140 1042 b 194 1007 179 1042 194 1026 b 160 974 194 988 179 974 m 15 -301 b 142 72 99 -212 142 -97 l 142 732 l 178 732 l 178 72 b 63 -301 178 -100 136 -211 l 15 -301 "},"k":{"ha":647,"x_min":0,"x_max":0,"o":"m 172 0 l 136 0 l 136 1101 l 172 1101 m 221 388 l 628 0 l 578 0 l 172 388 l 561 732 l 611 732 "},"l":{"ha":318,"x_min":0,"x_max":0,"o":"m 140 1101 l 176 1101 l 176 0 l 140 0 "},"m":{"ha":1128,"x_min":0,"x_max":0,"o":"m 788 743 b 1001 503 926 743 1001 646 l 1001 0 l 965 0 l 965 500 b 782 708 965 628 901 708 b 586 499 663 708 586 618 l 586 0 l 550 0 l 550 500 b 365 708 550 625 486 708 b 172 500 246 708 172 617 l 172 0 l 136 0 l 136 732 l 164 732 l 168 601 l 171 601 b 369 743 199 688 274 743 b 574 582 481 743 550 681 b 788 743 601 679 678 743 "},"n":{"ha":797,"x_min":0,"x_max":0,"o":"m 418 743 b 671 490 569 743 671 646 l 671 0 l 635 0 l 635 481 b 414 708 635 626 550 708 b 172 485 285 708 172 628 l 172 0 l 136 0 l 136 732 l 164 732 l 168 592 l 171 592 b 418 743 208 686 303 743 "},"o":{"ha":854,"x_min":0,"x_max":0,"o":"m 428 -11 b 82 365 246 -11 82 136 b 428 743 82 594 244 743 b 772 365 610 743 772 594 b 428 -11 772 138 608 -11 m 428 24 b 736 365 585 24 736 150 b 428 708 736 581 585 708 b 118 365 269 708 118 581 b 428 24 118 150 269 24 "},"p":{"ha":886,"x_min":0,"x_max":0,"o":"m 136 732 l 165 732 l 169 515 l 171 515 b 474 743 218 667 346 743 b 804 367 646 743 804 599 b 472 -11 804 132 644 -11 b 172 211 346 -11 219 65 l 172 -301 l 136 -301 m 471 24 b 768 367 628 24 768 153 b 471 708 768 578 629 708 b 169 365 313 708 169 579 b 471 24 169 153 313 24 "},"q":{"ha":886,"x_min":0,"x_max":0,"o":"m 415 743 b 717 515 542 743 668 667 l 721 732 l 751 732 l 751 -301 l 715 -301 l 715 211 l 714 211 b 415 -11 667 65 543 -11 b 82 367 243 -11 82 133 b 415 743 82 600 242 743 m 417 708 b 118 365 260 708 118 579 b 418 24 118 154 261 24 b 717 365 575 24 717 153 b 417 708 717 579 576 708 "},"r":{"ha":451,"x_min":0,"x_max":0,"o":"m 136 732 l 165 732 l 169 582 l 171 582 b 388 738 210 688 306 738 b 432 735 401 738 421 736 l 432 700 b 388 704 421 703 404 704 b 172 481 285 704 176 625 l 172 0 l 136 0 "},"s":{"ha":636,"x_min":0,"x_max":0,"o":"m 328 743 b 529 681 400 743 468 722 l 529 640 b 326 708 467 685 400 708 b 131 558 213 708 131 647 b 333 392 131 465 213 433 b 564 188 460 350 564 308 b 324 -11 564 71 465 -11 b 78 76 240 -11 153 18 l 78 119 b 324 24 149 58 236 24 b 528 186 444 24 528 92 b 317 363 528 285 442 322 b 94 556 199 401 94 442 b 328 743 94 664 193 743 "},"t":{"ha":447,"x_min":0,"x_max":0,"o":"m 188 732 l 408 732 l 408 699 l 188 699 l 188 218 b 372 25 188 75 265 25 b 432 31 393 25 411 26 l 432 -1 b 368 -8 421 -4 396 -8 b 151 215 243 -8 151 57 l 151 699 l 39 699 l 39 732 l 153 732 l 153 906 l 188 906 "},"u":{"ha":788,"x_min":0,"x_max":0,"o":"m 393 -11 b 126 261 231 -11 126 93 l 126 732 l 163 732 l 163 260 b 393 24 163 110 251 24 b 625 260 536 24 625 110 l 625 732 l 661 732 l 661 261 b 393 -11 661 93 556 -11 "},"v":{"ha":689,"x_min":0,"x_max":0,"o":"m 51 732 l 89 732 l 344 44 l 346 44 l 601 732 l 639 732 l 364 0 l 326 0 "},"w":{"ha":1118,"x_min":0,"x_max":0,"o":"m 560 683 l 558 683 l 315 0 l 275 0 l 61 732 l 97 732 l 296 44 l 297 44 l 540 732 l 578 732 l 822 44 l 824 44 l 1021 732 l 1057 732 l 842 0 l 803 0 "},"x":{"ha":658,"x_min":0,"x_max":0,"o":"m 350 371 l 614 0 l 574 0 l 331 342 l 329 342 l 86 0 l 46 0 l 308 368 l 50 732 l 90 732 l 329 396 l 331 396 l 569 732 l 608 732 "},"y":{"ha":689,"x_min":0,"x_max":0,"o":"m 238 -301 l 201 -301 l 331 31 l 50 732 l 89 732 l 349 78 l 350 78 l 603 732 l 640 732 "},"z":{"ha":636,"x_min":0,"x_max":0,"o":"m 101 35 l 101 33 l 563 33 l 563 0 l 36 0 l 529 697 l 83 697 l 83 732 l 594 732 "},"á":{"ha":886,"x_min":0,"x_max":0,"o":"m 592 1086 l 415 865 l 381 865 l 549 1086 m 415 -11 b 82 365 243 -11 82 133 b 415 743 82 600 242 743 b 717 518 542 743 668 667 l 721 732 l 751 732 l 751 0 l 721 0 l 717 214 b 415 -11 668 65 543 -11 m 418 24 b 717 367 575 24 717 153 b 417 708 717 579 576 708 b 118 365 260 708 118 579 b 418 24 118 154 261 24 "},"ă":{"ha":886,"x_min":0,"x_max":0,"o":"m 646 1069 b 446 896 642 958 551 896 b 244 1069 340 896 250 958 l 279 1069 b 446 928 285 986 354 928 b 611 1069 536 928 606 986 l 646 1069 m 415 -11 b 82 365 243 -11 82 133 b 415 743 82 600 242 743 b 717 518 542 743 668 667 l 721 732 l 751 732 l 751 0 l 721 0 l 717 214 b 415 -11 668 65 543 -11 m 418 24 b 717 367 575 24 717 153 b 417 708 717 579 576 708 b 118 365 260 708 118 579 b 418 24 118 154 261 24 "},"â":{"ha":886,"x_min":0,"x_max":0,"o":"m 635 865 l 594 865 l 446 1056 l 297 865 l 258 865 l 431 1086 l 463 1086 m 415 -11 b 82 365 243 -11 82 133 b 415 743 82 600 242 743 b 717 518 542 743 668 667 l 721 732 l 751 732 l 751 0 l 721 0 l 717 214 b 415 -11 668 65 543 -11 m 418 24 b 717 367 575 24 717 153 b 417 708 717 579 576 708 b 118 365 260 708 118 579 b 418 24 118 154 261 24 "},"ä":{"ha":886,"x_min":0,"x_max":0,"o":"m 336 915 b 301 949 317 915 301 931 b 336 983 301 968 317 983 b 371 949 356 983 371 968 b 336 915 371 931 356 915 m 557 915 b 522 949 538 915 522 931 b 557 983 522 968 538 983 b 592 949 576 983 592 968 b 557 915 592 931 576 915 m 415 -11 b 82 365 243 -11 82 133 b 415 743 82 600 242 743 b 717 518 542 743 668 667 l 721 732 l 751 732 l 751 0 l 721 0 l 717 214 b 415 -11 668 65 543 -11 m 418 24 b 717 367 575 24 717 153 b 417 708 717 579 576 708 b 118 365 260 708 118 579 b 418 24 118 154 261 24 "},"à":{"ha":886,"x_min":0,"x_max":0,"o":"m 511 865 l 476 865 l 300 1086 l 343 1086 m 415 -11 b 82 365 243 -11 82 133 b 415 743 82 600 242 743 b 717 518 542 743 668 667 l 721 732 l 751 732 l 751 0 l 721 0 l 717 214 b 415 -11 668 65 543 -11 m 418 24 b 717 367 575 24 717 153 b 417 708 717 579 576 708 b 118 365 260 708 118 579 b 418 24 118 154 261 24 "},"ā":{"ha":886,"x_min":0,"x_max":0,"o":"m 263 972 l 628 972 l 628 940 l 263 940 m 415 -11 b 82 365 243 -11 82 133 b 415 743 82 600 242 743 b 717 518 542 743 668 667 l 721 732 l 751 732 l 751 0 l 721 0 l 717 214 b 415 -11 668 65 543 -11 m 418 24 b 717 367 575 24 717 153 b 417 708 717 579 576 708 b 118 365 260 708 118 579 b 418 24 118 154 261 24 "},"ą":{"ha":886,"x_min":0,"x_max":0,"o":"m 751 0 b 606 -187 663 -69 606 -128 b 704 -282 606 -254 658 -282 b 751 -274 725 -282 744 -278 l 751 -304 b 704 -312 746 -308 725 -312 b 572 -192 642 -312 572 -275 b 721 10 572 -124 635 -56 l 717 214 b 415 -11 668 65 543 -11 b 82 365 243 -11 82 133 b 415 743 82 600 242 743 b 717 518 542 743 668 667 l 721 732 l 751 732 l 751 0 m 418 24 b 717 367 575 24 717 153 b 417 708 717 579 576 708 b 118 365 260 708 118 579 b 418 24 118 154 261 24 "},"å":{"ha":886,"x_min":0,"x_max":0,"o":"m 446 1088 b 558 979 510 1088 558 1038 b 446 871 558 921 510 871 b 333 979 382 871 333 921 b 446 1088 333 1038 382 1088 m 446 1061 b 363 979 396 1061 363 1025 b 446 897 363 933 396 897 b 529 979 494 897 529 933 b 446 1061 529 1025 494 1061 m 415 -11 b 82 365 243 -11 82 133 b 415 743 82 600 242 743 b 717 518 542 743 668 667 l 721 732 l 751 732 l 751 0 l 721 0 l 717 214 b 415 -11 668 65 543 -11 m 418 24 b 717 367 575 24 717 153 b 417 708 717 579 576 708 b 118 365 260 708 118 579 b 418 24 118 154 261 24 "},"ã":{"ha":886,"x_min":0,"x_max":0,"o":"m 663 988 b 550 876 667 911 608 876 b 340 957 465 876 417 957 b 258 876 292 957 257 928 l 226 876 b 340 988 224 953 282 988 b 550 907 425 988 474 907 b 631 988 599 907 633 936 l 663 988 m 415 -11 b 82 365 243 -11 82 133 b 415 743 82 600 242 743 b 717 518 542 743 668 667 l 721 732 l 751 732 l 751 0 l 721 0 l 717 214 b 415 -11 668 65 543 -11 m 418 24 b 717 367 575 24 717 153 b 417 708 717 579 576 708 b 118 365 260 708 118 579 b 418 24 118 154 261 24 "},"æ":{"ha":1317,"x_min":0,"x_max":0,"o":"m 1236 382 b 1235 356 1236 371 1235 360 l 640 356 b 950 24 643 147 774 24 b 1218 129 1042 24 1138 56 l 1218 88 b 949 -11 1139 21 1043 -11 b 631 211 799 -11 679 71 b 332 -11 599 85 483 -11 b 74 210 185 -11 74 78 b 358 433 74 326 164 433 b 606 392 442 433 531 415 l 606 496 b 371 708 606 622 521 708 b 113 618 276 708 182 674 l 113 657 b 372 743 183 711 276 743 b 638 536 528 743 622 657 b 938 743 693 668 811 743 b 1236 382 1096 743 1236 621 m 1200 389 b 938 710 1200 606 1074 710 b 640 389 789 710 651 589 m 335 22 b 606 278 486 22 606 132 l 606 360 b 363 400 528 386 442 400 b 110 210 183 400 110 311 b 335 22 110 96 207 22 "},"ć":{"ha":700,"x_min":0,"x_max":0,"o":"m 564 1086 l 388 865 l 353 865 l 521 1086 m 118 367 b 431 24 118 157 264 24 b 628 82 488 24 563 36 l 628 42 b 431 -11 565 3 493 -11 b 82 367 240 -11 82 143 b 429 743 82 585 238 743 b 628 692 489 743 561 731 l 628 651 b 428 708 560 696 488 708 b 118 367 263 708 118 571 "},"č":{"ha":700,"x_min":0,"x_max":0,"o":"m 433 865 l 401 865 l 229 1086 l 269 1086 l 418 896 l 567 1086 l 606 1086 m 118 367 b 431 24 118 157 264 24 b 628 82 488 24 563 36 l 628 42 b 431 -11 565 3 493 -11 b 82 367 240 -11 82 143 b 429 743 82 585 238 743 b 628 692 489 743 561 731 l 628 651 b 428 708 560 696 488 708 b 118 367 263 708 118 571 "},"ç":{"ha":700,"x_min":0,"x_max":0,"o":"m 428 708 b 118 367 263 708 118 571 b 431 24 118 157 264 24 b 628 82 488 24 563 36 l 628 42 b 436 -11 567 4 497 -10 b 339 -247 432 -121 386 -189 l 297 -247 b 403 -10 353 -181 399 -115 b 82 367 225 4 82 154 b 429 743 82 585 238 743 b 628 692 489 743 561 731 l 628 651 b 428 708 560 696 488 708 "},"ċ":{"ha":700,"x_min":0,"x_max":0,"o":"m 417 915 b 382 949 399 915 382 931 b 417 983 382 968 399 983 b 453 949 436 983 453 968 b 417 915 453 931 436 915 m 118 367 b 431 24 118 157 264 24 b 628 82 488 24 563 36 l 628 42 b 431 -11 565 3 493 -11 b 82 367 240 -11 82 143 b 429 743 82 585 238 743 b 628 692 489 743 561 731 l 628 651 b 428 708 560 696 488 708 b 118 367 263 708 118 571 "},"ð":{"ha":857,"x_min":0,"x_max":0,"o":"m 483 986 b 771 372 685 750 771 581 b 428 -11 771 138 613 -11 b 82 365 246 -11 82 136 b 424 743 82 594 242 743 b 703 568 542 743 649 676 l 704 569 b 456 969 664 701 568 840 l 300 875 l 286 897 l 436 989 b 326 1106 401 1029 364 1068 l 376 1106 b 465 1007 408 1071 438 1039 l 619 1101 l 635 1078 l 483 986 m 428 24 b 735 368 589 24 735 151 b 425 708 735 581 582 708 b 118 365 267 708 118 581 b 428 24 118 150 269 24 "},"ď":{"ha":886,"x_min":0,"x_max":0,"o":"m 417 -11 b 83 365 243 -11 83 133 b 415 743 83 600 243 743 b 714 521 542 743 667 667 l 715 521 l 715 1101 l 751 1101 l 751 0 l 722 0 l 718 217 l 717 217 b 417 -11 668 65 543 -11 m 885 893 b 903 1022 894 932 903 976 b 893 1101 903 1054 899 1082 l 928 1101 b 935 1035 931 1086 935 1060 b 911 893 935 993 931 946 l 885 893 m 418 24 b 717 367 575 24 717 153 b 418 708 717 579 576 708 b 119 365 260 708 119 579 b 418 24 119 154 261 24 "},"đ":{"ha":886,"x_min":0,"x_max":0,"o":"m 889 879 l 751 879 l 751 0 l 722 0 l 718 217 l 717 217 b 417 -11 668 65 543 -11 b 83 365 243 -11 83 133 b 415 743 83 600 243 743 b 714 521 542 743 667 667 l 715 521 l 715 879 l 469 879 l 469 913 l 715 913 l 715 1101 l 751 1101 l 751 913 l 889 913 m 418 24 b 717 367 575 24 717 153 b 418 708 717 579 576 708 b 119 365 260 708 119 579 b 418 24 119 154 261 24 "},"é":{"ha":796,"x_min":0,"x_max":0,"o":"m 385 865 l 350 865 l 518 1086 l 561 1086 m 715 382 b 714 356 715 371 714 360 l 119 356 b 429 24 124 147 253 24 b 697 129 521 24 617 56 l 697 88 b 428 -11 618 21 522 -11 b 83 365 229 -11 83 132 b 417 743 83 600 243 743 b 715 382 575 743 715 621 m 679 389 b 417 710 679 606 553 710 b 119 389 268 710 129 589 "},"ě":{"ha":796,"x_min":0,"x_max":0,"o":"m 399 865 l 226 1086 l 267 1086 l 415 896 l 564 1086 l 603 1086 l 431 865 m 715 382 b 714 356 715 371 714 360 l 119 356 b 429 24 124 147 253 24 b 697 129 521 24 617 56 l 697 88 b 428 -11 618 21 522 -11 b 83 365 229 -11 83 132 b 417 743 83 600 243 743 b 715 382 575 743 715 621 m 679 389 b 417 710 679 606 553 710 b 119 389 268 710 129 589 "},"ê":{"ha":796,"x_min":0,"x_max":0,"o":"m 267 865 l 228 865 l 400 1086 l 432 1086 l 604 865 l 564 865 l 415 1056 m 715 382 b 714 356 715 371 714 360 l 119 356 b 429 24 124 147 253 24 b 697 129 521 24 617 56 l 697 88 b 428 -11 618 21 522 -11 b 83 365 229 -11 83 132 b 417 743 83 600 243 743 b 715 382 575 743 715 621 m 679 389 b 417 710 679 606 553 710 b 119 389 268 710 129 589 "},"ë":{"ha":796,"x_min":0,"x_max":0,"o":"m 306 915 b 271 949 286 915 271 931 b 306 983 271 968 286 983 b 340 949 325 983 340 968 b 306 915 340 931 325 915 m 526 915 b 492 949 507 915 492 931 b 526 983 492 968 507 983 b 561 949 546 983 561 968 b 526 915 561 931 546 915 m 715 382 b 714 356 715 371 714 360 l 119 356 b 429 24 124 147 253 24 b 697 129 521 24 617 56 l 697 88 b 428 -11 618 21 522 -11 b 83 365 229 -11 83 132 b 417 743 83 600 243 743 b 715 382 575 743 715 621 m 679 389 b 417 710 679 606 553 710 b 119 389 268 710 129 589 "},"ė":{"ha":796,"x_min":0,"x_max":0,"o":"m 414 915 b 379 949 396 915 379 931 b 414 983 379 968 396 983 b 450 949 433 983 450 968 b 414 915 450 931 433 915 m 715 382 b 714 356 715 371 714 360 l 119 356 b 429 24 124 147 253 24 b 697 129 521 24 617 56 l 697 88 b 428 -11 618 21 522 -11 b 83 365 229 -11 83 132 b 417 743 83 600 243 743 b 715 382 575 743 715 621 m 679 389 b 417 710 679 606 553 710 b 119 389 268 710 129 589 "},"è":{"ha":796,"x_min":0,"x_max":0,"o":"m 446 865 l 269 1086 l 313 1086 l 481 865 m 715 382 b 714 356 715 371 714 360 l 119 356 b 429 24 124 147 253 24 b 697 129 521 24 617 56 l 697 88 b 428 -11 618 21 522 -11 b 83 365 229 -11 83 132 b 417 743 83 600 243 743 b 715 382 575 743 715 621 m 679 389 b 417 710 679 606 553 710 b 119 389 268 710 129 589 "},"ē":{"ha":796,"x_min":0,"x_max":0,"o":"m 597 940 l 232 940 l 232 972 l 597 972 m 715 382 b 714 356 715 371 714 360 l 119 356 b 429 24 124 147 253 24 b 697 129 521 24 617 56 l 697 88 b 428 -11 618 21 522 -11 b 83 365 229 -11 83 132 b 417 743 83 600 243 743 b 715 382 575 743 715 621 m 679 389 b 417 710 679 606 553 710 b 119 389 268 710 129 589 "},"ę":{"ha":796,"x_min":0,"x_max":0,"o":"m 715 382 b 714 356 715 371 714 360 l 119 356 b 429 24 122 147 253 24 b 697 129 521 24 617 56 l 697 88 b 525 -187 575 -60 525 -114 b 625 -282 525 -254 579 -282 b 672 -274 644 -282 665 -278 l 672 -304 b 624 -312 665 -308 646 -312 b 492 -192 561 -312 492 -275 b 617 39 492 -122 529 -68 b 428 -11 558 4 493 -11 b 83 365 229 -11 83 132 b 417 743 83 600 243 743 b 715 382 575 743 715 621 m 679 389 b 417 710 679 606 553 710 b 119 389 268 710 129 589 "},"ğ":{"ha":878,"x_min":0,"x_max":0,"o":"m 646 1069 b 446 896 642 958 551 896 b 244 1069 340 896 250 958 l 279 1069 b 446 928 285 986 354 928 b 611 1069 536 928 606 986 l 646 1069 m 411 743 b 708 522 536 743 661 668 l 714 732 l 743 732 l 743 6 b 428 -312 743 -228 592 -312 b 150 -228 336 -312 236 -292 l 150 -186 b 429 -278 235 -254 336 -278 b 707 1 574 -278 707 -204 l 707 226 l 706 226 b 411 10 658 85 536 10 b 82 375 242 10 82 150 b 411 743 82 601 240 743 m 413 708 b 118 375 258 708 118 581 b 414 43 118 171 258 43 b 708 376 569 43 708 171 b 413 708 708 582 571 708 "},"ģ":{"ha":878,"x_min":0,"x_max":0,"o":"m 428 842 b 461 1072 418 910 428 990 l 492 1072 b 464 842 464 993 456 914 l 428 842 m 411 743 b 708 522 536 743 661 668 l 714 732 l 743 732 l 743 6 b 428 -312 743 -228 592 -312 b 150 -228 336 -312 236 -292 l 150 -186 b 429 -278 235 -254 336 -278 b 707 1 574 -278 707 -204 l 707 226 l 706 226 b 411 10 658 85 536 10 b 82 375 242 10 82 150 b 411 743 82 601 240 743 m 413 708 b 118 375 258 708 118 581 b 414 43 118 171 258 43 b 708 376 569 43 708 171 b 413 708 708 582 571 708 "},"ġ":{"ha":878,"x_min":0,"x_max":0,"o":"m 444 915 b 410 949 426 915 410 931 b 444 983 410 968 426 983 b 481 949 464 983 481 968 b 444 915 481 931 464 915 m 411 743 b 708 522 536 743 661 668 l 714 732 l 743 732 l 743 6 b 428 -312 743 -228 592 -312 b 150 -228 336 -312 236 -292 l 150 -186 b 429 -278 235 -254 336 -278 b 707 1 574 -278 707 -204 l 707 226 l 706 226 b 411 10 658 85 536 10 b 82 375 242 10 82 150 b 411 743 82 601 240 743 m 413 708 b 118 375 258 708 118 581 b 414 43 118 171 258 43 b 708 376 569 43 708 171 b 413 708 708 582 571 708 "},"ħ":{"ha":797,"x_min":0,"x_max":0,"o":"m 419 743 b 671 489 571 743 671 650 l 671 0 l 635 0 l 635 479 b 417 708 635 626 553 708 b 172 490 289 708 172 633 l 172 0 l 136 0 l 136 879 l 6 879 l 6 913 l 136 913 l 136 1101 l 172 1101 l 172 913 l 424 913 l 424 879 l 172 879 l 172 601 l 174 601 b 419 743 214 692 311 743 "},"ı":{"ha":318,"x_min":0,"x_max":0,"o":"m 140 732 l 176 732 l 176 0 l 140 0 "},"ĳ":{"ha":636,"x_min":0,"x_max":0,"o":"m 160 974 b 125 1007 139 974 125 988 b 160 1042 125 1026 139 1042 b 194 1007 179 1042 194 1026 b 160 974 194 988 179 974 m 478 974 b 443 1007 458 974 443 988 b 478 1042 443 1026 458 1042 b 513 1007 497 1042 513 1026 b 478 974 513 988 497 974 m 140 732 l 176 732 l 176 0 l 140 0 m 333 -301 b 460 72 417 -212 460 -97 l 460 732 l 496 732 l 496 72 b 381 -301 496 -100 454 -211 l 333 -301 "},"í":{"ha":318,"x_min":0,"x_max":0,"o":"m 315 1122 l 139 901 l 104 901 l 272 1122 m 140 732 l 176 732 l 176 0 l 140 0 "},"î":{"ha":318,"x_min":0,"x_max":0,"o":"m 347 901 l 307 901 l 158 1092 l 10 901 l -29 901 l 143 1122 l 175 1122 m 140 732 l 176 732 l 176 0 l 140 0 "},"ï":{"ha":318,"x_min":0,"x_max":0,"o":"m 50 951 b 15 985 31 951 15 967 b 50 1019 15 1004 31 1019 b 85 985 69 1019 85 1004 b 50 951 85 967 69 951 m 271 951 b 236 985 251 951 236 967 b 271 1019 236 1004 251 1019 b 306 985 290 1019 306 1004 b 271 951 306 967 290 951 m 140 732 l 176 732 l 176 0 l 140 0 "},"ì":{"ha":318,"x_min":0,"x_max":0,"o":"m 224 901 l 189 901 l 13 1122 l 56 1122 m 140 732 l 176 732 l 176 0 l 140 0 "},"ī":{"ha":318,"x_min":0,"x_max":0,"o":"m -24 1008 l 342 1008 l 342 976 l -24 976 m 140 732 l 176 732 l 176 0 l 140 0 "},"į":{"ha":318,"x_min":0,"x_max":0,"o":"m 160 1042 b 194 1007 179 1042 194 1026 b 160 974 194 988 179 974 b 125 1007 139 974 125 988 b 160 1042 125 1026 139 1042 m 140 732 l 176 732 l 176 0 b 31 -187 88 -69 31 -128 b 129 -282 31 -254 83 -282 b 176 -274 150 -282 169 -278 l 176 -304 b 129 -312 171 -308 150 -312 b -3 -192 67 -312 -3 -275 b 140 6 -3 -125 57 -58 "},"ķ":{"ha":647,"x_min":0,"x_max":0,"o":"m 172 0 l 136 0 l 136 1101 l 172 1101 m 221 388 l 628 0 l 578 0 l 172 388 l 561 732 l 611 732 m 374 -110 b 340 -340 383 -178 374 -258 l 310 -340 b 338 -110 338 -261 346 -182 l 374 -110 "},"ĺ":{"ha":318,"x_min":0,"x_max":0,"o":"m 304 1456 l 128 1235 l 93 1235 l 261 1456 m 140 1101 l 176 1101 l 176 0 l 140 0 "},"ľ":{"ha":313,"x_min":0,"x_max":0,"o":"m 140 1101 l 176 1101 l 176 0 l 140 0 m 310 893 b 328 1022 319 932 328 976 b 318 1101 328 1054 324 1082 l 353 1101 b 360 1035 356 1086 360 1060 b 336 893 360 993 356 946 l 310 893 "},"ļ":{"ha":318,"x_min":0,"x_max":0,"o":"m 140 1101 l 176 1101 l 176 0 l 140 0 m 176 -110 b 143 -340 186 -178 176 -258 l 113 -340 b 140 -110 140 -261 149 -182 l 176 -110 "},"ŀ":{"ha":375,"x_min":0,"x_max":0,"o":"m 140 1101 l 176 1101 l 176 0 l 140 0 m 347 506 b 301 551 322 506 301 525 b 347 597 301 578 322 597 b 394 551 374 597 394 578 b 347 506 394 525 374 506 "},"ł":{"ha":485,"x_min":0,"x_max":0,"o":"m 449 672 l 264 564 l 264 0 l 228 0 l 228 543 l 47 438 l 47 476 l 228 582 l 228 1101 l 264 1101 l 264 603 l 449 711 "},"ń":{"ha":797,"x_min":0,"x_max":0,"o":"m 558 1086 l 382 865 l 347 865 l 515 1086 m 418 743 b 671 490 569 743 671 646 l 671 0 l 635 0 l 635 481 b 414 708 635 626 550 708 b 172 485 285 708 172 628 l 172 0 l 136 0 l 136 732 l 164 732 l 168 592 l 171 592 b 418 743 208 686 303 743 "},"ň":{"ha":797,"x_min":0,"x_max":0,"o":"m 428 865 l 396 865 l 224 1086 l 264 1086 l 413 896 l 561 1086 l 600 1086 m 418 743 b 671 490 569 743 671 646 l 671 0 l 635 0 l 635 481 b 414 708 635 626 550 708 b 172 485 285 708 172 628 l 172 0 l 136 0 l 136 732 l 164 732 l 168 592 l 171 592 b 418 743 208 686 303 743 "},"ņ":{"ha":797,"x_min":0,"x_max":0,"o":"m 418 743 b 671 490 569 743 671 646 l 671 0 l 635 0 l 635 481 b 414 708 635 626 550 708 b 172 485 285 708 172 628 l 172 0 l 136 0 l 136 732 l 164 732 l 168 592 l 171 592 b 418 743 208 686 303 743 m 421 -110 b 388 -340 431 -178 421 -258 l 357 -340 b 385 -110 385 -261 393 -182 l 421 -110 "},"ŋ":{"ha":797,"x_min":0,"x_max":0,"o":"m 671 72 b 556 -301 671 -100 629 -211 l 510 -301 b 635 72 592 -212 635 -97 l 635 481 b 414 708 635 626 550 708 b 172 485 285 708 172 628 l 172 0 l 136 0 l 136 732 l 164 732 l 168 592 l 171 592 b 418 743 208 686 303 743 b 671 490 569 743 671 646 "},"ñ":{"ha":797,"x_min":0,"x_max":0,"o":"m 629 988 b 517 876 633 911 575 876 b 307 957 432 876 383 957 b 225 876 258 957 224 928 l 193 876 b 307 988 190 953 249 988 b 517 907 392 988 440 907 b 597 988 565 907 600 936 l 629 988 m 418 743 b 671 490 569 743 671 646 l 671 0 l 635 0 l 635 481 b 414 708 635 626 550 708 b 172 485 285 708 172 628 l 172 0 l 136 0 l 136 732 l 164 732 l 168 592 l 171 592 b 418 743 208 686 303 743 "},"ó":{"ha":854,"x_min":0,"x_max":0,"o":"m 574 1086 l 397 865 l 363 865 l 531 1086 m 428 -11 b 82 365 246 -11 82 136 b 428 743 82 594 244 743 b 772 365 610 743 772 594 b 428 -11 772 138 608 -11 m 428 24 b 736 365 585 24 736 150 b 428 708 736 581 585 708 b 118 365 269 708 118 581 b 428 24 118 150 269 24 "},"ô":{"ha":854,"x_min":0,"x_max":0,"o":"m 617 865 l 576 865 l 428 1056 l 279 865 l 240 865 l 413 1086 l 444 1086 m 428 -11 b 82 365 246 -11 82 136 b 428 743 82 594 244 743 b 772 365 610 743 772 594 b 428 -11 772 138 608 -11 m 428 24 b 736 365 585 24 736 150 b 428 708 736 581 585 708 b 118 365 269 708 118 581 b 428 24 118 150 269 24 "},"ö":{"ha":854,"x_min":0,"x_max":0,"o":"m 318 915 b 283 949 299 915 283 931 b 318 983 283 968 299 983 b 353 949 338 983 353 968 b 318 915 353 931 338 915 m 539 915 b 504 949 519 915 504 931 b 539 983 504 968 519 983 b 574 949 558 983 574 968 b 539 915 574 931 558 915 m 428 -11 b 82 365 246 -11 82 136 b 428 743 82 594 244 743 b 772 365 610 743 772 594 b 428 -11 772 138 608 -11 m 428 24 b 736 365 585 24 736 150 b 428 708 736 581 585 708 b 118 365 269 708 118 581 b 428 24 118 150 269 24 "},"ò":{"ha":854,"x_min":0,"x_max":0,"o":"m 493 865 l 458 865 l 282 1086 l 325 1086 m 428 -11 b 82 365 246 -11 82 136 b 428 743 82 594 244 743 b 772 365 610 743 772 594 b 428 -11 772 138 608 -11 m 428 24 b 736 365 585 24 736 150 b 428 708 736 581 585 708 b 118 365 269 708 118 581 b 428 24 118 150 269 24 "},"ő":{"ha":854,"x_min":0,"x_max":0,"o":"m 328 865 l 292 865 l 483 1086 l 528 1086 m 519 865 l 483 865 l 674 1086 l 719 1086 m 428 -11 b 82 365 246 -11 82 136 b 428 743 82 594 244 743 b 772 365 610 743 772 594 b 428 -11 772 138 608 -11 m 428 24 b 736 365 585 24 736 150 b 428 708 736 581 585 708 b 118 365 269 708 118 581 b 428 24 118 150 269 24 "},"ō":{"ha":854,"x_min":0,"x_max":0,"o":"m 244 972 l 610 972 l 610 940 l 244 940 m 428 -11 b 82 365 246 -11 82 136 b 428 743 82 594 244 743 b 772 365 610 743 772 594 b 428 -11 772 138 608 -11 m 428 24 b 736 365 585 24 736 150 b 428 708 736 581 585 708 b 118 365 269 708 118 581 b 428 24 118 150 269 24 "},"ø":{"ha":860,"x_min":0,"x_max":0,"o":"m 688 622 b 775 365 742 557 775 469 b 431 -11 775 138 611 -11 b 194 86 342 -11 258 24 l 110 -7 l 89 13 l 175 107 b 85 365 119 171 85 260 b 431 743 85 594 247 743 b 668 643 521 743 606 707 l 756 738 l 776 718 m 121 365 b 199 132 121 268 151 190 l 644 617 b 431 708 588 676 510 708 b 121 365 272 708 121 581 m 739 365 b 664 596 739 460 710 538 l 218 111 b 431 24 276 54 353 24 b 739 365 588 24 739 150 "},"õ":{"ha":854,"x_min":0,"x_max":0,"o":"m 644 988 b 532 876 649 911 590 876 b 322 957 447 876 399 957 b 240 876 274 957 239 928 l 208 876 b 322 988 206 953 264 988 b 532 907 407 988 456 907 b 613 988 581 907 615 936 l 644 988 m 428 -11 b 82 365 246 -11 82 136 b 428 743 82 594 244 743 b 772 365 610 743 772 594 b 428 -11 772 138 608 -11 m 428 24 b 736 365 585 24 736 150 b 428 708 736 581 585 708 b 118 365 269 708 118 581 b 428 24 118 150 269 24 "},"œ":{"ha":1447,"x_min":0,"x_max":0,"o":"m 1367 382 b 1365 356 1367 371 1365 360 l 771 356 b 1081 24 774 147 906 24 b 1349 129 1172 24 1268 56 l 1349 88 b 1081 -11 1269 21 1174 -11 b 751 247 919 -11 794 81 b 428 -11 707 86 574 -11 b 82 365 246 -11 82 136 b 428 743 82 594 244 743 b 751 486 571 743 708 646 b 1068 743 792 646 917 743 b 1367 382 1226 743 1367 621 m 1332 389 b 1068 710 1331 606 1204 710 b 771 389 919 710 782 589 m 428 24 b 736 365 585 24 736 150 b 428 708 736 581 585 708 b 118 365 269 708 118 581 b 428 24 118 150 269 24 "},"þ":{"ha":886,"x_min":0,"x_max":0,"o":"m 172 519 b 474 742 219 665 346 742 b 804 367 646 742 804 600 b 472 -10 804 133 644 -10 b 172 213 346 -10 222 64 l 172 -301 l 136 -301 l 136 1106 l 172 1106 m 469 708 b 169 365 313 708 169 579 b 469 24 169 153 313 24 b 767 367 626 24 767 154 b 469 708 767 579 628 708 "},"ŕ":{"ha":451,"x_min":0,"x_max":0,"o":"m 439 1086 l 263 865 l 228 865 l 396 1086 m 136 732 l 165 732 l 169 582 l 171 582 b 388 738 210 688 306 738 b 432 735 401 738 421 736 l 432 700 b 388 704 421 703 404 704 b 172 481 285 704 176 625 l 172 0 l 136 0 "},"ř":{"ha":451,"x_min":0,"x_max":0,"o":"m 308 865 l 276 865 l 104 1086 l 144 1086 l 293 896 l 442 1086 l 481 1086 m 136 732 l 165 732 l 169 582 l 171 582 b 388 738 210 688 306 738 b 432 735 401 738 421 736 l 432 700 b 388 704 421 703 404 704 b 172 481 285 704 176 625 l 172 0 l 136 0 "},"ŗ":{"ha":451,"x_min":0,"x_max":0,"o":"m 136 732 l 165 732 l 169 582 l 171 582 b 388 738 210 688 306 738 b 432 735 401 738 421 736 l 432 700 b 388 704 421 703 404 704 b 172 481 285 704 176 625 l 172 0 l 136 0 m 171 -110 b 138 -340 181 -178 171 -258 l 107 -340 b 135 -110 135 -261 143 -182 l 171 -110 "},"ś":{"ha":636,"x_min":0,"x_max":0,"o":"m 476 1086 l 300 865 l 265 865 l 433 1086 m 328 743 b 529 681 400 743 468 722 l 529 640 b 326 708 467 685 400 708 b 131 558 213 708 131 647 b 333 392 131 465 213 433 b 564 188 460 350 564 308 b 324 -11 564 71 465 -11 b 78 76 240 -11 153 18 l 78 119 b 324 24 149 58 236 24 b 528 186 444 24 528 92 b 317 363 528 285 442 322 b 94 556 199 401 94 442 b 328 743 94 664 193 743 "},"š":{"ha":636,"x_min":0,"x_max":0,"o":"m 346 865 l 314 865 l 142 1086 l 182 1086 l 331 896 l 479 1086 l 518 1086 m 328 743 b 529 681 400 743 468 722 l 529 640 b 326 708 467 685 400 708 b 131 558 213 708 131 647 b 333 392 131 465 213 433 b 564 188 460 350 564 308 b 324 -11 564 71 465 -11 b 78 76 240 -11 153 18 l 78 119 b 324 24 149 58 236 24 b 528 186 444 24 528 92 b 317 363 528 285 442 322 b 94 556 199 401 94 442 b 328 743 94 664 193 743 "},"ş":{"ha":636,"x_min":0,"x_max":0,"o":"m 564 188 b 340 -11 564 75 472 -4 b 243 -247 336 -121 290 -189 l 201 -247 b 307 -11 257 -181 301 -115 b 78 76 228 -7 147 22 l 78 119 b 324 24 149 58 236 24 b 528 186 444 24 528 92 b 317 363 528 285 442 322 b 94 556 199 401 94 442 b 328 743 94 664 193 743 b 529 681 400 743 468 722 l 529 640 b 326 708 467 685 400 708 b 131 558 213 708 131 647 b 333 392 131 465 213 433 b 564 188 460 350 564 308 "},"ș":{"ha":636,"x_min":0,"x_max":0,"o":"m 328 743 b 529 681 400 743 468 722 l 529 640 b 326 708 467 685 400 708 b 131 558 213 708 131 647 b 333 392 131 465 213 433 b 564 188 460 350 564 308 b 324 -11 564 71 465 -11 b 78 76 240 -11 153 18 l 78 119 b 324 24 149 58 236 24 b 528 186 444 24 528 92 b 317 363 528 285 442 322 b 94 556 199 401 94 442 b 328 743 94 664 193 743 m 340 -110 b 307 -340 350 -178 340 -258 l 276 -340 b 304 -110 304 -261 313 -182 l 340 -110 "},"ß":{"ha":817,"x_min":0,"x_max":0,"o":"m 443 613 b 738 310 608 597 738 490 b 390 -8 738 93 574 -8 b 286 4 356 -8 318 -4 l 286 39 b 390 26 314 31 356 26 b 701 311 554 26 701 114 b 392 588 701 486 569 588 l 311 588 l 311 621 l 350 621 b 586 824 494 621 586 719 b 389 1018 586 936 501 1018 b 172 778 258 1018 172 925 l 172 0 l 136 0 l 136 776 b 390 1053 136 940 238 1053 b 619 826 526 1053 619 953 b 443 613 619 733 553 640 "},"ŧ":{"ha":460,"x_min":0,"x_max":0,"o":"m 379 25 b 439 31 400 25 418 26 l 439 -1 b 375 -8 428 -4 403 -8 b 158 215 250 -8 158 57 l 158 378 l 46 378 l 46 411 l 158 411 l 158 699 l 46 699 l 46 732 l 160 732 l 160 906 l 194 906 l 194 732 l 415 732 l 415 699 l 194 699 l 194 411 l 415 411 l 415 378 l 194 378 l 194 218 b 379 25 194 75 272 25 "},"ť":{"ha":447,"x_min":0,"x_max":0,"o":"m 321 897 b 339 1026 331 936 339 981 b 329 1106 339 1058 335 1086 l 364 1106 b 372 1039 368 1090 372 1064 b 347 897 372 997 367 950 l 321 897 m 188 732 l 408 732 l 408 699 l 188 699 l 188 218 b 372 25 188 75 265 25 b 432 31 393 25 411 26 l 432 -1 b 368 -8 421 -4 396 -8 b 151 215 243 -8 151 57 l 151 699 l 39 699 l 39 732 l 153 732 l 153 906 l 188 906 "},"ţ":{"ha":447,"x_min":0,"x_max":0,"o":"m 372 25 b 432 31 393 25 411 26 l 432 -1 b 368 -8 421 -4 396 -8 b 324 -6 353 -8 338 -7 b 226 -247 321 -119 275 -189 l 185 -247 b 290 1 242 -178 289 -111 b 151 215 207 25 151 92 l 151 699 l 39 699 l 39 732 l 153 732 l 153 906 l 188 906 l 188 732 l 408 732 l 408 699 l 188 699 l 188 218 b 372 25 188 75 265 25 "},"ț":{"ha":447,"x_min":0,"x_max":0,"o":"m 188 732 l 408 732 l 408 699 l 188 699 l 188 218 b 372 25 188 75 265 25 b 432 31 393 25 411 26 l 432 -1 b 368 -8 421 -4 396 -8 b 151 215 243 -8 151 57 l 151 699 l 39 699 l 39 732 l 153 732 l 153 906 l 188 906 m 324 -110 b 290 -340 333 -178 324 -258 l 260 -340 b 288 -110 288 -261 296 -182 l 324 -110 "},"ú":{"ha":788,"x_min":0,"x_max":0,"o":"m 539 1086 l 363 865 l 328 865 l 496 1086 m 393 -11 b 126 261 231 -11 126 93 l 126 732 l 163 732 l 163 260 b 393 24 163 110 251 24 b 625 260 536 24 625 110 l 625 732 l 661 732 l 661 261 b 393 -11 661 93 556 -11 "},"û":{"ha":788,"x_min":0,"x_max":0,"o":"m 582 865 l 542 865 l 393 1056 l 244 865 l 206 865 l 378 1086 l 410 1086 m 393 -11 b 126 261 231 -11 126 93 l 126 732 l 163 732 l 163 260 b 393 24 163 110 251 24 b 625 260 536 24 625 110 l 625 732 l 661 732 l 661 261 b 393 -11 661 93 556 -11 "},"ü":{"ha":788,"x_min":0,"x_max":0,"o":"m 283 915 b 249 949 264 915 249 931 b 283 983 249 968 264 983 b 318 949 303 983 318 968 b 283 915 318 931 303 915 m 504 915 b 469 949 485 915 469 931 b 504 983 469 968 485 983 b 539 949 524 983 539 968 b 504 915 539 931 524 915 m 393 -11 b 126 261 231 -11 126 93 l 126 732 l 163 732 l 163 260 b 393 24 163 110 251 24 b 625 260 536 24 625 110 l 625 732 l 661 732 l 661 261 b 393 -11 661 93 556 -11 "},"ù":{"ha":788,"x_min":0,"x_max":0,"o":"m 458 865 l 424 865 l 247 1086 l 290 1086 m 393 -11 b 126 261 231 -11 126 93 l 126 732 l 163 732 l 163 260 b 393 24 163 110 251 24 b 625 260 536 24 625 110 l 625 732 l 661 732 l 661 261 b 393 -11 661 93 556 -11 "},"ű":{"ha":788,"x_min":0,"x_max":0,"o":"m 293 865 l 257 865 l 449 1086 l 493 1086 m 485 865 l 449 865 l 639 1086 l 685 1086 m 393 -11 b 126 261 231 -11 126 93 l 126 732 l 163 732 l 163 260 b 393 24 163 110 251 24 b 625 260 536 24 625 110 l 625 732 l 661 732 l 661 261 b 393 -11 661 93 556 -11 "},"ū":{"ha":788,"x_min":0,"x_max":0,"o":"m 210 972 l 575 972 l 575 940 l 210 940 m 393 -11 b 126 261 231 -11 126 93 l 126 732 l 163 732 l 163 260 b 393 24 163 110 251 24 b 625 260 536 24 625 110 l 625 732 l 661 732 l 661 261 b 393 -11 661 93 556 -11 "},"ų":{"ha":788,"x_min":0,"x_max":0,"o":"m 661 732 l 661 261 b 593 69 661 178 636 115 b 436 -189 497 -40 436 -118 b 536 -282 436 -256 489 -282 b 583 -274 556 -282 576 -278 l 583 -304 b 535 -312 576 -308 554 -312 b 403 -192 472 -312 403 -276 b 506 13 403 -132 444 -62 b 393 -11 474 -3 436 -11 b 126 261 231 -11 126 93 l 126 732 l 163 732 l 163 260 b 393 24 163 111 251 24 b 625 260 536 24 625 110 l 625 732 "},"ů":{"ha":788,"x_min":0,"x_max":0,"o":"m 393 1088 b 506 979 457 1088 506 1038 b 393 871 506 921 457 871 b 281 979 329 871 281 921 b 393 1088 281 1038 329 1088 m 393 1061 b 310 979 343 1061 310 1025 b 393 897 310 933 343 897 b 476 979 442 897 476 933 b 393 1061 476 1025 442 1061 m 393 -11 b 126 261 231 -11 126 93 l 126 732 l 163 732 l 163 260 b 393 24 163 110 251 24 b 625 260 536 24 625 110 l 625 732 l 661 732 l 661 261 b 393 -11 661 93 556 -11 "},"ẃ":{"ha":1118,"x_min":0,"x_max":0,"o":"m 704 1086 l 528 865 l 493 865 l 661 1086 m 560 683 l 558 683 l 315 0 l 275 0 l 61 732 l 97 732 l 296 44 l 297 44 l 540 732 l 578 732 l 822 44 l 824 44 l 1021 732 l 1057 732 l 842 0 l 803 0 "},"ŵ":{"ha":1118,"x_min":0,"x_max":0,"o":"m 747 865 l 707 865 l 558 1056 l 410 865 l 371 865 l 543 1086 l 575 1086 m 560 683 l 558 683 l 315 0 l 275 0 l 61 732 l 97 732 l 296 44 l 297 44 l 540 732 l 578 732 l 822 44 l 824 44 l 1021 732 l 1057 732 l 842 0 l 803 0 "},"ẅ":{"ha":1118,"x_min":0,"x_max":0,"o":"m 449 915 b 414 949 429 915 414 931 b 449 983 414 968 429 983 b 483 949 468 983 483 968 b 449 915 483 931 468 915 m 669 915 b 635 949 650 915 635 931 b 669 983 635 968 650 983 b 704 949 689 983 704 968 b 669 915 704 931 689 915 m 560 683 l 558 683 l 315 0 l 275 0 l 61 732 l 97 732 l 296 44 l 297 44 l 540 732 l 578 732 l 822 44 l 824 44 l 1021 732 l 1057 732 l 842 0 l 803 0 "},"ẁ":{"ha":1118,"x_min":0,"x_max":0,"o":"m 624 865 l 589 865 l 413 1086 l 456 1086 m 560 683 l 558 683 l 315 0 l 275 0 l 61 732 l 97 732 l 296 44 l 297 44 l 540 732 l 578 732 l 822 44 l 824 44 l 1021 732 l 1057 732 l 842 0 l 803 0 "},"ý":{"ha":689,"x_min":0,"x_max":0,"o":"m 492 1086 l 315 865 l 281 865 l 449 1086 m 238 -301 l 201 -301 l 331 31 l 50 732 l 89 732 l 349 78 l 350 78 l 603 732 l 640 732 "},"ŷ":{"ha":689,"x_min":0,"x_max":0,"o":"m 535 865 l 494 865 l 346 1056 l 197 865 l 158 865 l 331 1086 l 363 1086 m 238 -301 l 201 -301 l 331 31 l 50 732 l 89 732 l 349 78 l 350 78 l 603 732 l 640 732 "},"ÿ":{"ha":689,"x_min":0,"x_max":0,"o":"m 236 915 b 201 949 217 915 201 931 b 236 983 201 968 217 983 b 271 949 256 983 271 968 b 236 915 271 931 256 915 m 457 915 b 422 949 438 915 422 931 b 457 983 422 968 438 983 b 492 949 476 983 492 968 b 457 915 492 931 476 915 m 238 -301 l 201 -301 l 331 31 l 50 732 l 89 732 l 349 78 l 350 78 l 603 732 l 640 732 "},"ỳ":{"ha":689,"x_min":0,"x_max":0,"o":"m 411 865 l 376 865 l 200 1086 l 243 1086 m 238 -301 l 201 -301 l 331 31 l 50 732 l 89 732 l 349 78 l 350 78 l 603 732 l 640 732 "},"ź":{"ha":636,"x_min":0,"x_max":0,"o":"m 465 1086 l 289 865 l 254 865 l 422 1086 m 101 35 l 101 33 l 563 33 l 563 0 l 36 0 l 529 697 l 83 697 l 83 732 l 594 732 "},"ž":{"ha":636,"x_min":0,"x_max":0,"o":"m 335 865 l 303 865 l 131 1086 l 171 1086 l 319 896 l 468 1086 l 507 1086 m 101 35 l 101 33 l 563 33 l 563 0 l 36 0 l 529 697 l 83 697 l 83 732 l 594 732 "},"ż":{"ha":636,"x_min":0,"x_max":0,"o":"m 318 915 b 283 949 300 915 283 931 b 318 983 283 968 300 983 b 354 949 338 983 354 968 b 318 915 354 931 338 915 m 101 35 l 101 33 l 563 33 l 563 0 l 36 0 l 529 697 l 83 697 l 83 732 l 594 732 "},"ﬁ":{"ha":775,"x_min":0,"x_max":0,"o":"m 160 699 l 49 699 l 49 732 l 160 732 l 160 886 b 367 1110 160 1036 253 1110 b 474 1089 404 1110 446 1101 l 474 1053 b 368 1075 447 1065 406 1075 b 196 881 271 1075 196 1018 l 196 732 l 419 732 l 419 699 l 196 699 l 196 0 l 160 0 m 618 974 b 583 1007 597 974 583 988 b 618 1042 583 1026 597 1042 b 653 1007 638 1042 653 1026 b 618 974 653 988 638 974 m 599 732 l 635 732 l 635 0 l 599 0 "},"ﬂ":{"ha":776,"x_min":0,"x_max":0,"o":"m 160 699 l 49 699 l 49 732 l 160 732 l 160 886 b 367 1110 160 1036 253 1110 b 474 1089 404 1110 446 1101 l 474 1053 b 368 1075 447 1065 406 1075 b 196 881 271 1075 196 1018 l 196 732 l 419 732 l 419 699 l 196 699 l 196 0 l 160 0 m 599 1101 l 635 1101 l 635 0 l 599 0 "},"º":{"ha":731,"x_min":0,"x_max":0,"o":"m 365 1040 b 646 738 514 1040 646 922 b 365 438 646 556 514 438 b 85 738 217 438 85 556 b 365 1040 85 922 217 1040 m 365 1007 b 119 738 239 1007 119 908 b 365 469 119 569 239 469 b 611 738 492 469 611 569 b 365 1007 611 908 492 1007 "},"ª":{"ha":758,"x_min":0,"x_max":0,"o":"m 632 447 l 604 447 l 600 617 l 599 617 b 356 438 560 499 460 438 b 86 739 215 438 86 553 b 356 1040 86 925 215 1040 b 599 861 458 1040 560 979 l 600 861 l 604 1031 l 632 1031 m 360 1007 b 121 738 233 1007 121 904 b 360 469 121 572 233 469 b 599 738 488 469 599 572 b 360 1007 599 906 488 1007 "},"&":{"ha":990,"x_min":0,"x_max":0,"o":"m 885 0 l 697 196 l 694 192 b 383 -12 610 63 518 -12 b 101 251 219 -12 101 100 b 354 553 101 407 222 485 b 185 829 231 683 185 747 b 428 1043 185 951 289 1043 b 664 828 569 1043 664 947 b 408 546 664 690 540 615 l 692 250 l 879 538 l 921 538 l 717 225 l 932 0 m 428 1010 b 221 828 307 1010 221 932 b 386 569 221 763 256 706 b 628 826 518 638 628 706 b 428 1010 628 928 550 1010 m 674 221 l 376 529 b 138 254 249 463 138 390 b 383 22 138 121 240 22 b 663 204 499 22 585 85 "},".":{"ha":310,"x_min":0,"x_max":0,"o":"m 154 -4 b 108 42 129 -4 108 15 b 154 88 108 68 129 88 b 201 42 181 88 201 68 b 154 -4 201 15 181 -4 "},",":{"ha":279,"x_min":0,"x_max":0,"o":"m 61 -185 b 124 104 86 -121 124 -11 l 124 150 l 160 150 l 160 104 b 92 -185 160 -11 117 -124 l 61 -185 "},":":{"ha":325,"x_min":0,"x_max":0,"o":"m 163 479 b 117 525 138 479 117 499 b 163 571 117 551 138 571 b 210 525 189 571 210 551 b 163 479 210 499 189 479 m 163 -4 b 117 42 138 -4 117 15 b 163 88 117 68 138 88 b 210 42 189 88 210 68 b 163 -4 210 15 189 -4 "},";":{"ha":324,"x_min":0,"x_max":0,"o":"m 167 479 b 121 525 142 479 121 499 b 167 571 121 551 142 571 b 214 525 193 571 214 551 b 167 479 214 499 193 479 m 93 -185 b 156 104 118 -121 156 -11 l 156 150 l 192 150 l 192 104 b 124 -185 192 -11 149 -124 l 93 -185 "},"…":{"ha":932,"x_min":0,"x_max":0,"o":"m 154 -4 b 108 42 129 -4 108 15 b 154 88 108 68 129 88 b 201 42 181 88 201 68 b 154 -4 201 15 181 -4 m 465 -4 b 419 42 440 -4 419 15 b 465 88 419 68 440 88 b 513 42 492 88 513 68 b 465 -4 513 15 492 -4 m 776 -4 b 731 42 751 -4 731 15 b 776 88 731 68 751 88 b 824 42 803 88 824 68 b 776 -4 824 15 803 -4 "},"!":{"ha":311,"x_min":0,"x_max":0,"o":"m 136 1031 l 175 1031 l 171 281 l 140 281 m 156 -4 b 110 42 131 -4 110 15 b 156 88 110 68 131 88 b 201 42 182 88 201 68 b 156 -4 201 15 182 -4 "},"¡":{"ha":311,"x_min":0,"x_max":0,"o":"m 147 1033 b 169 988 160 1033 169 1014 b 147 942 169 961 160 942 b 126 988 136 942 126 961 b 147 1033 126 1014 136 1033 m 157 -1 l 139 -1 l 140 749 l 156 749 "},"?":{"ha":685,"x_min":0,"x_max":0,"o":"m 324 1043 b 590 775 469 1043 590 940 b 332 354 590 643 503 536 l 313 333 l 268 333 l 294 361 b 553 774 465 550 553 649 b 321 1008 553 921 449 1008 b 75 882 222 1008 136 957 l 75 928 b 324 1043 125 986 214 1043 m 301 88 b 349 42 328 88 349 68 b 301 -4 349 15 328 -4 b 256 42 276 -4 256 15 b 301 88 256 68 276 88 "},"¿":{"ha":683,"x_min":0,"x_max":0,"o":"m 382 943 b 335 989 356 943 335 963 b 382 1035 335 1015 356 1035 b 428 989 407 1035 428 1015 b 382 943 428 963 407 943 m 360 -12 b 93 256 214 -12 93 90 b 351 676 93 388 181 494 l 371 697 l 415 697 l 389 669 b 131 257 218 481 131 382 b 363 22 131 110 235 22 b 608 149 461 22 547 74 l 608 103 b 360 -12 558 44 469 -12 "},"'":{"ha":268,"x_min":0,"x_max":0,"o":"m 114 1031 l 153 1031 l 147 708 l 121 708 "},"\"":{"ha":457,"x_min":0,"x_max":0,"o":"m 114 1031 l 153 1031 l 147 708 l 121 708 m 303 1031 l 342 1031 l 336 708 l 310 708 "},"‘":{"ha":283,"x_min":0,"x_max":0,"o":"m 206 1031 b 143 742 181 967 143 857 l 143 696 l 107 696 l 107 742 b 175 1031 107 857 150 969 l 206 1031 "},"’":{"ha":286,"x_min":0,"x_max":0,"o":"m 94 696 b 157 985 119 760 157 869 l 157 1031 l 193 1031 l 193 985 b 125 696 193 869 150 757 l 94 696 "},"“":{"ha":460,"x_min":0,"x_max":0,"o":"m 206 1031 b 143 742 181 967 143 857 l 143 696 l 107 696 l 107 742 b 175 1031 107 857 150 969 l 206 1031 m 382 1031 b 319 742 357 967 319 857 l 319 696 l 283 696 l 283 742 b 351 1031 283 857 326 969 l 382 1031 "},"”":{"ha":457,"x_min":0,"x_max":0,"o":"m 94 696 b 157 985 119 760 157 869 l 157 1031 l 193 1031 l 193 985 b 125 696 193 869 150 757 l 94 696 m 267 696 b 329 985 292 760 329 869 l 329 1031 l 365 1031 l 365 985 b 297 696 365 869 322 757 l 267 696 "},"‚":{"ha":279,"x_min":0,"x_max":0,"o":"m 61 -185 b 124 104 86 -121 124 -11 l 124 150 l 160 150 l 160 104 b 92 -185 160 -11 117 -124 l 61 -185 "},"„":{"ha":468,"x_min":0,"x_max":0,"o":"m 61 -186 b 124 103 86 -122 124 -12 l 124 149 l 160 149 l 160 103 b 92 -186 160 -12 117 -125 l 61 -186 m 249 -186 b 311 103 274 -122 311 -12 l 311 149 l 347 149 l 347 103 b 279 -186 347 -12 304 -125 l 249 -186 "},"‹":{"ha":490,"x_min":0,"x_max":0,"o":"m 388 607 l 101 365 l 388 124 l 388 83 l 72 350 l 72 381 l 388 647 "},"›":{"ha":490,"x_min":0,"x_max":0,"o":"m 103 122 l 389 364 l 103 606 l 103 646 l 418 379 l 418 349 l 103 82 "},"«":{"ha":739,"x_min":0,"x_max":0,"o":"m 388 607 l 101 365 l 388 124 l 388 83 l 72 350 l 72 381 l 388 647 m 635 607 l 349 365 l 635 124 l 635 83 l 319 350 l 319 381 l 635 647 "},"»":{"ha":728,"x_min":0,"x_max":0,"o":"m 103 122 l 389 364 l 103 606 l 103 646 l 418 379 l 418 349 l 103 82 m 340 122 l 626 364 l 340 606 l 340 646 l 656 379 l 656 349 l 340 82 "},"-":{"ha":546,"x_min":0,"x_max":0,"o":"m 115 428 l 429 428 l 429 393 l 115 393 "},"­":{"ha":546,"x_min":0,"x_max":0,"o":"m 115 428 l 429 428 l 429 393 l 115 393 "},"–":{"ha":732,"x_min":0,"x_max":0,"o":"m 115 428 l 615 428 l 615 393 l 115 393 "},"—":{"ha":1143,"x_min":0,"x_max":0,"o":"m 115 428 l 1028 428 l 1028 393 l 115 393 "},"·":{"ha":325,"x_min":0,"x_max":0,"o":"m 163 469 b 117 515 138 469 117 489 b 163 561 117 542 138 561 b 210 515 189 561 210 542 b 163 469 210 489 189 469 "},"•":{"ha":643,"x_min":0,"x_max":0,"o":"m 135 515 b 322 703 135 619 218 703 b 510 515 426 703 510 619 b 322 328 510 411 426 328 b 135 515 218 328 135 411 "},"_":{"ha":732,"x_min":0,"x_max":0,"o":"m 0 -189 l 732 -189 l 732 -222 l 0 -222 "},"/":{"ha":603,"x_min":0,"x_max":0,"o":"m 506 1133 l 543 1133 l 96 -183 l 60 -183 "},"\\":{"ha":603,"x_min":0,"x_max":0,"o":"m 507 -183 l 60 1133 l 97 1133 l 543 -183 "},"⁄":{"ha":226,"x_min":0,"x_max":0,"o":"m 436 1031 l 474 1031 l -204 0 l -242 0 "},"|":{"ha":288,"x_min":0,"x_max":0,"o":"m 125 1285 l 161 1285 l 161 -254 l 125 -254 "},"¦":{"ha":313,"x_min":0,"x_max":0,"o":"m 139 1285 l 175 1285 l 175 718 l 139 718 m 175 -254 l 139 -254 l 139 313 l 175 313 "},"(":{"ha":415,"x_min":0,"x_max":0,"o":"m 392 1031 b 121 424 225 871 121 665 b 392 -182 121 182 225 -22 l 346 -182 b 86 424 196 -29 86 174 b 346 1031 86 672 196 878 l 392 1031 "},")":{"ha":415,"x_min":0,"x_max":0,"o":"m 69 1031 b 329 424 219 878 329 672 b 69 -182 329 174 219 -29 l 24 -182 b 294 424 190 -22 294 182 b 24 1031 294 665 190 871 "},"[":{"ha":367,"x_min":0,"x_max":0,"o":"m 124 1075 l 325 1075 l 325 1040 l 160 1040 l 160 -257 l 325 -257 l 325 -292 l 124 -292 "},"]":{"ha":367,"x_min":0,"x_max":0,"o":"m 42 -292 l 42 -257 l 207 -257 l 207 1040 l 42 1040 l 42 1075 l 243 1075 l 243 -292 "},"{":{"ha":422,"x_min":0,"x_max":0,"o":"m 376 1019 b 224 901 281 1028 224 986 l 224 576 b 99 385 224 490 199 408 l 99 383 b 224 193 199 358 224 279 l 224 -131 b 378 -250 224 -215 281 -257 l 378 -283 b 189 -135 263 -293 189 -237 l 189 197 b 51 367 189 275 163 346 l 51 401 b 189 572 163 421 189 493 l 189 904 b 376 1054 189 1007 263 1064 "},"}":{"ha":422,"x_min":0,"x_max":0,"o":"m 233 572 b 371 401 233 493 260 421 l 371 367 b 233 197 260 346 233 275 l 233 -135 b 44 -283 233 -237 160 -293 l 44 -250 b 199 -131 142 -257 199 -215 l 199 193 b 324 383 199 279 224 358 l 324 385 b 199 576 224 408 199 490 l 199 901 b 46 1019 199 986 142 1028 l 46 1054 b 233 904 160 1064 233 1007 "},"*":{"ha":796,"x_min":0,"x_max":0,"o":"m 411 829 l 675 918 l 688 885 l 418 804 l 586 585 l 558 564 l 399 789 l 397 789 l 238 564 l 208 585 l 376 804 l 108 885 l 119 918 l 383 829 l 379 1106 l 414 1106 "},"†":{"ha":650,"x_min":0,"x_max":0,"o":"m 307 697 l 60 697 l 60 732 l 307 732 l 307 1042 l 343 1042 l 343 732 l 590 732 l 590 697 l 343 697 l 343 -282 l 307 -282 "},"‡":{"ha":733,"x_min":0,"x_max":0,"o":"m 385 732 l 632 732 l 632 697 l 385 697 l 385 63 l 632 63 l 632 29 l 385 29 l 385 -282 l 349 -282 l 349 29 l 101 29 l 101 63 l 349 63 l 349 697 l 101 697 l 101 732 l 349 732 l 349 1042 l 385 1042 "},"§":{"ha":696,"x_min":0,"x_max":0,"o":"m 446 167 b 589 -32 526 122 589 68 b 332 -256 589 -167 481 -256 b 100 -165 235 -256 149 -217 l 100 -117 b 333 -221 149 -181 240 -221 b 551 -35 456 -221 551 -153 b 335 182 551 78 465 121 b 104 421 213 242 104 293 b 293 632 104 524 176 611 b 135 832 206 675 135 726 b 374 1042 135 947 225 1042 b 557 986 447 1042 508 1019 l 557 944 b 374 1008 501 986 443 1008 b 171 832 246 1008 171 931 b 365 636 171 729 251 689 b 603 390 488 579 603 526 b 446 167 603 278 525 199 m 140 422 b 347 215 140 317 229 271 l 410 186 b 567 388 485 207 567 278 b 354 603 567 504 471 550 l 347 606 b 140 422 215 606 140 518 "},"¶":{"ha":765,"x_min":0,"x_max":0,"o":"m 451 342 l 401 342 b 53 686 221 342 53 457 b 422 1031 53 914 221 1031 l 632 1031 l 632 -301 l 596 -301 l 596 997 l 488 997 l 488 -301 l 451 -301 "},"©":{"ha":1246,"x_min":0,"x_max":0,"o":"m 622 1043 b 1151 515 918 1043 1151 806 b 622 -12 1151 226 918 -12 b 94 515 326 -12 94 226 b 622 1043 94 806 326 1043 m 129 515 b 622 21 129 243 344 21 b 1118 515 899 21 1118 243 b 622 1010 1118 788 899 1010 b 129 515 344 1010 129 788 m 788 239 b 639 201 753 214 704 201 b 338 518 482 201 338 326 b 636 829 338 704 486 829 b 788 796 706 829 754 817 l 788 758 b 639 797 743 783 704 797 b 372 518 506 797 372 686 b 640 235 372 346 503 235 b 788 275 700 235 743 247 l 788 239 "},"®":{"ha":1246,"x_min":0,"x_max":0,"o":"m 622 1043 b 1151 515 918 1043 1151 806 b 622 -12 1151 226 918 -12 b 94 515 326 -12 94 226 b 622 1043 94 806 326 1043 m 622 21 b 1118 515 899 21 1118 243 b 622 1010 1118 788 899 1010 b 129 515 344 1010 129 788 b 622 21 129 243 344 21 m 547 490 l 824 213 l 779 213 l 507 489 l 504 489 l 504 213 l 472 213 l 472 822 l 601 822 b 800 656 739 822 800 749 b 604 490 800 549 724 490 m 597 518 b 768 656 711 518 768 565 b 596 792 768 736 715 792 l 504 792 l 504 518 "},"™":{"ha":1264,"x_min":0,"x_max":0,"o":"m 461 999 l 276 999 l 276 436 l 243 436 l 243 999 l 60 999 l 60 1031 l 461 1031 m 1156 436 l 1122 436 l 1032 976 l 1031 976 l 840 436 l 811 436 l 619 976 l 618 976 l 529 436 l 497 436 l 594 1031 l 633 1031 l 826 488 l 828 488 l 1017 1031 l 1056 1031 "},"@":{"ha":1365,"x_min":0,"x_max":0,"o":"m 881 58 l 903 231 l 901 231 b 643 47 847 119 754 47 b 390 326 517 47 390 139 b 703 682 390 525 536 682 b 938 488 815 682 914 611 l 969 674 l 996 674 l 913 90 b 1231 522 1049 104 1231 257 b 744 942 1231 799 1008 942 b 129 322 456 942 129 733 b 703 -207 129 -71 439 -207 b 939 -169 776 -207 863 -193 l 933 -204 b 699 -240 874 -224 792 -240 b 93 319 418 -240 93 -90 b 749 976 93 749 433 976 b 1267 525 1026 976 1267 815 b 894 58 1267 242 1058 58 m 647 82 b 921 411 792 82 921 233 b 704 649 922 575 810 649 b 426 328 558 649 426 508 b 647 82 426 158 538 82 "},"#":{"ha":874,"x_min":0,"x_max":0,"o":"m 629 656 l 583 375 l 758 375 l 758 343 l 579 343 l 524 0 l 489 0 l 543 343 l 274 343 l 219 0 l 183 0 l 239 343 l 76 343 l 76 375 l 243 375 l 289 656 l 115 656 l 115 688 l 293 688 l 349 1031 l 383 1031 l 329 688 l 599 688 l 653 1031 l 689 1031 l 633 688 l 797 688 l 797 656 m 593 656 l 324 656 l 279 375 l 549 375 "},"¹":{"ha":367,"x_min":0,"x_max":0,"o":"m 194 992 l 42 915 l 42 950 l 214 1035 l 228 1035 l 228 433 l 194 433 "},"²":{"ha":475,"x_min":0,"x_max":0,"o":"m 407 433 l 43 433 b 367 876 318 731 367 781 b 231 1008 367 949 313 1008 b 76 946 160 1008 110 979 l 76 982 b 233 1039 110 1014 163 1039 b 401 876 329 1039 401 971 b 113 465 401 775 342 714 l 407 465 "},"³":{"ha":479,"x_min":0,"x_max":0,"o":"m 271 743 b 410 590 353 726 410 672 b 224 425 410 497 335 425 b 65 485 160 425 106 449 l 65 522 b 224 457 104 483 160 457 b 376 592 313 457 376 511 b 203 725 376 676 304 725 l 136 725 l 136 756 l 203 756 b 351 888 306 756 351 824 b 229 1007 351 954 303 1007 b 85 947 171 1007 119 982 l 85 983 b 229 1039 119 1015 169 1039 b 386 889 324 1039 386 972 b 271 743 386 824 346 761 "},"¼":{"ha":1101,"x_min":0,"x_max":0,"o":"m 211 992 l 58 915 l 58 950 l 231 1035 l 244 1035 l 244 433 l 211 433 m 881 1031 l 203 0 l 165 0 l 843 1031 m 1039 160 l 946 160 l 946 0 l 914 0 l 914 160 l 599 160 l 599 185 l 917 597 l 946 597 l 946 190 l 1039 190 m 914 190 l 914 543 l 913 543 l 640 192 l 640 190 "},"½":{"ha":1161,"x_min":0,"x_max":0,"o":"m 211 992 l 58 915 l 58 950 l 231 1035 l 244 1035 l 244 433 l 211 433 m 843 1031 l 881 1031 l 203 0 l 165 0 m 1081 0 l 717 0 b 1040 443 992 297 1040 347 b 904 575 1040 515 986 575 b 750 513 833 575 783 546 l 750 549 b 907 606 783 581 836 606 b 1075 443 1003 606 1075 538 b 786 32 1075 342 1015 281 l 1081 32 "},"¾":{"ha":1228,"x_min":0,"x_max":0,"o":"m 431 590 b 244 425 431 497 356 425 b 86 485 181 425 126 449 l 86 522 b 244 457 125 483 181 457 b 397 592 333 457 397 511 b 224 725 397 676 325 725 l 157 725 l 157 756 l 224 756 b 372 888 326 756 372 824 b 250 1007 372 954 324 1007 b 106 947 192 1007 140 982 l 106 983 b 250 1039 140 1015 190 1039 b 407 889 344 1039 407 972 b 292 743 407 824 367 761 b 431 590 374 726 431 672 m 1007 1031 l 329 0 l 292 0 l 969 1031 m 1165 160 l 1072 160 l 1072 0 l 1040 0 l 1040 160 l 725 160 l 725 185 l 1043 597 l 1072 597 l 1072 190 l 1165 190 m 1040 190 l 1040 543 l 1039 543 l 767 192 l 767 190 "},"$":{"ha":736,"x_min":0,"x_max":0,"o":"m 656 281 b 388 29 656 146 547 40 l 386 -100 l 353 -100 l 353 28 b 89 114 247 29 153 68 l 89 158 b 360 63 154 101 258 63 b 618 283 511 63 618 153 b 368 517 618 415 503 467 b 106 769 231 567 106 624 b 353 1001 106 893 203 989 l 353 1131 l 386 1131 l 386 1003 b 606 944 475 1003 553 975 l 606 903 b 386 968 556 936 475 968 b 143 768 238 968 143 882 b 383 549 143 646 253 596 b 656 281 525 497 656 436 "},"¢":{"ha":736,"x_min":0,"x_max":0,"o":"m 426 710 b 129 390 268 710 129 588 b 431 74 129 190 269 74 b 622 132 485 74 557 86 l 622 93 b 431 40 560 54 490 40 l 429 40 l 429 -99 l 396 -99 l 396 42 b 93 390 226 58 93 192 b 396 740 93 589 226 725 l 396 889 l 429 889 l 429 742 b 622 692 488 742 557 729 l 622 653 b 426 710 554 696 482 710 "},"£":{"ha":738,"x_min":0,"x_max":0,"o":"m 639 35 l 639 0 l 56 0 b 210 436 128 104 181 233 l 214 468 l 92 468 l 92 501 l 218 501 l 256 769 b 506 1043 283 965 371 1043 b 636 1008 560 1043 611 1025 l 636 969 b 506 1008 601 994 551 1008 b 290 767 390 1008 315 949 l 254 501 l 518 501 l 518 468 l 250 468 l 244 432 b 114 35 219 256 183 149 "},"¤":{"ha":854,"x_min":0,"x_max":0,"o":"m 718 814 l 633 732 b 706 547 678 683 706 618 b 636 361 706 475 679 411 l 721 278 l 697 251 l 610 338 b 432 271 563 296 500 271 b 244 343 358 271 293 299 l 157 253 l 131 278 l 221 368 b 156 547 181 415 156 478 b 222 726 156 615 181 678 l 135 814 l 160 839 l 247 751 b 432 821 296 794 360 821 b 608 756 500 821 561 796 l 692 839 m 432 304 b 671 547 567 304 671 413 b 432 788 671 681 567 788 b 190 547 294 788 190 681 b 432 304 190 413 294 304 "},"¥":{"ha":878,"x_min":0,"x_max":0,"o":"m 468 485 l 733 485 l 733 451 l 457 451 l 457 300 l 733 300 l 733 267 l 457 267 l 457 0 l 422 0 l 422 267 l 146 267 l 146 300 l 422 300 l 422 451 l 146 451 l 146 485 l 410 485 l 51 1031 l 93 1031 l 439 504 l 440 504 l 785 1031 l 825 1031 "},"€":{"ha":953,"x_min":0,"x_max":0,"o":"m 654 1008 b 256 632 440 1008 294 847 l 731 632 l 731 599 l 251 599 b 246 517 247 572 246 544 b 250 442 246 492 247 467 l 731 442 l 731 408 l 254 408 b 654 22 290 185 439 22 b 844 72 717 22 785 32 l 844 33 b 653 -12 785 -3 714 -12 b 219 408 419 -12 257 169 l 78 408 l 78 442 l 215 442 b 211 517 213 467 211 492 b 215 599 211 544 213 572 l 78 599 l 78 632 l 221 632 b 653 1043 260 867 421 1043 b 844 997 715 1043 786 1033 l 844 958 b 654 1008 786 997 717 1008 "},"ƒ":{"ha":517,"x_min":0,"x_max":0,"o":"m 446 1078 b 290 914 356 1078 307 1021 l 263 732 l 458 732 l 458 699 l 257 699 l 136 -103 b -57 -312 115 -246 54 -312 b -135 -300 -79 -312 -112 -310 l -135 -267 b -60 -281 -110 -278 -79 -281 b 100 -106 33 -281 83 -221 l 222 699 l 89 699 l 89 732 l 228 732 l 256 917 b 446 1113 275 1051 342 1113 b 511 1101 468 1113 499 1106 l 511 1067 b 446 1078 499 1074 468 1078 "},"₹":{"ha":881,"x_min":0,"x_max":0,"o":"m 800 999 l 468 999 b 625 769 568 956 619 871 l 800 769 l 800 736 l 625 736 b 289 476 618 569 501 476 l 183 476 l 657 0 l 607 0 l 103 510 l 290 510 b 589 736 486 510 582 592 l 104 736 l 104 769 l 589 769 b 294 997 581 901 493 997 l 104 997 l 104 1031 l 800 1031 "},"₽":{"ha":882,"x_min":0,"x_max":0,"o":"m 286 411 l 286 238 l 531 238 l 531 206 l 286 206 l 286 0 l 250 0 l 250 206 l 85 206 l 85 238 l 250 238 l 250 411 l 85 411 l 85 444 l 250 444 l 250 1031 l 457 1031 b 817 725 674 1031 817 918 b 457 411 817 526 674 411 m 286 444 l 456 444 b 781 724 654 444 781 544 b 456 997 781 899 653 997 l 286 997 "},"₺":{"ha":857,"x_min":0,"x_max":0,"o":"m 792 446 b 361 0 804 176 633 0 l 253 0 l 253 363 l 85 265 l 85 306 l 253 403 l 253 563 l 85 465 l 85 506 l 253 603 l 253 1031 l 289 1031 l 289 624 l 551 775 l 551 735 l 289 583 l 289 424 l 551 575 l 551 535 l 289 383 l 289 35 l 353 35 b 754 446 606 35 763 192 l 792 446 "},"%":{"ha":1111,"x_min":0,"x_max":0,"o":"m 296 549 b 68 796 168 549 68 650 b 296 1043 68 939 167 1043 b 522 796 421 1043 522 939 b 296 549 522 651 421 549 m 875 1031 l 914 1031 l 236 0 l 197 0 m 296 579 b 489 796 400 579 489 668 b 296 1013 489 925 400 1013 b 101 796 188 1013 101 925 b 296 579 101 667 189 579 m 817 -12 b 589 235 689 -12 589 89 b 817 482 589 378 688 482 b 1043 235 943 482 1043 378 b 817 -12 1043 90 943 -12 m 817 18 b 1011 235 921 18 1011 107 b 817 451 1011 364 921 451 b 622 235 710 451 622 364 b 817 18 622 106 711 18 "},"‰":{"ha":1650,"x_min":0,"x_max":0,"o":"m 522 796 b 296 549 522 651 421 549 b 68 796 168 549 68 650 b 296 1043 68 939 167 1043 b 522 796 421 1043 522 939 m 875 1031 l 914 1031 l 236 0 l 197 0 m 489 796 b 296 1013 489 925 400 1013 b 101 796 188 1013 101 925 b 296 579 101 667 189 579 b 489 796 400 579 489 668 m 1043 235 b 817 -12 1043 90 943 -12 b 589 235 689 -12 589 89 b 817 482 589 378 688 482 b 1043 235 943 482 1043 378 m 1592 235 b 1365 -12 1592 90 1492 -12 b 1138 235 1238 -12 1138 89 b 1365 482 1138 378 1236 482 b 1592 235 1492 482 1592 378 m 1011 235 b 817 451 1011 364 921 451 b 622 235 710 451 622 364 b 817 18 622 106 711 18 b 1011 235 921 18 1011 107 m 1560 235 b 1365 451 1560 364 1469 451 b 1171 235 1258 451 1171 364 b 1365 18 1171 106 1258 18 b 1560 235 1469 18 1560 107 "},"+":{"ha":885,"x_min":0,"x_max":0,"o":"m 460 544 l 792 544 l 792 510 l 460 510 l 460 179 l 424 179 l 424 510 l 93 510 l 93 544 l 424 544 l 424 876 l 460 876 "},"−":{"ha":928,"x_min":0,"x_max":0,"o":"m 124 544 l 804 544 l 804 510 l 124 510 "},"±":{"ha":956,"x_min":0,"x_max":0,"o":"m 494 546 l 828 546 l 828 513 l 494 513 l 494 186 l 458 186 l 458 513 l 128 513 l 128 546 l 458 546 l 458 869 l 494 869 m 828 0 l 128 0 l 128 35 l 828 35 "},"÷":{"ha":953,"x_min":0,"x_max":0,"o":"m 457 743 b 411 789 431 743 411 763 b 457 835 411 814 431 835 b 503 789 482 835 503 814 b 457 743 503 763 482 743 m 131 544 l 818 544 l 818 510 l 131 510 m 457 221 b 411 267 431 221 411 240 b 457 313 411 293 431 313 b 503 267 482 313 503 293 b 457 221 503 240 482 221 "},"×":{"ha":769,"x_min":0,"x_max":0,"o":"m 410 528 l 651 285 l 628 260 l 385 503 l 143 260 l 117 285 l 360 528 l 117 769 l 143 794 l 385 553 l 626 794 l 651 769 "},"=":{"ha":928,"x_min":0,"x_max":0,"o":"m 124 651 l 804 651 l 804 617 l 124 617 m 124 438 l 804 438 l 804 403 l 124 403 "},"<":{"ha":907,"x_min":0,"x_max":0,"o":"m 761 849 l 79 546 l 79 508 l 761 207 l 761 244 l 121 528 l 121 529 l 761 811 "},">":{"ha":907,"x_min":0,"x_max":0,"o":"m 786 529 l 786 528 l 146 244 l 146 207 l 828 508 l 828 546 l 146 849 l 146 811 "},"≤":{"ha":942,"x_min":0,"x_max":0,"o":"m 800 840 l 118 538 l 118 500 l 800 199 l 800 236 l 160 519 l 160 521 l 800 803 m 121 33 l 801 33 l 801 0 l 121 0 "},"≥":{"ha":942,"x_min":0,"x_max":0,"o":"m 782 521 l 782 519 l 142 236 l 142 199 l 824 500 l 824 538 l 142 840 l 142 803 m 140 33 l 822 33 l 822 0 l 140 0 "},"≈":{"ha":982,"x_min":0,"x_max":0,"o":"m 860 726 b 693 568 849 632 788 568 b 306 690 561 568 425 690 b 164 565 226 690 171 636 l 131 565 b 303 724 138 660 208 724 b 690 601 433 724 569 601 b 826 726 768 601 817 656 l 860 726 m 860 482 b 693 324 849 388 788 324 b 306 446 561 324 425 446 b 164 321 226 446 171 392 l 131 321 b 303 479 138 415 208 479 b 690 357 433 479 569 357 b 826 482 768 357 817 411 l 860 482 "},"≠":{"ha":928,"x_min":0,"x_max":0,"o":"m 557 617 l 406 438 l 804 438 l 804 403 l 376 403 l 174 164 l 138 164 l 340 403 l 124 403 l 124 438 l 369 438 l 521 617 l 124 617 l 124 651 l 550 651 l 754 892 l 790 892 l 586 651 l 804 651 l 804 617 "},"¬":{"ha":961,"x_min":0,"x_max":0,"o":"m 799 510 l 138 510 l 138 544 l 836 544 l 836 176 l 799 176 "},"∂":{"ha":869,"x_min":0,"x_max":0,"o":"m 450 1097 b 786 649 660 1097 786 918 b 774 472 786 603 782 551 b 374 -10 733 186 583 -10 b 82 308 203 -10 82 108 b 514 743 82 558 260 743 b 750 675 604 743 683 714 b 449 1064 743 913 631 1064 b 253 1021 376 1064 318 1053 l 253 1053 b 450 1097 318 1085 376 1097 m 375 24 b 738 472 560 24 697 200 b 750 639 746 543 750 597 b 518 708 694 676 603 708 b 118 311 279 708 118 533 b 375 24 118 132 224 24 "},"∏":{"ha":908,"x_min":0,"x_max":0,"o":"m 776 1036 l 776 -292 l 740 -292 l 740 1001 l 168 1001 l 168 -292 l 132 -292 l 132 1036 "},"∑":{"ha":799,"x_min":0,"x_max":0,"o":"m 719 997 l 121 997 l 510 365 l 121 -268 l 722 -268 l 722 -301 l 53 -301 l 465 364 l 53 1031 l 719 1031 "},"√":{"ha":831,"x_min":0,"x_max":0,"o":"m 33 347 l 24 376 l 213 453 l 418 -136 l 419 -136 l 764 1285 l 801 1285 l 433 -222 l 415 -222 l 190 408 "},"∞":{"ha":947,"x_min":0,"x_max":0,"o":"m 672 706 b 838 528 765 706 838 626 b 672 356 838 431 765 356 b 474 503 578 356 524 428 b 275 356 424 428 369 356 b 110 528 182 356 110 431 b 275 706 110 626 182 706 b 474 558 369 706 424 633 b 672 706 524 633 578 706 m 276 389 b 456 531 358 389 407 457 b 276 671 407 603 358 671 b 146 528 204 671 146 608 b 276 389 146 450 204 389 m 671 389 b 801 528 743 389 801 450 b 671 671 801 608 743 671 b 492 531 589 671 540 603 b 671 389 540 457 589 389 "},"∫":{"ha":557,"x_min":0,"x_max":0,"o":"m 528 1050 b 432 1075 490 1071 460 1075 b 296 922 350 1075 296 1022 l 296 -126 b 126 -312 296 -251 219 -312 b 26 -289 92 -312 58 -306 l 26 -254 b 124 -279 64 -275 96 -279 b 260 -125 206 -279 260 -225 l 260 922 b 428 1110 260 1047 335 1110 b 528 1085 463 1110 497 1101 "},"^":{"ha":732,"x_min":0,"x_max":0,"o":"m 610 425 l 367 982 l 122 425 l 86 425 l 350 1031 l 382 1031 l 646 425 "},"~":{"ha":983,"x_min":0,"x_max":0,"o":"m 860 604 b 693 446 849 510 788 446 b 306 568 561 446 425 568 b 164 443 226 568 171 514 l 131 443 b 303 601 138 538 208 601 b 690 479 433 601 569 479 b 826 604 768 479 817 533 l 860 604 "},"°":{"ha":614,"x_min":0,"x_max":0,"o":"m 307 594 b 86 819 183 594 86 693 b 307 1043 86 944 183 1043 b 529 819 432 1043 529 944 b 307 594 529 693 432 594 m 307 1013 b 118 819 201 1013 118 926 b 307 625 118 711 201 625 b 496 819 413 625 496 711 b 307 1013 496 926 413 1013 "},"∆":{"ha":910,"x_min":0,"x_max":0,"o":"m 438 1031 l 475 1031 l 900 0 l 11 0 m 847 35 l 456 985 l 64 35 "},"Ω":{"ha":1165,"x_min":0,"x_max":0,"o":"m 1082 35 l 1082 0 l 694 0 l 694 28 b 1022 538 857 100 1021 289 b 582 1008 1025 819 842 1008 b 143 538 324 1008 140 819 b 471 28 144 289 308 100 l 471 0 l 82 0 l 82 35 l 396 35 b 106 539 236 124 106 315 b 582 1043 104 840 301 1043 b 1058 539 863 1043 1060 840 b 769 35 1058 315 928 124 "},"π":{"ha":911,"x_min":0,"x_max":0,"o":"m 806 25 b 853 32 822 25 840 28 l 853 0 b 800 -8 842 -6 821 -8 b 625 206 676 -8 625 64 l 625 699 l 246 699 l 246 0 l 210 0 l 210 699 l 24 699 l 24 732 l 847 732 l 847 699 l 661 699 l 661 210 b 806 25 661 82 697 25 "},"µ":{"ha":828,"x_min":0,"x_max":0,"o":"m 746 28 b 772 31 758 28 767 29 l 772 -1 b 742 -6 765 -4 753 -6 b 636 117 671 -6 636 33 l 636 135 b 401 -11 600 44 510 -11 b 172 132 292 -11 207 40 l 171 132 l 171 -301 l 135 -301 l 135 732 l 171 732 l 171 256 b 403 25 171 117 261 25 b 635 265 542 25 635 106 l 635 732 l 671 732 l 671 118 b 746 28 671 51 693 28 "},"◊":{"ha":801,"x_min":0,"x_max":0,"o":"m 413 -12 l 389 -12 l 68 515 l 388 1043 l 413 1043 l 732 515 m 403 992 l 400 992 l 110 515 l 400 39 l 401 39 l 690 515 "},"↑":{"ha":1063,"x_min":0,"x_max":0,"o":"m 997 538 l 547 967 l 549 0 l 513 0 l 513 967 l 65 538 l 65 585 l 531 1031 l 997 585 "},"↗":{"ha":1063,"x_min":0,"x_max":0,"o":"m 828 879 l 192 879 l 225 915 l 889 915 l 889 253 l 854 219 l 854 854 l 156 154 l 129 181 "},"→":{"ha":1063,"x_min":0,"x_max":0,"o":"m 538 28 l 967 478 l 0 476 l 0 513 l 967 513 l 538 960 l 585 960 l 1031 494 l 585 28 "},"↘":{"ha":1063,"x_min":0,"x_max":0,"o":"m 154 908 l 853 208 l 853 843 l 888 810 l 888 147 l 224 147 l 190 183 l 826 183 l 128 882 "},"↓":{"ha":1063,"x_min":0,"x_max":0,"o":"m 531 0 l 65 446 l 65 493 l 513 64 l 513 1031 l 549 1031 l 547 64 l 997 493 l 997 446 "},"↙":{"ha":1063,"x_min":0,"x_max":0,"o":"m 236 183 l 872 183 l 839 147 l 175 147 l 175 810 l 210 843 l 210 208 l 908 908 l 935 882 "},"←":{"ha":1063,"x_min":0,"x_max":0,"o":"m 525 1003 l 96 553 l 1063 554 l 1063 518 l 96 518 l 525 71 l 478 71 l 32 536 l 478 1003 "},"↖":{"ha":1063,"x_min":0,"x_max":0,"o":"m 907 154 l 208 854 l 208 219 l 174 253 l 174 915 l 838 915 l 871 879 l 235 879 l 933 181 "},"`":{"ha":854,"x_min":0,"x_max":0,"o":"m 511 865 l 476 865 l 300 1086 l 343 1086 "},"´":{"ha":854,"x_min":0,"x_max":0,"o":"m 554 1086 l 378 865 l 343 865 l 511 1086 "},"ˆ":{"ha":854,"x_min":0,"x_max":0,"o":"m 615 865 l 575 865 l 426 1056 l 278 865 l 239 865 l 411 1086 l 443 1086 "},"ˇ":{"ha":854,"x_min":0,"x_max":0,"o":"m 443 865 l 411 865 l 239 1086 l 279 1086 l 428 896 l 576 1086 l 615 1086 "},"˜":{"ha":854,"x_min":0,"x_max":0,"o":"m 654 988 b 542 876 658 911 600 876 b 332 957 457 876 408 957 b 250 876 283 957 249 928 l 218 876 b 332 988 215 953 274 988 b 542 907 417 988 465 907 b 622 988 590 907 625 936 l 654 988 "},"¨":{"ha":854,"x_min":0,"x_max":0,"o":"m 317 915 b 282 949 297 915 282 931 b 317 983 282 968 297 983 b 351 949 336 983 351 968 b 317 915 351 931 336 915 m 538 915 b 503 949 518 915 503 931 b 538 983 503 968 518 983 b 572 949 557 983 572 968 b 538 915 572 931 557 915 "},"˚":{"ha":854,"x_min":0,"x_max":0,"o":"m 426 1088 b 539 979 490 1088 539 1038 b 426 871 539 921 490 871 b 314 979 363 871 314 921 b 426 1088 314 1038 363 1088 m 426 1061 b 343 979 376 1061 343 1025 b 426 897 343 933 376 897 b 510 979 475 897 510 933 b 426 1061 510 1025 475 1061 "},"¯":{"ha":854,"x_min":0,"x_max":0,"o":"m 244 972 l 610 972 l 610 940 l 244 940 "},"˘":{"ha":854,"x_min":0,"x_max":0,"o":"m 628 1069 b 428 896 624 958 533 896 b 226 1069 322 896 232 958 l 261 1069 b 428 928 267 986 336 928 b 593 1069 518 928 588 986 l 628 1069 "},"˙":{"ha":854,"x_min":0,"x_max":0,"o":"m 426 915 b 392 949 408 915 392 931 b 426 983 392 968 408 983 b 463 949 446 983 463 968 b 426 915 463 931 446 915 "},"˝":{"ha":854,"x_min":0,"x_max":0,"o":"m 272 865 l 236 865 l 428 1086 l 472 1086 m 464 865 l 428 865 l 618 1086 l 664 1086 "},"¸":{"ha":854,"x_min":0,"x_max":0,"o":"m 335 -247 b 440 7 393 -176 440 -108 l 474 7 b 376 -247 474 -114 426 -186 l 335 -247 "},"˛":{"ha":854,"x_min":0,"x_max":0,"o":"m 503 0 b 357 -187 414 -69 357 -128 b 456 -282 357 -254 410 -282 b 503 -274 476 -282 496 -278 l 503 -304 b 456 -312 497 -308 476 -312 b 324 -192 393 -312 324 -275 b 479 15 324 -122 389 -51 l 503 0 "},"̀":{"ha":0,"x_min":0,"x_max":0,"o":"m 65 865 l 31 865 l -146 1086 l -103 1086 "},"́":{"ha":0,"x_min":0,"x_max":0,"o":"m 146 1086 l -31 865 l -65 865 l 103 1086 "},"̂":{"ha":0,"x_min":0,"x_max":0,"o":"m 189 865 l 149 865 l 0 1056 l -149 865 l -187 865 l -15 1086 l 17 1086 "},"̌":{"ha":0,"x_min":0,"x_max":0,"o":"m 15 865 l -17 865 l -189 1086 l -149 1086 l 0 896 l 149 1086 l 188 1086 "},"̃":{"ha":0,"x_min":0,"x_max":0,"o":"m 217 988 b 104 876 221 911 163 876 b -106 957 19 876 -29 957 b -187 876 -154 957 -189 928 l -219 876 b -106 988 -222 953 -164 988 b 104 907 -21 988 28 907 b 185 988 153 907 188 936 l 217 988 "},"̈":{"ha":0,"x_min":0,"x_max":0,"o":"m -110 915 b -144 949 -129 915 -144 931 b -110 983 -144 968 -129 983 b -75 949 -90 983 -75 968 b -110 915 -75 931 -90 915 m 111 915 b 76 949 92 915 76 931 b 111 983 76 968 92 983 b 146 949 131 983 146 968 b 111 915 146 931 131 915 "},"̊":{"ha":0,"x_min":0,"x_max":0,"o":"m 0 1088 b 113 979 64 1088 113 1038 b 0 871 113 921 64 871 b -112 979 -64 871 -112 921 b 0 1088 -112 1038 -64 1088 m 0 1061 b -83 979 -50 1061 -83 1025 b 0 897 -83 933 -50 897 b 83 979 49 897 83 933 b 0 1061 83 1025 49 1061 "},"̄":{"ha":0,"x_min":0,"x_max":0,"o":"m -183 972 l 182 972 l 182 940 l -183 940 "},"̆":{"ha":0,"x_min":0,"x_max":0,"o":"m 200 1069 b 0 896 196 958 106 896 b -201 1069 -106 896 -196 958 l -167 1069 b 0 928 -161 986 -92 928 b 165 1069 90 928 160 986 l 200 1069 "},"̇":{"ha":0,"x_min":0,"x_max":0,"o":"m -1 915 b -36 949 -19 915 -36 931 b -1 983 -36 968 -19 983 b 35 949 18 983 35 968 b -1 915 35 931 18 915 "},"̋":{"ha":0,"x_min":0,"x_max":0,"o":"m -100 865 l -136 865 l 56 1086 l 100 1086 m 92 865 l 56 865 l 246 1086 l 292 1086 "},"̧":{"ha":0,"x_min":0,"x_max":0,"o":"m -121 -247 b -15 7 -62 -176 -15 -108 l 18 7 b -79 -247 18 -114 -29 -186 l -121 -247 "},"̨":{"ha":0,"x_min":0,"x_max":0,"o":"m 0 0 b -146 -187 -89 -69 -146 -128 b -47 -282 -146 -254 -93 -282 b 0 -274 -26 -282 -7 -278 l 0 -304 b -47 -312 -6 -308 -26 -312 b -179 -192 -110 -312 -179 -275 b -24 15 -179 -122 -114 -51 l 0 0 "},"̦":{"ha":0,"x_min":0,"x_max":0,"o":"m 18 -110 b -15 -340 28 -178 18 -258 l -46 -340 b -18 -110 -18 -261 -10 -182 l 18 -110 "},"ĸ":{"ha":647,"x_min":0,"x_max":0,"o":"m 172 0 l 136 0 l 136 732 l 172 732 m 219 388 l 626 0 l 578 0 l 172 388 l 561 732 l 610 732 "},"А":{"ha":929,"x_min":0,"x_max":0,"o":"m 863 0 l 708 381 l 221 381 l 67 0 l 28 0 l 446 1031 l 483 1031 l 901 0 m 235 415 l 694 415 l 465 985 "},"Б":{"ha":821,"x_min":0,"x_max":0,"o":"m 385 581 b 744 300 607 581 744 482 b 385 0 744 111 603 0 l 169 0 l 169 1031 l 683 1031 l 683 997 l 206 997 l 206 581 l 385 581 m 385 35 b 707 300 583 35 707 129 b 385 546 707 464 585 546 l 206 546 l 206 35 l 385 35 "},"В":{"ha":863,"x_min":0,"x_max":0,"o":"m 538 532 b 771 272 686 501 771 404 b 435 0 771 122 656 0 l 169 0 l 169 1031 l 422 1031 b 729 775 617 1031 729 926 b 538 532 729 651 663 561 m 206 546 l 433 546 b 692 774 617 546 692 654 b 426 997 692 911 593 997 l 206 997 m 435 35 b 735 272 633 35 735 140 b 439 511 735 407 631 511 l 206 511 l 206 35 l 435 35 "},"Г":{"ha":678,"x_min":0,"x_max":0,"o":"m 169 1031 l 642 1031 l 642 997 l 206 997 l 206 0 l 169 0 "},"Д":{"ha":964,"x_min":0,"x_max":0,"o":"m 901 35 l 901 -236 l 865 -236 l 865 0 l 46 0 l 46 -236 l 10 -236 l 10 35 l 118 35 b 238 588 199 142 238 288 l 238 1031 l 779 1031 l 779 35 m 274 588 b 160 35 274 319 249 163 l 743 35 l 743 997 l 274 997 l 274 588 "},"Е":{"ha":765,"x_min":0,"x_max":0,"o":"m 169 1031 l 654 1031 l 654 997 l 206 997 l 206 540 l 629 540 l 629 507 l 206 507 l 206 35 l 654 35 l 654 0 l 169 0 "},"Ё":{"ha":765,"x_min":0,"x_max":0,"o":"m 310 1215 b 275 1249 290 1215 275 1231 b 310 1283 275 1268 290 1283 b 344 1249 329 1283 344 1268 b 310 1215 344 1231 329 1215 m 531 1215 b 496 1249 511 1215 496 1231 b 531 1283 496 1268 511 1283 b 565 1249 550 1283 565 1268 b 531 1215 565 1231 550 1215 m 169 1031 l 654 1031 l 654 997 l 206 997 l 206 540 l 629 540 l 629 507 l 206 507 l 206 35 l 654 35 l 654 0 l 169 0 "},"Ж":{"ha":1215,"x_min":0,"x_max":0,"o":"m 540 515 l 33 1031 l 81 1031 l 589 515 l 76 0 l 26 0 m 589 1031 l 625 1031 l 625 0 l 589 0 m 626 515 l 1135 1031 l 1182 1031 l 675 515 l 1189 0 l 1139 0 "},"З":{"ha":765,"x_min":0,"x_max":0,"o":"m 449 529 b 660 267 578 501 660 404 b 357 -12 660 97 543 -12 b 78 83 258 -12 160 21 l 78 129 b 354 22 147 68 251 22 b 624 268 519 22 624 115 b 344 511 624 418 517 511 l 217 511 l 217 546 l 358 546 b 597 783 497 546 597 644 b 338 1010 597 922 496 1010 b 94 931 244 1010 157 981 l 94 974 b 340 1044 154 1017 242 1044 b 633 785 522 1044 633 939 b 449 529 633 658 556 560 "},"И":{"ha":1079,"x_min":0,"x_max":0,"o":"m 169 1031 l 204 1031 l 204 58 l 206 58 l 869 1031 l 910 1031 l 910 0 l 874 0 l 874 975 l 872 975 l 207 0 l 169 0 "},"Й":{"ha":1079,"x_min":0,"x_max":0,"o":"m 740 1365 b 543 1182 735 1239 650 1182 b 347 1365 438 1182 353 1239 l 383 1365 b 543 1211 389 1265 446 1211 b 704 1365 642 1211 699 1265 l 740 1365 m 169 1031 l 204 1031 l 204 58 l 206 58 l 869 1031 l 910 1031 l 910 0 l 874 0 l 874 975 l 872 975 l 207 0 l 169 0 "},"К":{"ha":833,"x_min":0,"x_max":0,"o":"m 206 0 l 169 0 l 169 1031 l 206 1031 m 254 515 l 807 0 l 757 0 l 206 515 l 753 1031 l 800 1031 "},"Л":{"ha":928,"x_min":0,"x_max":0,"o":"m -3 29 b 217 465 118 29 217 133 l 217 1031 l 758 1031 l 758 0 l 722 0 l 722 997 l 253 997 l 253 465 b -3 -4 253 149 161 -4 "},"М":{"ha":1313,"x_min":0,"x_max":0,"o":"m 129 0 l 92 0 l 261 1031 l 304 1031 l 658 58 l 660 58 l 1004 1031 l 1049 1031 l 1221 0 l 1183 0 l 1024 972 l 1021 972 l 675 0 l 642 0 l 289 969 l 288 969 "},"Н":{"ha":1065,"x_min":0,"x_max":0,"o":"m 860 513 l 206 513 l 206 0 l 169 0 l 169 1031 l 206 1031 l 206 547 l 860 547 l 860 1031 l 896 1031 l 896 0 l 860 0 "},"О":{"ha":1164,"x_min":0,"x_max":0,"o":"m 582 -12 b 93 515 304 -12 93 208 b 582 1043 93 822 304 1043 b 1071 515 858 1043 1071 822 b 582 -12 1071 208 858 -12 m 582 22 b 1035 515 831 22 1035 219 b 582 1008 1035 811 831 1008 b 129 515 332 1008 129 811 b 582 22 129 219 332 22 "},"П":{"ha":1033,"x_min":0,"x_max":0,"o":"m 828 997 l 206 997 l 206 0 l 169 0 l 169 1031 l 864 1031 l 864 0 l 828 0 "},"Р":{"ha":800,"x_min":0,"x_max":0,"o":"m 169 1031 l 375 1031 b 738 725 590 1031 738 919 b 374 408 738 524 592 408 l 206 408 l 206 0 l 169 0 m 375 443 b 700 724 574 443 700 544 b 376 997 700 899 572 997 l 206 997 l 206 443 l 375 443 "},"С":{"ha":922,"x_min":0,"x_max":0,"o":"m 856 58 b 592 -12 783 14 693 -12 b 93 517 344 -12 93 179 b 583 1043 93 853 343 1043 b 856 972 694 1043 785 1017 l 856 933 b 583 1008 781 982 692 1008 b 129 517 365 1008 129 835 b 590 22 129 197 368 22 b 856 99 692 22 778 49 l 856 58 "},"Т":{"ha":793,"x_min":0,"x_max":0,"o":"m 378 997 l 32 997 l 32 1031 l 761 1031 l 761 997 l 414 997 l 414 0 l 378 0 "},"У":{"ha":872,"x_min":0,"x_max":0,"o":"m 857 1031 l 497 222 b 203 -3 426 63 342 -3 l 203 31 b 465 236 326 31 399 86 l 32 1031 l 72 1031 l 483 275 l 818 1031 "},"Ф":{"ha":1156,"x_min":0,"x_max":0,"o":"m 596 968 b 1078 531 868 968 1078 786 b 596 93 1078 276 868 93 l 596 -15 l 560 -15 l 560 93 b 78 531 288 93 78 276 b 560 968 78 786 288 968 l 560 1076 l 596 1076 l 596 968 m 560 935 b 115 531 310 935 115 768 b 560 126 115 294 310 126 m 596 126 b 1042 531 847 126 1042 294 b 596 935 1042 768 847 935 l 596 126 "},"Х":{"ha":854,"x_min":0,"x_max":0,"o":"m 406 519 l 47 1031 l 89 1031 l 428 547 l 764 1031 l 804 1031 l 447 521 l 814 0 l 771 0 l 426 492 l 83 0 l 42 0 "},"Ч":{"ha":854,"x_min":0,"x_max":0,"o":"m 685 1031 l 685 0 l 647 0 l 647 481 b 375 425 572 446 476 425 b 82 725 176 425 82 515 l 82 1031 l 118 1031 l 118 728 b 379 460 118 539 197 460 b 647 518 481 460 581 483 l 647 1031 "},"Ц":{"ha":1015,"x_min":0,"x_max":0,"o":"m 953 35 l 953 -236 l 918 -236 l 918 0 l 169 0 l 169 1031 l 206 1031 l 206 35 l 793 35 l 793 1031 l 829 1031 l 829 35 "},"Ш":{"ha":1331,"x_min":0,"x_max":0,"o":"m 1161 1031 l 1161 0 l 169 0 l 169 1031 l 206 1031 l 206 35 l 647 35 l 647 1031 l 683 1031 l 683 35 l 1125 35 l 1125 1031 "},"Щ":{"ha":1339,"x_min":0,"x_max":0,"o":"m 1276 35 l 1276 -236 l 1242 -236 l 1242 0 l 169 0 l 169 1031 l 206 1031 l 206 35 l 643 35 l 643 1031 l 679 1031 l 679 35 l 1117 35 l 1117 1031 l 1153 1031 l 1153 35 "},"Џ":{"ha":999,"x_min":0,"x_max":0,"o":"m 829 0 l 517 0 l 517 -236 l 481 -236 l 481 0 l 169 0 l 169 1031 l 206 1031 l 206 35 l 793 35 l 793 1031 l 829 1031 "},"Ь":{"ha":804,"x_min":0,"x_max":0,"o":"m 379 594 b 742 307 606 594 742 490 b 379 0 742 115 601 0 l 169 0 l 169 1031 l 206 1031 l 206 594 l 379 594 m 381 35 b 706 307 583 35 706 135 b 381 561 706 471 588 561 l 206 561 l 206 35 l 381 35 "},"Ъ":{"ha":979,"x_min":0,"x_max":0,"o":"m 554 594 b 917 307 771 594 917 497 b 553 0 917 111 771 0 l 349 0 l 349 997 l 31 997 l 31 1031 l 385 1031 l 385 594 l 554 594 m 554 35 b 881 307 753 35 881 131 b 556 561 881 478 751 561 l 385 561 l 385 35 l 554 35 "},"Ы":{"ha":1110,"x_min":0,"x_max":0,"o":"m 365 594 b 728 307 582 594 728 497 b 364 0 728 111 582 0 l 169 0 l 169 1031 l 206 1031 l 206 594 l 365 594 m 940 1031 l 940 0 l 904 0 l 904 1031 m 365 35 b 692 307 564 35 692 131 b 367 561 692 478 563 561 l 206 561 l 206 35 l 365 35 "},"Љ":{"ha":1339,"x_min":0,"x_max":0,"o":"m 915 594 b 1278 308 1131 594 1278 499 b 914 1 1278 113 1132 1 l 719 1 l 719 997 l 254 997 l 254 469 b -1 0 254 151 163 0 l -1 33 b 218 469 119 33 218 136 l 218 1031 l 756 1031 l 756 594 l 915 594 m 915 36 b 1240 308 1114 36 1240 132 b 917 561 1240 479 1113 561 l 756 561 l 756 36 l 915 36 "},"Њ":{"ha":1424,"x_min":0,"x_max":0,"o":"m 1001 568 b 1364 294 1218 568 1364 479 b 1001 0 1364 104 1219 0 l 808 0 l 808 535 l 206 535 l 206 0 l 169 0 l 169 1031 l 206 1031 l 206 568 l 808 568 l 808 1031 l 844 1031 l 844 568 l 1001 568 m 1003 35 b 1328 294 1201 35 1328 125 b 1003 535 1328 460 1200 535 l 844 535 l 844 35 l 1003 35 "},"Э":{"ha":954,"x_min":0,"x_max":0,"o":"m 364 1042 b 861 517 615 1042 861 864 b 353 -11 861 167 613 -11 b 82 60 253 -11 161 13 l 82 97 b 353 24 161 47 251 24 b 824 506 592 24 819 185 l 254 506 l 254 540 l 824 540 b 364 1007 814 851 592 1007 b 82 933 251 1007 158 982 l 82 972 b 364 1042 161 1017 251 1042 "},"Ј":{"ha":606,"x_min":0,"x_max":0,"o":"m 42 103 b 222 24 90 54 151 24 b 410 236 335 24 410 97 l 410 1031 l 446 1031 l 446 232 b 222 -11 446 81 357 -11 b 42 60 156 -11 92 14 l 42 103 "},"Ћ":{"ha":993,"x_min":0,"x_max":0,"o":"m 615 604 b 911 307 813 604 911 517 l 911 0 l 875 0 l 875 301 b 613 569 875 490 796 569 b 336 511 507 569 407 547 l 336 0 l 300 0 l 300 997 l 32 997 l 32 1031 l 729 1031 l 729 997 l 336 997 l 336 549 b 615 604 413 585 513 604 "},"Ю":{"ha":1479,"x_min":0,"x_max":0,"o":"m 917 1042 b 1386 515 1181 1042 1386 825 b 917 -11 1386 207 1181 -11 b 449 500 657 -11 456 200 l 206 500 l 206 0 l 169 0 l 169 1031 l 206 1031 l 206 535 l 449 535 b 917 1042 457 835 658 1042 m 917 24 b 1349 515 1165 24 1349 232 b 917 1007 1349 800 1165 1007 b 486 515 668 1007 486 800 b 917 24 486 232 668 24 "},"Я":{"ha":807,"x_min":0,"x_max":0,"o":"m 638 1031 l 638 0 l 601 0 l 601 500 l 114 0 l 64 0 l 531 476 l 426 476 b 97 753 201 476 97 582 b 428 1031 97 913 201 1031 m 601 510 l 601 997 l 428 997 b 133 753 218 997 133 893 b 431 510 133 592 235 510 "},"Ђ":{"ha":965,"x_min":0,"x_max":0,"o":"m 596 604 b 900 306 778 604 900 510 b 603 0 900 119 781 0 l 588 0 l 588 35 l 601 35 b 864 304 758 35 864 136 b 592 569 864 486 760 569 b 332 511 494 569 401 547 l 332 0 l 296 0 l 296 997 l 32 997 l 32 1031 l 715 1031 l 715 997 l 332 997 l 332 549 b 596 604 408 585 501 604 "},"а":{"ha":888,"x_min":0,"x_max":0,"o":"m 415 -11 b 82 365 243 -11 82 133 b 415 743 82 600 242 743 b 717 518 542 743 668 667 l 721 732 l 751 732 l 751 0 l 721 0 l 717 214 b 415 -11 668 65 543 -11 m 418 24 b 717 367 575 24 717 153 b 417 708 717 579 576 708 b 118 365 260 708 118 579 b 418 24 118 154 261 24 "},"б":{"ha":875,"x_min":0,"x_max":0,"o":"m 460 729 b 792 360 657 729 792 571 b 454 -11 792 146 650 -11 b 110 410 247 -11 110 154 b 440 1036 110 836 214 967 b 749 1110 540 1067 685 1097 l 749 1075 b 440 1001 694 1065 540 1031 b 149 515 256 944 164 832 b 460 729 199 646 322 729 m 453 24 b 756 360 631 24 756 164 b 460 694 756 551 633 694 b 147 379 288 694 147 557 b 453 24 147 175 276 24 "},"в":{"ha":715,"x_min":0,"x_max":0,"o":"m 467 378 b 633 197 568 357 633 292 b 381 0 633 75 538 0 l 136 0 l 136 732 l 375 732 b 606 553 521 732 606 667 b 467 378 606 464 551 399 m 172 393 l 382 393 b 569 550 496 393 569 451 b 372 699 569 649 499 699 l 172 699 m 378 33 b 597 200 515 33 597 92 b 378 360 597 300 511 360 l 172 360 l 172 33 l 378 33 "},"г":{"ha":542,"x_min":0,"x_max":0,"o":"m 136 732 l 513 732 l 513 700 l 172 700 l 172 0 l 136 0 "},"д":{"ha":758,"x_min":0,"x_max":0,"o":"m 701 33 l 701 -181 l 665 -181 l 665 0 l 57 0 l 57 -181 l 21 -181 l 21 33 l 104 33 b 188 399 164 117 188 217 l 188 732 l 604 732 l 604 33 m 224 399 b 144 33 224 221 197 113 l 568 33 l 568 699 l 224 699 l 224 399 "},"е":{"ha":796,"x_min":0,"x_max":0,"o":"m 715 382 b 714 356 715 371 714 360 l 119 356 b 429 24 124 147 253 24 b 697 129 521 24 617 56 l 697 88 b 428 -11 618 21 522 -11 b 83 365 229 -11 83 132 b 417 743 83 600 243 743 b 715 382 575 743 715 621 m 679 389 b 417 710 679 606 553 710 b 119 389 268 710 129 589 "},"ё":{"ha":796,"x_min":0,"x_max":0,"o":"m 304 915 b 269 949 285 915 269 931 b 304 983 269 968 285 983 b 339 949 324 983 339 968 b 304 915 339 931 324 915 m 525 915 b 490 949 506 915 490 931 b 525 983 490 968 506 983 b 560 949 544 983 560 968 b 525 915 560 931 544 915 m 715 382 b 714 356 715 371 714 360 l 119 356 b 429 24 124 147 253 24 b 697 129 521 24 617 56 l 697 88 b 428 -11 618 21 522 -11 b 83 365 229 -11 83 132 b 417 743 83 600 243 743 b 715 382 575 743 715 621 m 679 389 b 417 710 679 606 553 710 b 119 389 268 710 129 589 "},"ж":{"ha":940,"x_min":0,"x_max":0,"o":"m 96 732 l 457 378 l 78 0 l 28 0 l 411 378 l 49 732 m 493 732 l 493 0 l 457 0 l 457 732 m 539 378 l 921 0 l 872 0 l 493 378 l 854 732 l 901 732 "},"з":{"ha":639,"x_min":0,"x_max":0,"o":"m 392 378 b 556 188 490 360 556 289 b 315 -11 556 71 461 -11 b 68 75 226 -11 140 19 l 68 117 b 317 24 138 60 226 24 b 519 192 440 24 519 89 b 318 360 519 292 440 360 l 194 360 l 194 393 l 321 393 b 493 558 421 393 493 464 b 294 708 493 649 415 708 b 86 640 225 708 153 686 l 86 681 b 296 743 151 722 224 743 b 529 560 439 743 529 668 b 392 378 529 471 471 397 "},"и":{"ha":810,"x_min":0,"x_max":0,"o":"m 136 732 l 172 732 l 172 56 l 174 56 l 636 732 l 674 732 l 674 0 l 639 0 l 639 674 l 638 674 l 176 0 l 136 0 "},"й":{"ha":810,"x_min":0,"x_max":0,"o":"m 601 1065 b 404 882 596 939 511 882 b 208 1065 299 882 214 939 l 244 1065 b 404 911 250 965 307 911 b 565 1065 503 911 560 965 l 601 1065 m 136 732 l 172 732 l 172 56 l 174 56 l 636 732 l 674 732 l 674 0 l 639 0 l 639 674 l 638 674 l 176 0 l 136 0 "},"к":{"ha":647,"x_min":0,"x_max":0,"o":"m 172 0 l 136 0 l 136 732 l 172 732 m 219 378 l 629 0 l 579 0 l 172 378 l 561 732 l 610 732 "},"л":{"ha":719,"x_min":0,"x_max":0,"o":"m 18 29 b 169 325 101 29 169 97 l 169 732 l 583 732 l 583 0 l 547 0 l 547 699 l 206 699 l 206 326 b 18 -4 206 101 139 -4 "},"м":{"ha":950,"x_min":0,"x_max":0,"o":"m 181 732 l 222 732 l 475 71 l 476 71 l 729 732 l 768 732 l 853 0 l 818 0 l 742 668 l 740 668 l 490 14 l 458 14 l 208 669 l 207 669 l 132 0 l 96 0 "},"н":{"ha":796,"x_min":0,"x_max":0,"o":"m 136 732 l 172 732 l 172 390 l 624 390 l 624 732 l 660 732 l 660 0 l 624 0 l 624 358 l 172 358 l 172 0 l 136 0 "},"о":{"ha":853,"x_min":0,"x_max":0,"o":"m 426 -11 b 81 365 244 -11 81 136 b 426 743 81 594 243 743 b 771 365 608 743 771 594 b 426 -11 771 138 607 -11 m 426 24 b 735 365 583 24 735 150 b 426 708 735 581 583 708 b 117 365 268 708 117 581 b 426 24 117 150 268 24 "},"п":{"ha":785,"x_min":0,"x_max":0,"o":"m 136 732 l 649 732 l 649 0 l 613 0 l 613 699 l 172 699 l 172 0 l 136 0 "},"р":{"ha":888,"x_min":0,"x_max":0,"o":"m 138 732 l 167 732 l 171 515 l 172 515 b 475 743 219 667 347 743 b 806 367 647 743 806 599 b 474 -11 806 132 646 -11 b 174 211 347 -11 221 65 l 174 -301 l 138 -301 m 472 24 b 769 367 629 24 769 153 b 472 708 769 578 631 708 b 171 365 314 708 171 579 b 472 24 171 153 314 24 "},"с":{"ha":700,"x_min":0,"x_max":0,"o":"m 118 367 b 431 24 118 157 264 24 b 628 82 488 24 563 36 l 628 42 b 431 -11 565 3 493 -11 b 82 367 240 -11 82 143 b 429 743 82 585 238 743 b 628 692 489 743 561 731 l 628 651 b 428 708 560 696 488 708 b 118 367 263 708 118 571 "},"т":{"ha":583,"x_min":0,"x_max":0,"o":"m 274 699 l 31 699 l 31 732 l 554 732 l 554 699 l 310 699 l 310 0 l 274 0 "},"у":{"ha":690,"x_min":0,"x_max":0,"o":"m 238 -301 l 201 -301 l 331 31 l 50 732 l 89 732 l 349 78 l 350 78 l 603 732 l 640 732 "},"ф":{"ha":949,"x_min":0,"x_max":0,"o":"m 867 365 b 492 -11 867 135 686 -10 l 492 -301 l 456 -301 l 456 -11 b 81 365 263 -10 81 135 b 456 742 81 597 261 740 l 456 1101 l 492 1101 l 492 742 b 867 365 688 740 867 597 m 117 365 b 456 24 117 157 276 25 l 456 708 b 117 365 276 707 117 575 m 492 24 b 831 365 672 25 831 157 b 492 708 831 575 672 707 l 492 24 "},"х":{"ha":658,"x_min":0,"x_max":0,"o":"m 350 371 l 614 0 l 574 0 l 331 342 l 329 342 l 86 0 l 46 0 l 308 368 l 50 732 l 90 732 l 329 396 l 331 396 l 569 732 l 608 732 "},"ч":{"ha":686,"x_min":0,"x_max":0,"o":"m 550 732 l 550 0 l 514 0 l 514 333 b 304 294 457 308 383 294 b 72 525 150 294 72 368 l 72 732 l 108 732 l 108 531 b 311 328 108 389 172 328 b 514 369 389 328 461 343 l 514 732 "},"ц":{"ha":789,"x_min":0,"x_max":0,"o":"m 732 33 l 732 -181 l 696 -181 l 696 0 l 136 0 l 136 732 l 172 732 l 172 33 l 600 33 l 600 732 l 636 732 l 636 33 "},"ш":{"ha":1068,"x_min":0,"x_max":0,"o":"m 932 732 l 932 0 l 136 0 l 136 732 l 172 732 l 172 33 l 517 33 l 517 732 l 553 732 l 553 33 l 896 33 l 896 732 "},"щ":{"ha":1081,"x_min":0,"x_max":0,"o":"m 1024 33 l 1024 -181 l 988 -181 l 988 0 l 136 0 l 136 732 l 172 732 l 172 33 l 514 33 l 514 732 l 550 732 l 550 33 l 890 33 l 890 732 l 926 732 l 926 33 "},"џ":{"ha":772,"x_min":0,"x_max":0,"o":"m 636 0 l 404 0 l 404 -181 l 368 -181 l 368 0 l 136 0 l 136 732 l 172 732 l 172 33 l 600 33 l 600 732 l 636 732 "},"ь":{"ha":647,"x_min":0,"x_max":0,"o":"m 343 426 b 589 214 499 426 589 342 b 328 0 589 85 482 0 l 136 0 l 136 732 l 172 732 l 172 426 l 343 426 m 328 33 b 553 214 463 33 553 103 b 343 393 553 325 478 393 l 172 393 l 172 33 l 328 33 "},"ъ":{"ha":760,"x_min":0,"x_max":0,"o":"m 456 426 b 701 214 611 426 701 342 b 439 0 701 85 594 0 l 253 0 l 253 699 l 31 699 l 31 732 l 289 732 l 289 426 l 456 426 m 440 33 b 665 214 575 33 665 103 b 456 393 665 325 590 393 l 289 393 l 289 33 l 440 33 "},"ы":{"ha":882,"x_min":0,"x_max":0,"o":"m 332 426 b 578 214 488 426 578 342 b 317 0 578 85 471 0 l 136 0 l 136 732 l 172 732 l 172 426 l 332 426 m 746 732 l 746 0 l 710 0 l 710 732 m 317 33 b 542 214 451 33 542 103 b 332 393 542 325 467 393 l 172 393 l 172 33 l 317 33 "},"љ":{"ha":1046,"x_min":0,"x_max":0,"o":"m 740 426 b 988 214 896 426 988 342 b 725 0 988 85 879 0 l 546 0 l 546 699 l 207 699 l 207 329 b 19 0 208 106 140 0 l 19 33 b 171 329 103 33 172 100 l 171 732 l 582 732 l 582 426 l 740 426 m 726 33 b 951 214 860 33 951 103 b 742 393 951 325 876 393 l 582 393 l 582 33 l 726 33 "},"њ":{"ha":1100,"x_min":0,"x_max":0,"o":"m 797 411 b 1043 208 953 411 1043 335 b 782 0 1043 82 936 0 l 601 0 l 601 379 l 172 379 l 172 0 l 136 0 l 136 732 l 172 732 l 172 411 l 601 411 l 601 732 l 638 732 l 638 411 l 797 411 m 782 33 b 1007 208 917 33 1007 100 b 797 379 1007 318 932 379 l 638 379 l 638 33 l 782 33 "},"э":{"ha":715,"x_min":0,"x_max":0,"o":"m 279 743 b 633 367 483 743 633 593 b 276 -11 633 135 479 -11 b 74 42 218 -11 139 1 l 74 82 b 276 24 140 36 221 24 b 597 356 460 24 593 151 l 185 356 l 185 389 l 597 389 b 279 708 588 582 458 708 b 74 653 224 708 144 697 l 74 692 b 279 743 143 732 222 743 "},"ј":{"ha":308,"x_min":0,"x_max":0,"o":"m 156 974 b 121 1007 136 974 121 988 b 156 1042 121 1026 136 1042 b 190 1007 175 1042 190 1026 b 156 974 190 988 175 974 m 11 -301 b 138 72 94 -212 138 -97 l 138 732 l 174 732 l 174 72 b 58 -301 174 -100 132 -211 l 11 -301 "},"ћ":{"ha":799,"x_min":0,"x_max":0,"o":"m 419 743 b 671 489 571 743 671 650 l 671 0 l 635 0 l 635 479 b 417 708 635 626 553 708 b 172 490 289 708 172 633 l 172 0 l 136 0 l 136 879 l 6 879 l 6 913 l 136 913 l 136 1101 l 172 1101 l 172 913 l 424 913 l 424 879 l 172 879 l 172 601 l 174 601 b 419 743 214 692 313 743 "},"ю":{"ha":1117,"x_min":0,"x_max":0,"o":"m 697 742 b 1035 365 872 742 1035 599 b 697 -11 1035 132 871 -11 b 360 354 526 -11 365 128 l 172 354 l 172 0 l 136 0 l 136 732 l 172 732 l 172 388 l 360 388 b 697 742 371 608 528 742 m 697 24 b 999 365 868 24 999 171 b 697 707 999 563 869 707 b 396 365 526 707 396 561 b 697 24 396 171 526 24 "},"я":{"ha":667,"x_min":0,"x_max":0,"o":"m 531 732 l 531 0 l 494 0 l 494 353 l 108 0 l 60 0 l 424 328 l 321 328 b 88 529 167 328 88 401 b 325 732 88 656 174 732 m 494 360 l 494 699 l 325 699 b 124 529 182 699 124 626 b 325 360 124 417 189 360 "},"ђ":{"ha":797,"x_min":0,"x_max":0,"o":"m 419 743 b 671 489 571 743 671 650 l 671 72 b 557 -301 671 -100 629 -211 l 510 -301 b 635 72 592 -212 635 -97 l 635 479 b 417 708 635 626 553 708 b 172 490 289 708 172 633 l 172 0 l 136 0 l 136 879 l 6 879 l 6 913 l 136 913 l 136 1101 l 172 1101 l 172 913 l 424 913 l 424 879 l 172 879 l 172 601 l 174 601 b 419 743 214 692 313 743 "},"Α":{"ha":929,"x_min":0,"x_max":0,"o":"m 863 0 l 708 381 l 221 381 l 67 0 l 28 0 l 446 1031 l 483 1031 l 901 0 m 235 415 l 694 415 l 465 985 "},"Β":{"ha":863,"x_min":0,"x_max":0,"o":"m 538 532 b 771 272 686 501 771 404 b 435 0 771 122 656 0 l 169 0 l 169 1031 l 422 1031 b 729 775 617 1031 729 926 b 538 532 729 651 663 561 m 206 546 l 433 546 b 692 774 617 546 692 654 b 426 997 692 911 593 997 l 206 997 m 435 35 b 735 272 633 35 735 140 b 439 511 735 407 631 511 l 206 511 l 206 35 l 435 35 "},"Γ":{"ha":683,"x_min":0,"x_max":0,"o":"m 169 1031 l 649 1031 l 649 997 l 206 997 l 206 0 l 169 0 "},"Δ":{"ha":943,"x_min":0,"x_max":0,"o":"m 454 1031 l 492 1031 l 917 0 l 28 0 m 864 35 l 472 985 l 81 35 "},"Ε":{"ha":765,"x_min":0,"x_max":0,"o":"m 169 1031 l 654 1031 l 654 997 l 206 997 l 206 540 l 629 540 l 629 507 l 206 507 l 206 35 l 654 35 l 654 0 l 169 0 "},"Ζ":{"ha":775,"x_min":0,"x_max":0,"o":"m 101 35 l 700 35 l 700 0 l 36 0 l 671 996 l 671 997 l 83 997 l 83 1031 l 733 1031 "},"Η":{"ha":1065,"x_min":0,"x_max":0,"o":"m 860 513 l 206 513 l 206 0 l 169 0 l 169 1031 l 206 1031 l 206 547 l 860 547 l 860 1031 l 896 1031 l 896 0 l 860 0 "},"Θ":{"ha":1164,"x_min":0,"x_max":0,"o":"m 582 -12 b 93 515 304 -12 93 208 b 582 1043 93 822 304 1043 b 1071 515 858 1043 1071 822 b 582 -12 1071 208 858 -12 m 582 22 b 1035 515 831 22 1035 219 b 582 1008 1035 811 831 1008 b 129 515 332 1008 129 811 b 582 22 129 219 332 22 m 310 539 l 853 539 l 853 504 l 310 504 "},"Ι":{"ha":375,"x_min":0,"x_max":0,"o":"m 169 1031 l 206 1031 l 206 0 l 169 0 "},"Κ":{"ha":833,"x_min":0,"x_max":0,"o":"m 206 0 l 169 0 l 169 1031 l 206 1031 m 254 515 l 807 0 l 757 0 l 206 515 l 753 1031 l 800 1031 "},"Λ":{"ha":892,"x_min":0,"x_max":0,"o":"m 428 1031 l 465 1031 l 863 0 l 822 0 l 446 985 l 69 0 l 29 0 "},"Μ":{"ha":1313,"x_min":0,"x_max":0,"o":"m 129 0 l 92 0 l 261 1031 l 304 1031 l 658 58 l 660 58 l 1004 1031 l 1049 1031 l 1221 0 l 1183 0 l 1024 972 l 1021 972 l 675 0 l 642 0 l 289 969 l 288 969 "},"Ν":{"ha":1079,"x_min":0,"x_max":0,"o":"m 910 0 l 874 0 l 207 972 l 206 972 l 206 0 l 169 0 l 169 1031 l 210 1031 l 872 64 l 874 64 l 874 1031 l 910 1031 "},"Ξ":{"ha":863,"x_min":0,"x_max":0,"o":"m 774 1031 l 774 994 l 90 994 l 90 1031 m 711 540 l 711 504 l 151 504 l 151 540 m 774 36 l 774 0 l 90 0 l 90 36 "},"Ο":{"ha":1164,"x_min":0,"x_max":0,"o":"m 582 -12 b 93 515 304 -12 93 208 b 582 1043 93 822 304 1043 b 1071 515 858 1043 1071 822 b 582 -12 1071 208 858 -12 m 582 22 b 1035 515 831 22 1035 219 b 582 1008 1035 811 831 1008 b 129 515 332 1008 129 811 b 582 22 129 219 332 22 "},"Π":{"ha":1033,"x_min":0,"x_max":0,"o":"m 828 997 l 206 997 l 206 0 l 169 0 l 169 1031 l 864 1031 l 864 0 l 828 0 "},"Ρ":{"ha":800,"x_min":0,"x_max":0,"o":"m 169 1031 l 375 1031 b 738 725 590 1031 738 919 b 374 408 738 524 592 408 l 206 408 l 206 0 l 169 0 m 375 443 b 700 724 574 443 700 544 b 376 997 700 899 572 997 l 206 997 l 206 443 l 375 443 "},"Σ":{"ha":774,"x_min":0,"x_max":0,"o":"m 710 35 l 710 0 l 47 0 l 349 522 l 61 1031 l 696 1031 l 696 997 l 121 997 l 121 996 l 390 522 l 107 36 l 107 35 "},"Τ":{"ha":793,"x_min":0,"x_max":0,"o":"m 378 997 l 32 997 l 32 1031 l 761 1031 l 761 997 l 414 997 l 414 0 l 378 0 "},"Υ":{"ha":825,"x_min":0,"x_max":0,"o":"m 396 458 l 25 1031 l 65 1031 l 413 496 l 414 496 l 758 1031 l 799 1031 l 431 458 l 431 0 l 396 0 "},"Φ":{"ha":1156,"x_min":0,"x_max":0,"o":"m 596 988 b 1075 531 865 988 1075 799 b 596 74 1075 263 865 74 l 596 -29 l 560 -29 l 560 74 b 81 531 290 74 81 263 b 560 988 81 799 290 988 l 560 1090 l 596 1090 l 596 988 m 560 954 b 118 531 310 954 118 779 b 560 107 118 282 310 107 m 596 107 b 1038 531 846 107 1038 282 b 596 954 1038 779 846 954 l 596 107 "},"Χ":{"ha":854,"x_min":0,"x_max":0,"o":"m 406 519 l 47 1031 l 89 1031 l 428 547 l 764 1031 l 804 1031 l 447 521 l 814 0 l 771 0 l 426 492 l 83 0 l 42 0 "},"Ψ":{"ha":1068,"x_min":0,"x_max":0,"o":"m 969 1031 l 969 636 b 551 257 969 392 801 257 l 551 0 l 515 0 l 515 257 b 99 636 267 257 99 392 l 99 1031 l 135 1031 l 135 636 b 515 290 135 410 285 290 l 515 1031 l 551 1031 l 551 290 b 933 636 783 290 933 410 l 933 1031 "},"Ω":{"ha":1165,"x_min":0,"x_max":0,"o":"m 1082 35 l 1082 0 l 694 0 l 694 28 b 1022 538 857 100 1021 289 b 582 1008 1025 819 842 1008 b 143 538 324 1008 140 819 b 471 28 144 289 308 100 l 471 0 l 82 0 l 82 35 l 396 35 b 106 539 236 124 106 315 b 582 1043 104 840 301 1043 b 1058 539 863 1043 1060 840 b 769 35 1058 315 928 124 "},"Ά":{"ha":949,"x_min":0,"x_max":0,"o":"m 269 1032 l 188 740 l 157 740 l 229 1032 m 882 0 l 728 381 l 240 381 l 86 0 l 47 0 l 465 1031 l 503 1031 l 921 0 m 254 415 l 714 415 l 485 985 "},"Έ":{"ha":857,"x_min":0,"x_max":0,"o":"m 153 1032 l 71 740 l 40 740 l 113 1032 m 261 1031 l 746 1031 l 746 997 l 297 997 l 297 540 l 721 540 l 721 507 l 297 507 l 297 35 l 746 35 l 746 0 l 261 0 "},"Ή":{"ha":1158,"x_min":0,"x_max":0,"o":"m 153 1032 l 71 740 l 40 740 l 113 1032 m 951 513 l 297 513 l 297 0 l 261 0 l 261 1031 l 297 1031 l 297 547 l 951 547 l 951 1031 l 988 1031 l 988 0 l 951 0 "},"Ί":{"ha":467,"x_min":0,"x_max":0,"o":"m 153 1032 l 71 740 l 40 740 l 113 1032 m 261 1031 l 297 1031 l 297 0 l 261 0 "},"Ό":{"ha":1250,"x_min":0,"x_max":0,"o":"m 668 -12 b 179 515 390 -12 179 208 b 668 1043 179 822 390 1043 b 1157 515 944 1043 1157 822 b 668 -12 1157 208 944 -12 m 193 1032 l 111 740 l 81 740 l 153 1032 m 668 22 b 1121 515 917 22 1121 219 b 668 1008 1121 811 917 1008 b 215 515 418 1008 215 811 b 668 22 215 219 418 22 "},"Ύ":{"ha":1046,"x_min":0,"x_max":0,"o":"m 175 1032 l 93 740 l 63 740 l 135 1032 m 618 458 l 247 1031 l 288 1031 l 635 496 l 636 496 l 981 1031 l 1021 1031 l 653 458 l 653 0 l 618 0 "},"Ώ":{"ha":1239,"x_min":0,"x_max":0,"o":"m 1156 35 l 1156 0 l 768 0 l 768 28 b 1096 538 931 100 1094 289 b 656 1008 1099 819 915 1008 b 217 538 397 1008 214 819 b 544 28 218 289 382 100 l 544 0 l 156 0 l 156 35 l 469 35 b 179 539 310 124 179 315 b 656 1043 178 840 375 1043 b 1132 539 936 1043 1133 840 b 843 35 1132 315 1001 124 m 169 1032 l 88 740 l 57 740 l 129 1032 "},"Ϊ":{"ha":375,"x_min":0,"x_max":0,"o":"m 78 1215 b 43 1249 58 1215 43 1231 b 78 1283 43 1268 58 1283 b 113 1249 97 1283 113 1268 b 78 1215 113 1231 97 1215 m 299 1215 b 264 1249 279 1215 264 1231 b 299 1283 264 1268 279 1283 b 333 1249 318 1283 333 1268 b 299 1215 333 1231 318 1215 m 169 1031 l 206 1031 l 206 0 l 169 0 "},"Ϋ":{"ha":825,"x_min":0,"x_max":0,"o":"m 297 1215 b 263 1249 278 1215 263 1231 b 297 1283 263 1268 278 1283 b 332 1249 317 1283 332 1268 b 297 1215 332 1231 317 1215 m 518 1215 b 483 1249 499 1215 483 1231 b 518 1283 483 1268 499 1283 b 553 1249 538 1283 553 1268 b 518 1215 553 1231 538 1215 m 396 458 l 25 1031 l 65 1031 l 413 496 l 414 496 l 758 1031 l 799 1031 l 431 458 l 431 0 l 396 0 "},"α":{"ha":889,"x_min":0,"x_max":0,"o":"m 808 28 b 836 31 821 28 829 29 l 836 -1 b 806 -6 828 -4 817 -6 b 696 117 732 -6 696 33 l 696 172 l 703 172 l 704 221 l 701 221 b 407 -11 654 67 531 -11 b 83 365 239 -11 83 132 b 406 743 83 600 238 743 b 697 519 528 743 650 668 l 699 519 l 703 732 l 732 732 l 732 118 b 808 28 732 51 754 28 m 408 24 b 697 367 561 24 697 154 b 408 708 697 579 563 708 b 119 365 256 708 119 579 b 408 24 119 154 257 24 "},"β":{"ha":872,"x_min":0,"x_max":0,"o":"m 524 603 b 794 296 685 575 794 456 b 472 -11 794 119 660 -11 b 167 124 346 -11 222 47 l 167 -301 l 131 -301 l 131 797 b 431 1110 131 981 251 1110 b 704 854 599 1110 704 1013 b 524 603 704 728 636 635 m 472 24 b 758 297 640 24 758 138 b 439 582 758 465 626 582 l 347 582 l 347 615 l 414 615 b 668 854 572 615 668 707 b 431 1075 668 994 578 1075 b 167 797 271 1075 167 963 l 167 172 b 472 24 226 82 346 24 "},"γ":{"ha":735,"x_min":0,"x_max":0,"o":"m 653 732 b 378 13 653 485 544 189 l 378 -301 l 342 -301 l 342 3 l 38 732 l 75 732 l 358 47 l 363 47 b 617 732 494 181 617 471 l 653 732 "},"δ":{"ha":839,"x_min":0,"x_max":0,"o":"m 467 701 b 758 322 668 596 758 486 b 417 -11 758 124 619 -11 b 81 314 221 -11 81 122 b 406 693 81 493 207 643 b 189 932 256 775 189 836 b 440 1110 189 1040 286 1110 b 697 1050 521 1110 619 1086 l 696 1011 b 440 1075 610 1053 517 1075 b 225 932 311 1075 225 1022 b 467 701 225 850 283 797 m 417 24 b 722 322 597 24 722 140 b 451 669 722 467 649 567 l 443 674 b 117 314 247 631 117 485 b 417 24 117 143 239 24 "},"ε":{"ha":663,"x_min":0,"x_max":0,"o":"m 356 24 b 594 83 460 24 540 53 l 594 46 b 356 -11 542 18 457 -11 b 85 186 192 -11 85 61 b 244 382 85 279 143 358 b 107 549 160 401 107 465 b 356 743 107 669 201 743 b 582 693 433 743 532 722 l 582 656 b 356 708 536 686 432 708 b 143 549 221 708 143 650 b 326 399 143 456 215 399 l 497 399 l 497 364 l 333 364 b 121 186 199 364 121 289 b 356 24 121 81 213 24 "},"ζ":{"ha":625,"x_min":0,"x_max":0,"o":"m 607 1075 b 115 344 275 742 115 504 b 314 115 115 225 164 168 l 469 60 b 596 -99 554 29 596 -22 b 514 -301 596 -157 574 -212 l 471 -301 b 560 -101 529 -222 560 -157 b 450 31 560 -37 525 4 l 297 85 b 79 343 138 142 79 211 b 550 1067 79 510 228 736 l 129 1067 l 129 1101 l 607 1101 "},"η":{"ha":808,"x_min":0,"x_max":0,"o":"m 429 743 b 683 490 582 743 683 646 l 683 -301 l 647 -301 l 647 481 b 425 708 647 626 563 708 b 182 485 294 708 182 628 l 182 0 l 146 0 l 146 619 b 74 706 146 683 125 706 b 47 703 63 706 54 704 l 47 735 b 76 738 54 736 65 738 b 182 621 146 738 182 701 l 182 599 b 429 743 222 688 315 743 "},"θ":{"ha":878,"x_min":0,"x_max":0,"o":"m 439 1106 b 782 553 647 1106 782 892 b 439 -11 782 203 650 -11 b 96 553 229 -11 96 203 b 439 1106 96 892 231 1106 m 439 1071 b 132 576 256 1071 138 881 l 746 576 b 439 1071 740 881 622 1071 m 439 24 b 746 542 625 24 743 221 l 132 542 b 439 24 135 222 253 24 "},"ι":{"ha":414,"x_min":0,"x_max":0,"o":"m 344 -8 b 129 210 218 -8 129 50 l 129 732 l 165 732 l 165 214 b 347 25 165 72 236 25 b 410 32 369 25 389 26 l 410 0 b 344 -8 396 -6 369 -8 "},"κ":{"ha":738,"x_min":0,"x_max":0,"o":"m 371 392 l 167 165 l 167 0 l 131 0 l 131 732 l 167 732 l 167 214 l 635 732 l 681 732 l 396 418 l 706 0 l 664 0 "},"λ":{"ha":729,"x_min":0,"x_max":0,"o":"m 638 0 l 374 682 l 372 682 l 75 0 l 36 0 l 356 728 l 260 974 b 132 1074 232 1050 193 1074 b 83 1067 115 1074 97 1071 l 83 1099 b 136 1106 96 1103 117 1106 b 290 989 208 1106 256 1076 l 675 0 "},"μ":{"ha":814,"x_min":0,"x_max":0,"o":"m 742 28 b 768 31 754 28 763 29 l 768 -1 b 738 -6 761 -4 749 -6 b 632 117 667 -6 632 33 l 632 135 b 397 -11 596 44 506 -11 b 168 132 288 -11 203 40 l 167 132 l 167 -301 l 131 -301 l 131 732 l 167 732 l 167 256 b 399 25 167 117 257 25 b 631 265 538 25 631 106 l 631 732 l 667 732 l 667 118 b 742 28 667 51 689 28 "},"ν":{"ha":721,"x_min":0,"x_max":0,"o":"m 39 732 l 76 732 l 340 38 l 342 38 b 604 732 486 189 604 494 l 640 732 b 351 0 640 482 519 176 l 318 0 "},"ξ":{"ha":672,"x_min":0,"x_max":0,"o":"m 426 1072 b 146 849 247 1072 146 992 b 411 635 146 719 250 635 l 522 635 l 522 601 l 414 601 b 108 350 235 601 108 497 b 307 121 108 240 168 171 l 478 60 b 603 -99 560 29 603 -24 b 519 -301 603 -157 579 -214 l 476 -301 b 567 -101 535 -224 567 -156 b 458 31 567 -39 532 4 l 292 90 b 72 347 139 144 72 224 b 301 618 72 481 164 586 b 110 847 183 649 110 735 b 422 1106 110 1011 224 1106 b 636 1057 499 1106 589 1086 l 636 1019 b 426 1072 594 1049 506 1071 "},"ο":{"ha":853,"x_min":0,"x_max":0,"o":"m 426 -11 b 81 365 244 -11 81 136 b 426 743 81 594 243 743 b 771 365 608 743 771 594 b 426 -11 771 138 607 -11 m 426 24 b 735 365 583 24 735 150 b 426 708 735 581 583 708 b 117 365 268 708 117 581 b 426 24 117 150 268 24 "},"ρ":{"ha":858,"x_min":0,"x_max":0,"o":"m 118 351 b 440 743 118 588 246 743 b 776 367 633 743 776 582 b 444 -11 776 150 633 -11 b 156 207 308 -11 199 72 l 154 207 l 154 -301 l 118 -301 m 443 24 b 740 367 614 24 740 169 b 440 708 740 563 613 708 b 153 363 271 708 153 567 b 443 24 153 165 275 24 "},"ς":{"ha":672,"x_min":0,"x_max":0,"o":"m 469 -301 b 560 -101 531 -218 560 -156 b 449 31 560 -37 522 4 l 299 83 b 81 385 150 138 81 235 b 421 743 81 586 229 743 b 625 692 497 743 569 725 l 625 651 b 421 708 569 689 496 708 b 117 385 249 708 117 567 b 314 115 117 249 178 163 l 468 60 b 596 -99 551 29 596 -24 b 513 -301 596 -157 571 -214 l 469 -301 "},"σ":{"ha":863,"x_min":0,"x_max":0,"o":"m 840 699 l 556 699 b 764 361 674 646 764 528 b 424 -11 764 133 603 -11 b 82 361 244 -11 82 133 b 424 732 82 586 243 732 l 429 731 l 428 732 l 840 732 m 728 361 b 424 697 728 554 596 697 b 118 361 251 697 118 554 b 424 24 118 168 251 24 b 728 361 596 24 728 168 "},"τ":{"ha":671,"x_min":0,"x_max":0,"o":"m 319 699 l 319 221 b 504 25 319 72 389 25 b 572 32 528 25 551 26 l 572 0 b 501 -8 558 -6 528 -8 b 283 215 365 -8 283 53 l 283 699 l 28 699 l 28 732 l 629 732 l 629 699 "},"υ":{"ha":772,"x_min":0,"x_max":0,"o":"m 385 -11 b 122 269 214 -11 122 88 l 122 732 l 158 732 l 158 269 b 385 24 158 106 235 24 b 644 356 550 24 644 146 b 554 732 644 503 615 625 l 594 732 b 681 356 654 621 681 504 b 385 -11 681 126 569 -11 "},"φ":{"ha":965,"x_min":0,"x_max":0,"o":"m 883 365 b 501 -11 883 136 722 -10 l 501 -301 l 465 -301 l 465 -11 b 82 365 243 -10 82 136 b 465 742 82 594 243 740 l 465 956 l 501 956 l 501 742 b 883 365 722 740 883 594 m 118 365 b 465 24 118 156 261 25 l 465 708 b 118 365 261 707 118 575 m 501 24 b 847 365 704 25 847 156 b 501 708 847 575 704 707 l 501 24 "},"χ":{"ha":633,"x_min":0,"x_max":0,"o":"m 571 -301 l 318 175 l 82 -301 l 43 -301 l 300 210 l 24 732 l 63 732 l 321 244 l 561 732 l 597 732 l 339 210 l 610 -301 "},"ψ":{"ha":942,"x_min":0,"x_max":0,"o":"m 850 369 b 492 -11 850 132 715 -7 l 492 -304 l 456 -304 l 456 -11 b 122 297 239 -10 122 90 l 122 732 l 158 732 l 158 297 b 456 24 158 111 257 25 l 456 956 l 492 956 l 492 24 b 814 369 697 28 814 151 b 726 732 814 504 789 618 l 767 732 b 850 369 824 619 850 504 "},"ω":{"ha":1103,"x_min":0,"x_max":0,"o":"m 899 732 b 1014 324 974 614 1014 472 b 772 -11 1014 111 928 -11 b 551 190 656 -11 581 58 b 331 -11 522 58 447 -11 b 89 324 175 -11 89 111 b 206 732 89 474 129 614 l 244 732 b 125 324 168 617 125 472 b 331 24 125 129 197 24 b 533 321 461 24 533 129 l 533 519 l 569 519 l 569 321 b 772 24 569 129 642 24 b 978 324 907 24 978 129 b 860 732 978 474 936 617 l 899 732 "},"ί":{"ha":414,"x_min":0,"x_max":0,"o":"m 272 1171 l 164 879 l 133 879 l 233 1171 m 344 -8 b 129 210 218 -8 129 50 l 129 732 l 165 732 l 165 214 b 347 25 165 72 236 25 b 410 32 369 25 389 26 l 410 0 b 344 -8 396 -6 369 -8 "},"ϊ":{"ha":415,"x_min":0,"x_max":0,"o":"m 44 915 b 10 949 25 915 10 931 b 44 983 10 968 25 983 b 79 949 64 983 79 968 b 44 915 79 931 64 915 m 265 915 b 231 949 246 915 231 931 b 265 983 231 968 246 983 b 300 949 285 983 300 968 b 265 915 300 931 285 915 m 346 -8 b 131 210 219 -8 131 50 l 131 732 l 167 732 l 167 214 b 349 25 167 72 238 25 b 411 32 371 25 390 26 l 411 0 b 346 -8 397 -6 371 -8 "},"ΐ":{"ha":415,"x_min":0,"x_max":0,"o":"m 226 1171 l 265 1171 l 157 879 l 126 879 m 47 915 b 13 949 29 915 13 931 b 47 983 13 968 29 983 b 83 949 67 983 83 968 b 47 915 83 931 67 915 m 289 915 b 254 949 269 915 254 931 b 289 983 254 968 269 983 b 324 949 308 983 324 968 b 289 915 324 931 308 915 m 346 -8 b 131 210 219 -8 131 50 l 131 732 l 167 732 l 167 214 b 349 25 167 72 238 25 b 411 32 371 25 390 26 l 411 0 b 346 -8 397 -6 371 -8 "},"ύ":{"ha":772,"x_min":0,"x_max":0,"o":"m 472 1171 l 364 879 l 333 879 l 433 1171 m 385 -11 b 122 269 214 -11 122 88 l 122 732 l 158 732 l 158 269 b 385 24 158 106 235 24 b 644 356 550 24 644 146 b 554 732 644 503 615 625 l 594 732 b 681 356 654 621 681 504 b 385 -11 681 126 569 -11 "},"ϋ":{"ha":772,"x_min":0,"x_max":0,"o":"m 243 915 b 208 949 224 915 208 931 b 243 983 208 968 224 983 b 278 949 263 983 278 968 b 243 915 278 931 263 915 m 464 915 b 429 949 444 915 429 931 b 464 983 429 968 444 983 b 499 949 483 983 499 968 b 464 915 499 931 483 915 m 385 -11 b 122 269 214 -11 122 88 l 122 732 l 158 732 l 158 269 b 385 24 158 106 235 24 b 644 356 550 24 644 146 b 554 732 644 503 615 625 l 594 732 b 681 356 654 621 681 504 b 385 -11 681 126 569 -11 "},"ΰ":{"ha":772,"x_min":0,"x_max":0,"o":"m 425 1171 l 464 1171 l 356 879 l 325 879 m 246 915 b 211 949 228 915 211 931 b 246 983 211 968 228 983 b 282 949 265 983 282 968 b 246 915 282 931 265 915 m 488 915 b 453 949 468 915 453 931 b 488 983 453 968 468 983 b 522 949 507 983 522 968 b 488 915 522 931 507 915 m 385 -11 b 122 269 214 -11 122 88 l 122 732 l 158 732 l 158 269 b 385 24 158 106 235 24 b 644 356 550 24 644 146 b 554 732 644 503 615 625 l 594 732 b 681 356 654 621 681 504 b 385 -11 681 126 569 -11 "},"ό":{"ha":853,"x_min":0,"x_max":0,"o":"m 544 1171 l 436 879 l 406 879 l 506 1171 m 426 -11 b 81 365 244 -11 81 136 b 426 743 81 594 243 743 b 771 365 608 743 771 594 b 426 -11 771 138 607 -11 m 426 24 b 735 365 583 24 735 150 b 426 708 735 581 583 708 b 117 365 268 708 117 581 b 426 24 117 150 268 24 "},"ώ":{"ha":1103,"x_min":0,"x_max":0,"o":"m 560 879 l 529 879 l 629 1171 l 668 1171 m 899 732 b 1014 324 974 614 1014 472 b 772 -11 1014 111 928 -11 b 551 190 656 -11 581 58 b 331 -11 522 58 447 -11 b 89 324 175 -11 89 111 b 206 732 89 474 129 614 l 244 732 b 125 324 168 617 125 472 b 331 24 125 129 197 24 b 533 321 461 24 533 129 l 533 519 l 569 519 l 569 321 b 772 24 569 129 642 24 b 978 324 907 24 978 129 b 860 732 978 474 936 617 l 899 732 "},"ά":{"ha":889,"x_min":0,"x_max":0,"o":"m 463 879 l 432 879 l 532 1171 l 571 1171 m 808 28 b 836 31 821 28 829 29 l 836 -1 b 806 -6 828 -4 817 -6 b 696 117 732 -6 696 33 l 696 172 l 703 172 l 704 221 l 701 221 b 407 -11 654 67 531 -11 b 83 365 239 -11 83 132 b 406 743 83 600 238 743 b 697 519 528 743 650 668 l 699 519 l 703 732 l 732 732 l 732 118 b 808 28 732 51 754 28 m 408 24 b 697 367 561 24 697 154 b 408 708 697 579 563 708 b 119 365 256 708 119 579 b 408 24 119 154 257 24 "},"έ":{"ha":663,"x_min":0,"x_max":0,"o":"m 356 879 l 325 879 l 425 1171 l 464 1171 m 356 24 b 594 83 460 24 540 53 l 594 46 b 356 -11 542 18 457 -11 b 85 186 192 -11 85 61 b 244 382 85 279 143 358 b 107 549 160 401 107 465 b 356 743 107 669 201 743 b 582 693 433 743 532 722 l 582 656 b 356 708 536 686 432 708 b 143 549 221 708 143 650 b 326 399 143 456 215 399 l 497 399 l 497 364 l 333 364 b 121 186 199 364 121 289 b 356 24 121 81 213 24 "},"ή":{"ha":808,"x_min":0,"x_max":0,"o":"m 378 879 l 347 879 l 447 1171 l 486 1171 m 429 743 b 683 490 582 743 683 646 l 683 -301 l 647 -301 l 647 481 b 425 708 647 626 563 708 b 182 485 294 708 182 628 l 182 0 l 146 0 l 146 619 b 74 706 146 683 125 706 b 47 703 63 706 54 704 l 47 735 b 76 738 54 736 65 738 b 182 621 146 738 182 701 l 182 599 b 429 743 222 688 315 743 "},"·":{"ha":325,"x_min":0,"x_max":0,"o":"m 163 479 b 117 525 138 479 117 499 b 163 571 117 551 138 571 b 210 525 189 571 210 551 b 163 479 210 499 189 479 "},";":{"ha":328,"x_min":0,"x_max":0,"o":"m 171 479 b 125 525 146 479 125 499 b 171 571 125 551 146 571 b 218 525 197 571 218 551 b 171 479 218 499 197 479 m 93 -185 b 156 104 118 -121 156 -11 l 156 150 l 192 150 l 192 104 b 124 -185 192 -11 149 -124 l 93 -185 "},"΄":{"ha":853,"x_min":0,"x_max":0,"o":"m 508 1171 l 400 879 l 369 879 l 469 1171 "},"΅":{"ha":819,"x_min":0,"x_max":0,"o":"m 458 1171 l 497 1171 l 389 879 l 358 879 m 279 915 b 244 949 261 915 244 931 b 279 983 244 968 261 983 b 315 949 299 983 315 968 b 279 915 315 931 299 915 m 521 915 b 486 949 501 915 486 931 b 521 983 486 968 501 983 b 556 949 540 983 556 968 b 521 915 556 931 540 915 "}}}
